<svg id="Layer_1" data-name="Layer 1" xmlns="http://www.w3.org/2000/svg" xmlns:xlink="http://www.w3.org/1999/xlink" viewBox="0 0 1108.23 738.58"><defs><style>.cls-1,.cls-2{fill:none;}.cls-2,.cls-5{clip-rule:evenodd;}.cls-3{fill:#fff;}.cls-4{fill:#ccc;}.cls-21,.cls-5,.cls-6,.cls-9{fill:#4a4a4a;}.cls-7{clip-path:url(#clip-path);}.cls-8{clip-path:url(#clip-path-2);}.cls-9{opacity:0.3;}.cls-10{clip-path:url(#clip-path-3);}.cls-11{clip-path:url(#clip-path-5);}.cls-12{clip-path:url(#clip-path-7);}.cls-13{clip-path:url(#clip-path-9);}.cls-14{clip-path:url(#clip-path-11);}.cls-15{clip-path:url(#clip-path-13);}.cls-16{clip-path:url(#clip-path-15);}.cls-17{isolation:isolate;}.cls-18{clip-path:url(#clip-path-17);}.cls-19{clip-path:url(#clip-path-18);}.cls-20,.cls-27{fill:#b3b3b3;}.cls-20,.cls-21{fill-rule:evenodd;}.cls-22{clip-path:url(#clip-path-19);}.cls-23{clip-path:url(#clip-path-20);}.cls-24{clip-path:url(#clip-path-21);}.cls-25{clip-path:url(#clip-path-23);}.cls-26{clip-path:url(#clip-path-25);}.cls-28{fill:#5c5c5c;}.cls-29{clip-path:url(#clip-path-27);}.cls-30{clip-path:url(#clip-path-29);}.cls-31{clip-path:url(#clip-path-31);}.cls-32{clip-path:url(#clip-path-32);}.cls-33{clip-path:url(#clip-path-33);}</style><clipPath id="clip-path" transform="translate(71.23 53.28)"><ellipse class="cls-1" cx="610.75" cy="147.12" rx="96.75" ry="96.68"/></clipPath><clipPath id="clip-path-2" transform="translate(71.23 53.28)"><rect class="cls-1" x="-206" y="-238" width="1440" height="1024"/></clipPath><clipPath id="clip-path-3" transform="translate(71.23 53.28)"><ellipse class="cls-1" cx="827.01" cy="236.45" rx="106.63" ry="106.55"/></clipPath><clipPath id="clip-path-5" transform="translate(71.23 53.28)"><ellipse class="cls-1" cx="982.36" cy="202.92" rx="49.64" ry="49.6"/></clipPath><clipPath id="clip-path-7" transform="translate(71.23 53.28)"><ellipse class="cls-1" cx="801.5" cy="47.46" rx="30.57" ry="30.54"/></clipPath><clipPath id="clip-path-9" transform="translate(71.23 53.28)"><ellipse class="cls-1" cx="688.66" cy="235.07" rx="31.71" ry="31.69"/></clipPath><clipPath id="clip-path-11" transform="translate(71.23 53.28)"><ellipse class="cls-1" cx="741.29" cy="119.57" rx="60.9" ry="60.85"/></clipPath><clipPath id="clip-path-13" transform="translate(71.23 53.28)"><ellipse class="cls-1" cx="895.49" cy="92.7" rx="76.76" ry="76.7"/></clipPath><clipPath id="clip-path-15" transform="translate(71.23 53.28)"><path class="cls-2" d="M179.5,359A179.5,179.5,0,1,0,0,179.5,179.5,179.5,0,0,0,179.5,359Zm.31-99.65a79.54,79.54,0,1,0-79.54-79.54A79.54,79.54,0,0,0,179.81,259.35Z"/></clipPath><clipPath id="clip-path-17" transform="translate(71.23 53.28)"><rect class="cls-3" x="-67" y="-49" width="478" height="417"/></clipPath><clipPath id="clip-path-18" transform="translate(71.23 53.28)"><rect class="cls-4" width="359" height="359"/></clipPath><clipPath id="clip-path-19" transform="translate(71.23 53.28)"><polygon class="cls-5" points="177.02 178.59 38.62 302.67 -56.33 209.21 -14.48 123.79 177.02 178.59"/></clipPath><clipPath id="clip-path-20" transform="translate(71.23 53.28)"><rect class="cls-6" width="359" height="359"/></clipPath><clipPath id="clip-path-21" transform="translate(71.23 53.28)"><polygon class="cls-5" points="176.41 178.26 -66.23 163.8 144.27 -48.28 176.41 178.26"/></clipPath><clipPath id="clip-path-23" transform="translate(71.23 53.28)"><circle class="cls-1" cx="80.5" cy="428.5" r="16.5"/></clipPath><clipPath id="clip-path-25" transform="translate(71.23 53.28)"><circle class="cls-1" cx="80.5" cy="481.5" r="16.5"/></clipPath><clipPath id="clip-path-27" transform="translate(71.23 53.28)"><path class="cls-2" d="M64.5,548a5,5,0,0,1,5-5h190a5,5,0,0,1,5,5v85a5,5,0,0,1-5,5h-190a5,5,0,0,1-5-5Z"/></clipPath><clipPath id="clip-path-29" transform="translate(71.23 53.28)"><rect class="cls-1" x="70" y="652" width="37" height="37"/></clipPath><clipPath id="clip-path-31" transform="translate(71.23 53.28)"><rect class="cls-1" x="71" y="661" width="35" height="19"/></clipPath><clipPath id="clip-path-32" transform="translate(71.23 53.28)"><path class="cls-2" d="M102.38,667.42a2.62,2.62,0,0,1-.79-.11l-5.49,5.47a2.72,2.72,0,0,1,.11.8,3.08,3.08,0,1,1-6.17,0,2.72,2.72,0,0,1,.11-.8l-3.93-3.93a3,3,0,0,1-1.6,0l-7,7a2.62,2.62,0,0,1,.11.79,3.08,3.08,0,1,1-3.08-3.08,2.62,2.62,0,0,1,.79.11l7-7a2.72,2.72,0,0,1-.11-.8,3.08,3.08,0,0,1,6.17,0,2.72,2.72,0,0,1-.11.8l3.93,3.93a3,3,0,0,1,1.6,0l5.47-5.49a2.62,2.62,0,0,1-.11-.79,3.08,3.08,0,1,1,3.08,3.08Z"/></clipPath><clipPath id="clip-path-33" transform="translate(71.23 53.28)"><rect class="cls-1" x="70" y="652" width="37" height="34"/></clipPath></defs><title>left-bottom</title><g class="cls-7"><g class="cls-8"><rect class="cls-9" x="580.23" y="98.72" width="203.5" height="203.35"/></g></g><path class="cls-3" d="M554.75,172.1v-3l3.79-3.68c9.13-8.69,13.25-13.31,13.31-18.7,0-3.63-1.76-7-7.09-7a12.17,12.17,0,0,0-7.59,3l-1.54-3.41a15.68,15.68,0,0,1,10.12-3.63c7.7,0,10.94,5.28,10.94,10.39,0,6.6-4.79,11.93-12.32,19.19L561.52,168v.11h16.06v4Z" transform="translate(71.23 53.28)"/><path class="cls-3" d="M605.84,153.84c0,12.15-4.51,18.86-12.43,18.86-7,0-11.71-6.54-11.82-18.37,0-12,5.17-18.59,12.43-18.59C601.55,135.75,605.84,142.46,605.84,153.84Zm-19.41.55c0,9.29,2.86,14.57,7.26,14.57,4.95,0,7.31-5.77,7.31-14.9,0-8.8-2.25-14.57-7.26-14.57C589.51,139.49,586.43,144.66,586.43,154.39Z" transform="translate(71.23 53.28)"/><path class="cls-3" d="M625.53,146.42c0,7.53-4,11.27-8.58,11.27-4.45,0-8.3-3.57-8.36-10.78s3.9-11.16,8.63-11.16C622.23,135.75,625.53,139.6,625.53,146.42Zm-13.09.33c-.11,4.56,1.59,8,4.62,8,3.19,0,4.62-3.41,4.62-8.14,0-4.34-1.26-8-4.62-8C614,138.66,612.45,142.24,612.45,146.75Zm4.18,26,21-37h3.08l-21,37Zm32.17-11.49c0,7.53-4,11.27-8.52,11.27s-8.3-3.57-8.36-10.72,3.9-11.22,8.63-11.22C645.55,150.54,648.8,154.39,648.8,161.21Zm-13.09.33c-.06,4.56,1.7,8,4.67,8,3.19,0,4.62-3.41,4.62-8.14,0-4.34-1.27-8-4.62-8C637.36,153.46,635.71,157,635.71,161.54Z" transform="translate(71.23 53.28)"/><g class="cls-10"><g class="cls-8"><rect class="cls-9" x="786.6" y="178.18" width="223.27" height="223.1"/></g></g><path class="cls-3" d="M771.24,256.37A19.12,19.12,0,0,0,780.6,259c7.35,0,9.62-4.68,9.56-8.19-.07-5.92-5.4-8.45-10.92-8.45h-3.19v-4.29h3.19c4.16,0,9.42-2.14,9.42-7.15,0-3.38-2.14-6.37-7.41-6.37a15.52,15.52,0,0,0-8.45,2.79l-1.5-4.16A20.08,20.08,0,0,1,782.36,220c8.32,0,12.09,4.94,12.09,10.08,0,4.36-2.6,8.06-7.8,9.95v.13c5.2,1,9.42,4.94,9.42,10.85,0,6.76-5.26,12.68-15.41,12.68a21.48,21.48,0,0,1-11-2.86Z" transform="translate(71.23 53.28)"/><path class="cls-3" d="M830.46,241.36c0,14.37-5.33,22.3-14.69,22.3-8.25,0-13.84-7.74-14-21.71,0-14.17,6.11-22,14.69-22C825.39,220,830.46,227.9,830.46,241.36Zm-22.95.65c0,11,3.38,17.23,8.58,17.23,5.85,0,8.65-6.83,8.65-17.62,0-10.4-2.67-17.23-8.58-17.23C811.15,224.39,807.51,230.5,807.51,242Z" transform="translate(71.23 53.28)"/><path class="cls-3" d="M853.92,232.58c0,8.91-4.68,13.33-10.14,13.33-5.27,0-9.82-4.23-9.88-12.74s4.62-13.2,10.21-13.2C850,220,853.92,224.52,853.92,232.58Zm-15.47.39c-.13,5.39,1.89,9.49,5.46,9.49,3.77,0,5.46-4,5.46-9.62,0-5.14-1.5-9.43-5.46-9.43C840.34,223.42,838.45,227.64,838.45,233Zm4.94,30.68L868.22,220h3.64L847,263.65Zm38-13.58c0,8.91-4.68,13.33-10.08,13.33s-9.82-4.23-9.88-12.68,4.62-13.26,10.21-13.26C877.58,237.46,881.42,242,881.42,250.07Zm-15.47.39c-.06,5.4,2,9.49,5.53,9.49,3.77,0,5.46-4,5.46-9.62,0-5.14-1.49-9.43-5.46-9.43C867.9,240.9,865.95,245.13,865.95,250.46Z" transform="translate(71.23 53.28)"/><g class="cls-11"><g class="cls-8"><rect class="cls-9" x="998.95" y="201.6" width="109.28" height="109.2"/></g></g><path class="cls-3" d="M963.45,196.34h-.05l-3,1.65-.46-1.81,3.83-2.05h2v17.54h-2.29Z" transform="translate(71.23 53.28)"/><path class="cls-3" d="M983.37,202.71c0,6-2.21,9.26-6.1,9.26-3.43,0-5.75-3.21-5.8-9s2.54-9.12,6.1-9.12S983.37,197.13,983.37,202.71Zm-9.53.27c0,4.56,1.4,7.15,3.56,7.15,2.43,0,3.59-2.83,3.59-7.31,0-4.32-1.11-7.15-3.56-7.15C975.35,195.67,973.84,198.21,973.84,203Z" transform="translate(71.23 53.28)"/><path class="cls-3" d="M993,199.07c0,3.7-1.94,5.53-4.21,5.53s-4.08-1.75-4.1-5.29,1.92-5.48,4.24-5.48S993,195.72,993,199.07Zm-6.42.16c-.05,2.24.78,3.94,2.27,3.94s2.27-1.67,2.27-4c0-2.13-.62-3.91-2.27-3.91C987.4,195.26,986.61,197,986.61,199.23ZM988.67,212,999,193.83h1.51L990.18,212Zm15.79-5.64c0,3.7-1.94,5.53-4.18,5.53s-4.08-1.75-4.1-5.26,1.92-5.51,4.24-5.51S1004.46,203,1004.46,206.33Zm-6.42.16c0,2.24.84,3.94,2.29,3.94s2.27-1.67,2.27-4c0-2.13-.62-3.91-2.27-3.91C998.84,202.52,998,204.28,998,206.49Z" transform="translate(71.23 53.28)"/><g class="cls-12"><g class="cls-8"><rect class="cls-9" x="837.16" y="65.2" width="71.13" height="71.08"/></g></g><path class="cls-3" d="M794.94,44.49h-5.46l-.55,3.67a7.65,7.65,0,0,1,1.17-.09,6,6,0,0,1,3.08.77,4.08,4.08,0,0,1,2,3.67c0,2.79-2.22,4.88-5.33,4.88a7,7,0,0,1-3.56-.88l.48-1.47a6.4,6.4,0,0,0,3.06.79,3.16,3.16,0,0,0,3.39-3.1c0-1.85-1.25-3.17-4.11-3.17a14.91,14.91,0,0,0-2,.15l.92-6.86h6.84Z" transform="translate(71.23 53.28)"/><path class="cls-3" d="M803.65,46.89c0,3-1.58,4.51-3.43,4.51s-3.32-1.43-3.34-4.31,1.56-4.47,3.45-4.47S803.65,44.16,803.65,46.89Zm-5.24.13c0,1.83.64,3.21,1.85,3.21s1.85-1.36,1.85-3.26c0-1.74-.51-3.19-1.85-3.19S798.41,45.22,798.41,47Zm1.67,10.39,8.41-14.79h1.23l-8.41,14.79ZM813,52.81c0,3-1.58,4.51-3.41,4.51s-3.32-1.43-3.34-4.29,1.56-4.49,3.45-4.49S813,50.08,813,52.81Zm-5.24.13c0,1.83.68,3.21,1.87,3.21s1.85-1.36,1.85-3.26c0-1.74-.51-3.19-1.85-3.19S807.72,51.14,807.72,52.94Z" transform="translate(71.23 53.28)"/><g class="cls-13"><g class="cls-8"><rect class="cls-9" x="723.17" y="251.66" width="73.43" height="73.38"/></g></g><path class="cls-3" d="M682.83,230.52h-5.46l-.55,3.67a7.66,7.66,0,0,1,1.17-.09,6,6,0,0,1,3.08.77,4.08,4.08,0,0,1,2,3.67c0,2.79-2.22,4.88-5.32,4.88a7,7,0,0,1-3.56-.88l.48-1.47a6.4,6.4,0,0,0,3.06.79,3.16,3.16,0,0,0,3.39-3.1c0-1.85-1.25-3.17-4.11-3.17a14.9,14.9,0,0,0-2,.15l.92-6.86h6.84Z" transform="translate(71.23 53.28)"/><path class="cls-3" d="M691.54,232.92c0,3-1.58,4.51-3.43,4.51s-3.32-1.43-3.34-4.31,1.56-4.47,3.46-4.47S691.54,230.19,691.54,232.92Zm-5.24.13c0,1.83.64,3.21,1.85,3.21S690,234.9,690,233c0-1.74-.51-3.19-1.85-3.19S686.3,231.25,686.3,233ZM688,243.43l8.41-14.79h1.23l-8.41,14.79Zm12.87-4.6c0,3-1.58,4.51-3.41,4.51s-3.32-1.43-3.34-4.29,1.56-4.49,3.46-4.49S700.85,236.11,700.85,238.84Zm-5.24.13c0,1.83.68,3.21,1.87,3.21s1.85-1.36,1.85-3.26c0-1.74-.51-3.19-1.85-3.19S695.61,237.16,695.61,239Z" transform="translate(71.23 53.28)"/><g class="cls-14"><g class="cls-8"><rect class="cls-9" x="746.61" y="106.99" width="131.8" height="131.71"/></g></g><path class="cls-3" d="M720.4,113.76h-.06l-3.62,2-.54-2.14,4.54-2.43h2.4v20.8H720.4Z" transform="translate(71.23 53.28)"/><path class="cls-3" d="M744.12,121.31c0,7.07-2.62,11-7.23,11-4.06,0-6.82-3.81-6.88-10.69s3-10.82,7.23-10.82C741.62,110.78,744.12,114.69,744.12,121.31Zm-11.29.32c0,5.41,1.66,8.48,4.22,8.48,2.88,0,4.26-3.36,4.26-8.67,0-5.12-1.31-8.48-4.22-8.48C734.61,113,732.82,116,732.82,121.63Z" transform="translate(71.23 53.28)"/><path class="cls-3" d="M755.67,117c0,4.38-2.3,6.56-5,6.56s-4.83-2.08-4.86-6.27,2.27-6.5,5-6.5C753.75,110.78,755.67,113,755.67,117Zm-7.62.19c-.06,2.66.93,4.67,2.69,4.67s2.69-2,2.69-4.74c0-2.53-.74-4.64-2.69-4.64C749,112.48,748.05,114.56,748.05,117.18Zm2.43,15.1,12.22-21.5h1.79l-12.22,21.5Zm18.72-6.69c0,4.38-2.3,6.56-5,6.56s-4.83-2.08-4.86-6.24,2.27-6.53,5-6.53C767.31,119.39,769.2,121.63,769.2,125.6Zm-7.62.19c0,2.66,1,4.67,2.72,4.67s2.69-2,2.69-4.74c0-2.53-.74-4.64-2.69-4.64C762.55,121.08,761.59,123.17,761.59,125.79Z" transform="translate(71.23 53.28)"/><g class="cls-15"><g class="cls-8"><rect class="cls-9" x="884.96" y="64.28" width="163.52" height="163.4"/></g></g><path class="cls-3" d="M861,112.5v-2.16l2.76-2.68c6.64-6.32,9.64-9.68,9.68-13.6,0-2.64-1.28-5.08-5.16-5.08a8.85,8.85,0,0,0-5.52,2.2l-1.12-2.48A11.41,11.41,0,0,1,869,86.07c5.6,0,8,3.84,8,7.56,0,4.8-3.48,8.68-9,14l-2.08,1.92v.08h11.68v2.92Z" transform="translate(71.23 53.28)"/><path class="cls-3" d="M898.11,99.23c0,8.84-3.28,13.72-9,13.72-5.08,0-8.52-4.76-8.6-13.36s3.76-13.52,9-13.52C895,86.07,898.11,90.95,898.11,99.23Zm-14.12.4c0,6.76,2.08,10.6,5.28,10.6,3.6,0,5.32-4.2,5.32-10.84,0-6.4-1.64-10.6-5.28-10.6C886.23,88.79,884,92.55,884,99.62Z" transform="translate(71.23 53.28)"/><path class="cls-3" d="M912.43,93.83c0,5.48-2.88,8.2-6.24,8.2s-6-2.6-6.08-7.84,2.84-8.12,6.28-8.12C910,86.07,912.43,88.87,912.43,93.83Zm-9.52.24c-.08,3.32,1.16,5.84,3.36,5.84s3.36-2.48,3.36-5.92c0-3.16-.92-5.8-3.36-5.8C904.07,88.19,902.91,90.79,902.91,94.07Zm3,18.88,15.28-26.87h2.24l-15.28,26.87Zm23.4-8.36c0,5.48-2.88,8.2-6.2,8.2s-6-2.6-6.08-7.8,2.84-8.16,6.28-8.16C927,96.82,929.35,99.62,929.35,104.58Zm-9.52.24c0,3.32,1.24,5.84,3.4,5.84,2.32,0,3.36-2.48,3.36-5.92,0-3.16-.92-5.8-3.36-5.8C921,98.94,919.83,101.54,919.83,104.82Z" transform="translate(71.23 53.28)"/><g class="cls-16"><g class="cls-8"><g class="cls-17"><rect class="cls-3" x="4.23" y="4.28" width="478" height="417"/><g class="cls-18"><rect class="cls-4" x="71.23" y="53.28" width="359" height="359"/><g class="cls-19"><rect class="cls-4" x="66.23" y="48.28" width="369" height="369"/></g><polygon class="cls-20" points="486.6 106.46 430.23 106.46 430.23 53.28 419.14 53.28 419.14 27.23 243.25 27.23 243.25 34.04 204.88 34.04 204.88 53.28 71.23 53.28 71.23 412.28 93.46 412.28 93.46 425.33 409.23 425.33 409.23 412.28 430.23 412.28 430.23 372.1 486.6 372.1 486.6 106.46"/><polygon class="cls-21" points="248.25 231.87 109.85 355.95 14.9 262.48 56.75 177.07 248.25 231.87"/><g class="cls-22"><rect class="cls-6" x="71.23" y="53.28" width="359" height="359"/><g class="cls-23"><rect class="cls-6" x="9.9" y="172.07" width="243.35" height="188.88"/></g></g><polygon class="cls-21" points="247.63 231.54 5 217.08 215.5 5 247.63 231.54"/><g class="cls-24"><rect class="cls-6" x="71.23" y="53.28" width="359" height="359"/><g class="cls-23"><rect class="cls-6" width="252.63" height="236.54"/></g></g></g></g></g></g><path class="cls-3" d="M23.64,156a11.76,11.76,0,0,0,5.76,1.64c4.52,0,5.92-2.88,5.88-5,0-3.64-3.32-5.2-6.72-5.2h-2v-2.64h2c2.56,0,5.8-1.32,5.8-4.4,0-2.08-1.32-3.92-4.56-3.92a9.55,9.55,0,0,0-5.2,1.72l-.92-2.56a12.36,12.36,0,0,1,6.8-2c5.12,0,7.44,3,7.44,6.2,0,2.68-1.6,5-4.8,6.12V146a6.77,6.77,0,0,1,5.8,6.68c0,4.16-3.24,7.8-9.48,7.8a13.21,13.21,0,0,1-6.76-1.76Z" transform="translate(71.23 53.28)"/><path class="cls-3" d="M53.56,160v-7.08H41.48V150.6L53.08,134h3.8v16.16h3.64v2.76H56.88V160Zm0-9.84v-8.68q0-2,.12-4.08h-.12c-.8,1.52-1.44,2.64-2.16,3.84L45,150.08v.08Z" transform="translate(71.23 53.28)"/><path class="cls-3" d="M74.28,141.32c0,5.48-2.88,8.2-6.24,8.2s-6-2.6-6.08-7.84,2.84-8.12,6.28-8.12C71.88,133.56,74.28,136.36,74.28,141.32Zm-9.52.24c-.08,3.32,1.16,5.84,3.36,5.84s3.36-2.48,3.36-5.92c0-3.16-.92-5.8-3.36-5.8C65.92,135.68,64.76,138.28,64.76,141.56Zm3,18.88,15.28-26.87h2.24L70,160.44Zm23.4-8.36c0,5.48-2.88,8.2-6.2,8.2s-6-2.6-6.08-7.8,2.84-8.16,6.28-8.16C88.83,144.32,91.19,147.12,91.19,152.08Zm-9.52.24c0,3.32,1.24,5.84,3.4,5.84,2.32,0,3.36-2.48,3.36-5.92,0-3.16-.92-5.8-3.36-5.8C82.88,146.44,81.68,149,81.68,152.32Z" transform="translate(71.23 53.28)"/><path class="cls-6" d="M271.64,229.48a12.76,12.76,0,0,0-2.64.16,10.57,10.57,0,0,0-9,9.24h.12a7.74,7.74,0,0,1,6.28-3c4.6,0,7.84,3.32,7.84,8.4,0,4.76-3.24,9.16-8.64,9.16-5.56,0-9.2-4.32-9.2-11.08a16.34,16.34,0,0,1,4.4-11.72,14.15,14.15,0,0,1,8.32-3.84,16.88,16.88,0,0,1,2.56-.2Zm-1,15c0-3.72-2.12-6-5.36-6a5.79,5.79,0,0,0-5,3.2,3,3,0,0,0-.4,1.56c.08,4.28,2,7.44,5.72,7.44C268.6,250.72,270.64,248.2,270.64,244.48Z" transform="translate(71.23 53.28)"/><path class="cls-6" d="M291.52,229.48a12.76,12.76,0,0,0-2.64.16,10.57,10.57,0,0,0-9,9.24H280a7.74,7.74,0,0,1,6.28-3c4.6,0,7.84,3.32,7.84,8.4,0,4.76-3.24,9.16-8.64,9.16-5.56,0-9.2-4.32-9.2-11.08a16.34,16.34,0,0,1,4.4-11.72A14.15,14.15,0,0,1,289,226.8a16.88,16.88,0,0,1,2.56-.2Zm-1,15c0-3.72-2.12-6-5.36-6a5.79,5.79,0,0,0-5,3.2,3,3,0,0,0-.4,1.56c.08,4.28,2,7.44,5.72,7.44C288.48,250.72,290.52,248.2,290.52,244.48Z" transform="translate(71.23 53.28)"/><path class="cls-6" d="M308.28,234.32c0,5.48-2.88,8.2-6.24,8.2s-6-2.6-6.08-7.84,2.84-8.12,6.28-8.12C305.88,226.56,308.28,229.36,308.28,234.32Zm-9.52.24c-.08,3.32,1.16,5.84,3.36,5.84s3.36-2.48,3.36-5.92c0-3.16-.92-5.8-3.36-5.8C299.92,228.68,298.76,231.28,298.76,234.56Zm3,18.88,15.28-26.87h2.24L304,253.44Zm23.4-8.36c0,5.48-2.88,8.2-6.2,8.2s-6-2.6-6.08-7.8,2.84-8.16,6.28-8.16C322.83,237.32,325.19,240.12,325.19,245.08Zm-9.52.24c0,3.32,1.24,5.84,3.4,5.84,2.32,0,3.36-2.48,3.36-5.92,0-3.16-.92-5.8-3.36-5.8C316.88,239.44,315.68,242,315.68,245.32Z" transform="translate(71.23 53.28)"/><g class="cls-25"><g class="cls-8"><rect class="cls-6" x="130.23" y="460.28" width="43" height="43"/></g></g><g class="cls-26"><g class="cls-8"><rect class="cls-27" x="130.23" y="513.28" width="43" height="43"/></g></g><path class="cls-28" d="M117.71,435V420.6h9.58v1.16h-8.22V427h7.42v1.16h-7.42v5.72h8.42V435ZM121,419.48l2.22-2.78h1.54l-2.74,2.78Zm9.9,15.52h-1.2V424.64h1.2v1.44a7.62,7.62,0,0,1,1.49-1.24,3.43,3.43,0,0,1,1.85-.48,4.72,4.72,0,0,1,1.78.33,3,3,0,0,1,1.38,1.15,2.59,2.59,0,0,1,.45,1.15,10.46,10.46,0,0,1,.07,1.23V435h-1.2v-6.76a3.09,3.09,0,0,0-.62-2.1,2.63,2.63,0,0,0-2.06-.7,2.93,2.93,0,0,0-1,.17,3.21,3.21,0,0,0-.83.45,3,3,0,0,0-.63.64,3,3,0,0,0-.4.76,3.81,3.81,0,0,0-.22,1q0,.46,0,1Zm10.66-4.9a5.61,5.61,0,0,0,.22,1.59,3.83,3.83,0,0,0,.65,1.3,3.14,3.14,0,0,0,1.09.88,3.35,3.35,0,0,0,1.52.33,3.31,3.31,0,0,0,2-.62,3,3,0,0,0,1.12-1.76h1.34a6.47,6.47,0,0,1-.58,1.37,4.22,4.22,0,0,1-.9,1.1,3.89,3.89,0,0,1-1.28.73,5.19,5.19,0,0,1-1.72.26,5,5,0,0,1-2.14-.42,4,4,0,0,1-1.48-1.15,4.85,4.85,0,0,1-.86-1.72,7.79,7.79,0,0,1-.28-2.13,6.79,6.79,0,0,1,.33-2.14,5.45,5.45,0,0,1,.94-1.75,4.37,4.37,0,0,1,1.49-1.18,4.5,4.5,0,0,1,2-.43,4.13,4.13,0,0,1,3.36,1.47,6.46,6.46,0,0,1,1.2,4.27Zm6.76-1a4.76,4.76,0,0,0-.21-1.43,3.35,3.35,0,0,0-.62-1.16,3,3,0,0,0-1-.78,3.32,3.32,0,0,0-1.42-.29,3.16,3.16,0,0,0-1.41.3,3.24,3.24,0,0,0-1,.8,4,4,0,0,0-.69,1.16,5.37,5.37,0,0,0-.34,1.4Zm4.88,5.9H152V424.64h1.2v1.94h0a3.47,3.47,0,0,1,1.29-1.73,3.93,3.93,0,0,1,2.09-.49v1.3A3.51,3.51,0,0,0,155,426a2.77,2.77,0,0,0-1.05.92,3.65,3.65,0,0,0-.54,1.37,8.83,8.83,0,0,0-.15,1.65Zm13.4-10.36h1.2V434a9.2,9.2,0,0,1-.21,2,4.29,4.29,0,0,1-.75,1.67,3.76,3.76,0,0,1-1.48,1.15,6.91,6.91,0,0,1-4.38.14,4.25,4.25,0,0,1-1.34-.73,3.15,3.15,0,0,1-.79-1,2.43,2.43,0,0,1-.29-1h1.28a2.37,2.37,0,0,0,.44.95,2.2,2.2,0,0,0,.71.58,3,3,0,0,0,.91.29,6.6,6.6,0,0,0,1,.08,4,4,0,0,0,2-.42,2.87,2.87,0,0,0,1.12-1.1,4.23,4.23,0,0,0,.49-1.54,11.85,11.85,0,0,0,.09-1.76,3.72,3.72,0,0,1-1.59,1.45,4.78,4.78,0,0,1-2.11.49,4.41,4.41,0,0,1-2-.45,4.21,4.21,0,0,1-1.44-1.2,5.15,5.15,0,0,1-.85-1.75,7.67,7.67,0,0,1-.28-2.08,8.47,8.47,0,0,1,.26-2.14,4.69,4.69,0,0,1,.83-1.73,4,4,0,0,1,1.45-1.15,4.94,4.94,0,0,1,2.14-.42,3.92,3.92,0,0,1,1,.14,4.85,4.85,0,0,1,1,.4,3.92,3.92,0,0,1,.9.66,3.53,3.53,0,0,1,.67.9h0Zm0,5.22a6.39,6.39,0,0,0-.23-1.75,4.27,4.27,0,0,0-.67-1.4,3.16,3.16,0,0,0-1.1-.93,3.23,3.23,0,0,0-1.5-.34,3.56,3.56,0,0,0-1.4.27,3.2,3.2,0,0,0-1.12.79,3.69,3.69,0,0,0-.75,1.27,5.1,5.1,0,0,0-.27,1.73,6.75,6.75,0,0,0,.16,1.83,4.36,4.36,0,0,0,.64,1.49,3.19,3.19,0,0,0,1.12,1,3.34,3.34,0,0,0,1.62.37,3.05,3.05,0,0,0,1.47-.35,3.39,3.39,0,0,0,1.1-.94,4.32,4.32,0,0,0,.69-1.38A5.71,5.71,0,0,0,166.65,429.86Zm4.34-7.48V420.6h1.32v1.78ZM171,435V424.64h1.2V435Zm5-4.9a5.61,5.61,0,0,0,.22,1.59,3.83,3.83,0,0,0,.65,1.3,3.14,3.14,0,0,0,1.09.88,3.35,3.35,0,0,0,1.52.33,3.31,3.31,0,0,0,2-.62,3,3,0,0,0,1.12-1.76H184a6.47,6.47,0,0,1-.58,1.37,4.22,4.22,0,0,1-.9,1.1,3.89,3.89,0,0,1-1.28.73,5.19,5.19,0,0,1-1.72.26,5,5,0,0,1-2.14-.42,4,4,0,0,1-1.48-1.15A4.85,4.85,0,0,1,175,432a7.79,7.79,0,0,1-.28-2.13,6.79,6.79,0,0,1,.33-2.14A5.45,5.45,0,0,1,176,426a4.37,4.37,0,0,1,1.49-1.18,4.5,4.5,0,0,1,2-.43,4.13,4.13,0,0,1,3.36,1.47,6.46,6.46,0,0,1,1.2,4.27Zm6.76-1a4.76,4.76,0,0,0-.21-1.43,3.35,3.35,0,0,0-.62-1.16,3,3,0,0,0-1-.78,3.32,3.32,0,0,0-1.42-.29,3.16,3.16,0,0,0-1.41.3,3.24,3.24,0,0,0-1,.8,4,4,0,0,0-.69,1.16,5.37,5.37,0,0,0-.34,1.4Zm9.36,5.9V420.6h1.2V435Zm8.38.28a5.4,5.4,0,0,1-1.87-.36,4.18,4.18,0,0,1-1.52-1,4.89,4.89,0,0,1-1-1.7,6.8,6.8,0,0,1-.38-2.38,7.31,7.31,0,0,1,.3-2.13,5,5,0,0,1,.9-1.73,4.28,4.28,0,0,1,1.5-1.17,4.82,4.82,0,0,1,2.1-.43,4.87,4.87,0,0,1,2.12.43,4.33,4.33,0,0,1,1.5,1.16,4.79,4.79,0,0,1,.89,1.73,7.66,7.66,0,0,1,.29,2.14,6.93,6.93,0,0,1-.34,2.24,5,5,0,0,1-1,1.72,4.27,4.27,0,0,1-1.52,1.11A4.86,4.86,0,0,1,200.55,435.28Zm3.52-5.46a7.09,7.09,0,0,0-.2-1.72,4.08,4.08,0,0,0-.62-1.39,3,3,0,0,0-1.08-.93,3.51,3.51,0,0,0-1.62-.34,3.28,3.28,0,0,0-1.61.37,3.15,3.15,0,0,0-1.09,1,4.31,4.31,0,0,0-.62,1.4,6.61,6.61,0,0,0-.2,1.63,6.46,6.46,0,0,0,.23,1.77,4.14,4.14,0,0,0,.67,1.39,3,3,0,0,0,1.1.9,3.44,3.44,0,0,0,1.52.32,3.28,3.28,0,0,0,1.61-.37,3.11,3.11,0,0,0,1.09-1,4.44,4.44,0,0,0,.62-1.4A6.51,6.51,0,0,0,204.07,429.82Zm10.82-1.92a3.49,3.49,0,0,0-1.1-1.81,3,3,0,0,0-2-.65,3.12,3.12,0,0,0-1.58.38,3.2,3.2,0,0,0-1.08,1,4.55,4.55,0,0,0-.62,1.42,6.45,6.45,0,0,0-.2,1.59,6.72,6.72,0,0,0,.19,1.6,4.27,4.27,0,0,0,.61,1.4,3.14,3.14,0,0,0,1.08,1,3.22,3.22,0,0,0,1.6.37,3.06,3.06,0,0,0,2.15-.74,3.44,3.44,0,0,0,1-2h1.28a6,6,0,0,1-.51,1.57,4.15,4.15,0,0,1-.9,1.22,3.87,3.87,0,0,1-1.31.79,5.61,5.61,0,0,1-3.88-.14,4,4,0,0,1-1.48-1.15,4.84,4.84,0,0,1-.86-1.73,7.9,7.9,0,0,1-.28-2.14,6.88,6.88,0,0,1,.31-2.07,5.4,5.4,0,0,1,.91-1.75,4.4,4.4,0,0,1,1.49-1.21,4.48,4.48,0,0,1,2.05-.45,4.62,4.62,0,0,1,2.91.86,4,4,0,0,1,1.39,2.68Zm8.54,1.06.81-.12a3,3,0,0,0,.77-.22.64.64,0,0,0,.37-.47,3,3,0,0,0,.07-.61,2,2,0,0,0-.59-1.51,2.75,2.75,0,0,0-2-.59,5.53,5.53,0,0,0-1.14.11,2.48,2.48,0,0,0-.91.38,2.1,2.1,0,0,0-.64.72,3,3,0,0,0-.33,1.13h-1.22a3.71,3.71,0,0,1,.42-1.57,3.19,3.19,0,0,1,.93-1.06,3.87,3.87,0,0,1,1.32-.6,6.46,6.46,0,0,1,1.59-.19,6.14,6.14,0,0,1,1.47.17,3.41,3.41,0,0,1,1.2.54,2.51,2.51,0,0,1,.8,1,3.58,3.58,0,0,1,.29,1.52v5.64q0,.7.25.89t1-.09V435l-.41.12a1.87,1.87,0,0,1-.53.08,2.39,2.39,0,0,1-.54-.06.93.93,0,0,1-.48-.19,1.17,1.17,0,0,1-.29-.36,1.49,1.49,0,0,1-.15-.46,3.33,3.33,0,0,1,0-.53,5.21,5.21,0,0,1-1.74,1.28,5.12,5.12,0,0,1-2.12.44,4.74,4.74,0,0,1-1.31-.18,3.17,3.17,0,0,1-1.11-.56,2.78,2.78,0,0,1-.76-.93,2.85,2.85,0,0,1-.28-1.31q0-2.64,3.62-3.12Zm2,.6a5.88,5.88,0,0,1-1.54.42q-.78.1-1.56.16a4.4,4.4,0,0,0-2.15.62,1.78,1.78,0,0,0-.77,1.58,1.71,1.71,0,0,0,.19.83,1.75,1.75,0,0,0,.5.58,2.11,2.11,0,0,0,.72.34,3.18,3.18,0,0,0,.83.11,5.45,5.45,0,0,0,1.4-.18,3.78,3.78,0,0,0,1.21-.55,2.81,2.81,0,0,0,.85-.94,2.72,2.72,0,0,0,.32-1.35ZM230,435V420.6h1.2V435Zm5-4.9a5.61,5.61,0,0,0,.22,1.59,3.83,3.83,0,0,0,.65,1.3,3.14,3.14,0,0,0,1.09.88,3.35,3.35,0,0,0,1.52.33,3.31,3.31,0,0,0,2-.62,3,3,0,0,0,1.12-1.76h1.34a6.47,6.47,0,0,1-.58,1.37,4.22,4.22,0,0,1-.9,1.1,3.89,3.89,0,0,1-1.28.73,5.19,5.19,0,0,1-1.72.26,5,5,0,0,1-2.14-.42,4,4,0,0,1-1.48-1.15A4.85,4.85,0,0,1,234,432a7.79,7.79,0,0,1-.28-2.13,6.79,6.79,0,0,1,.33-2.14A5.45,5.45,0,0,1,235,426a4.37,4.37,0,0,1,1.49-1.18,4.5,4.5,0,0,1,2-.43,4.13,4.13,0,0,1,3.36,1.47,6.46,6.46,0,0,1,1.2,4.27Zm6.76-1a4.76,4.76,0,0,0-.21-1.43,3.35,3.35,0,0,0-.62-1.16,3,3,0,0,0-1-.78,3.32,3.32,0,0,0-1.42-.29,3.16,3.16,0,0,0-1.41.3,3.24,3.24,0,0,0-1,.8,4,4,0,0,0-.69,1.16,5.37,5.37,0,0,0-.34,1.4Z" transform="translate(71.23 53.28)"/><path class="cls-27" d="M117.69,488V473.6h9.58v1.16h-8.22V480h7.42v1.16h-7.42v5.72h8.42V488ZM121,472.48l2.22-2.78h1.54l-2.74,2.78Zm9.9,15.52h-1.2V477.64h1.2v1.44a7.62,7.62,0,0,1,1.49-1.24,3.43,3.43,0,0,1,1.85-.48,4.72,4.72,0,0,1,1.78.33,3,3,0,0,1,1.38,1.15,2.59,2.59,0,0,1,.45,1.15,10.46,10.46,0,0,1,.07,1.23V488h-1.2v-6.76a3.09,3.09,0,0,0-.62-2.1,2.63,2.63,0,0,0-2.06-.7,2.93,2.93,0,0,0-1,.17,3.21,3.21,0,0,0-.83.45,3,3,0,0,0-.63.64,3,3,0,0,0-.4.76,3.81,3.81,0,0,0-.22,1q0,.46,0,1Zm10.66-4.9a5.61,5.61,0,0,0,.22,1.59,3.83,3.83,0,0,0,.65,1.3,3.14,3.14,0,0,0,1.09.88,3.35,3.35,0,0,0,1.52.33,3.31,3.31,0,0,0,2-.62,3,3,0,0,0,1.12-1.76h1.34a6.47,6.47,0,0,1-.58,1.37,4.22,4.22,0,0,1-.9,1.1,3.89,3.89,0,0,1-1.28.73,5.19,5.19,0,0,1-1.72.26,5,5,0,0,1-2.14-.42,4,4,0,0,1-1.48-1.15,4.85,4.85,0,0,1-.86-1.72,7.79,7.79,0,0,1-.28-2.13,6.79,6.79,0,0,1,.33-2.14,5.45,5.45,0,0,1,.94-1.75,4.37,4.37,0,0,1,1.49-1.18,4.5,4.5,0,0,1,2-.43,4.13,4.13,0,0,1,3.36,1.47,6.46,6.46,0,0,1,1.2,4.27Zm6.76-1a4.76,4.76,0,0,0-.21-1.43,3.35,3.35,0,0,0-.62-1.16,3,3,0,0,0-1-.78,3.32,3.32,0,0,0-1.42-.29,3.16,3.16,0,0,0-1.41.3,3.24,3.24,0,0,0-1,.8,4,4,0,0,0-.69,1.16,5.37,5.37,0,0,0-.34,1.4Zm4.88,5.9H152V477.64h1.2v1.94h0a3.47,3.47,0,0,1,1.29-1.73,3.93,3.93,0,0,1,2.09-.49v1.3A3.51,3.51,0,0,0,155,479a2.77,2.77,0,0,0-1.05.92,3.65,3.65,0,0,0-.54,1.37,8.83,8.83,0,0,0-.15,1.65Zm13.4-10.36h1.2V487a9.2,9.2,0,0,1-.21,2,4.29,4.29,0,0,1-.75,1.67,3.76,3.76,0,0,1-1.48,1.15,6.91,6.91,0,0,1-4.38.14,4.25,4.25,0,0,1-1.34-.73,3.15,3.15,0,0,1-.79-1,2.43,2.43,0,0,1-.29-1h1.28a2.37,2.37,0,0,0,.44.95,2.2,2.2,0,0,0,.71.58,3,3,0,0,0,.91.29,6.6,6.6,0,0,0,1,.08,4,4,0,0,0,2-.42,2.87,2.87,0,0,0,1.12-1.1,4.23,4.23,0,0,0,.49-1.54,11.85,11.85,0,0,0,.09-1.76,3.72,3.72,0,0,1-1.59,1.45,4.78,4.78,0,0,1-2.11.49,4.41,4.41,0,0,1-2-.45,4.21,4.21,0,0,1-1.44-1.2,5.15,5.15,0,0,1-.85-1.75,7.67,7.67,0,0,1-.28-2.08,8.47,8.47,0,0,1,.26-2.14,4.69,4.69,0,0,1,.83-1.73,4,4,0,0,1,1.45-1.15,4.94,4.94,0,0,1,2.14-.42,3.92,3.92,0,0,1,1,.14,4.85,4.85,0,0,1,1,.4,3.92,3.92,0,0,1,.9.66,3.53,3.53,0,0,1,.67.9h0Zm0,5.22a6.39,6.39,0,0,0-.23-1.75,4.27,4.27,0,0,0-.67-1.4,3.16,3.16,0,0,0-1.1-.93,3.23,3.23,0,0,0-1.5-.34,3.56,3.56,0,0,0-1.4.27,3.2,3.2,0,0,0-1.12.79,3.69,3.69,0,0,0-.75,1.27,5.1,5.1,0,0,0-.27,1.73,6.75,6.75,0,0,0,.16,1.83,4.36,4.36,0,0,0,.64,1.49,3.19,3.19,0,0,0,1.12,1,3.34,3.34,0,0,0,1.62.37,3.05,3.05,0,0,0,1.47-.35,3.39,3.39,0,0,0,1.1-.94,4.32,4.32,0,0,0,.69-1.38A5.71,5.71,0,0,0,166.63,482.86Zm4.34-7.48V473.6h1.32v1.78ZM171,488V477.64h1.2V488Zm5-4.9a5.61,5.61,0,0,0,.22,1.59,3.83,3.83,0,0,0,.65,1.3,3.14,3.14,0,0,0,1.09.88,3.35,3.35,0,0,0,1.52.33,3.31,3.31,0,0,0,2-.62,3,3,0,0,0,1.12-1.76H184a6.47,6.47,0,0,1-.58,1.37,4.22,4.22,0,0,1-.9,1.1,3.89,3.89,0,0,1-1.28.73,5.19,5.19,0,0,1-1.72.26,5,5,0,0,1-2.14-.42,4,4,0,0,1-1.48-1.15A4.85,4.85,0,0,1,175,485a7.79,7.79,0,0,1-.28-2.13,6.79,6.79,0,0,1,.33-2.14A5.45,5.45,0,0,1,176,479a4.37,4.37,0,0,1,1.49-1.18,4.5,4.5,0,0,1,2-.43,4.13,4.13,0,0,1,3.36,1.47,6.46,6.46,0,0,1,1.2,4.27Zm6.76-1a4.76,4.76,0,0,0-.21-1.43,3.35,3.35,0,0,0-.62-1.16,3,3,0,0,0-1-.78,3.32,3.32,0,0,0-1.42-.29,3.16,3.16,0,0,0-1.41.3,3.24,3.24,0,0,0-1,.8,4,4,0,0,0-.69,1.16,5.37,5.37,0,0,0-.34,1.4Zm8.14-3.46v-1h1.54V476a3.39,3.39,0,0,1,.5-2,1.92,1.92,0,0,1,1.7-.72l.52,0,.48.06v1.1a3,3,0,0,0-.72-.1,1.31,1.31,0,0,0-.72.17,1,1,0,0,0-.38.45,2,2,0,0,0-.15.63q0,.35,0,.71v1.28h2v1h-2V488h-1.2v-9.36Zm10.72,9.64a5.4,5.4,0,0,1-1.87-.36,4.18,4.18,0,0,1-1.52-1,4.89,4.89,0,0,1-1-1.7,6.8,6.8,0,0,1-.38-2.38,7.31,7.31,0,0,1,.3-2.13A5,5,0,0,1,198,479a4.28,4.28,0,0,1,1.5-1.17,4.82,4.82,0,0,1,2.1-.43,4.87,4.87,0,0,1,2.12.43,4.33,4.33,0,0,1,1.5,1.16,4.79,4.79,0,0,1,.89,1.73,7.66,7.66,0,0,1,.29,2.14,6.93,6.93,0,0,1-.34,2.24,5,5,0,0,1-1,1.72,4.27,4.27,0,0,1-1.52,1.11A4.86,4.86,0,0,1,201.65,488.28Zm3.52-5.46a7.09,7.09,0,0,0-.2-1.72,4.08,4.08,0,0,0-.62-1.39,3,3,0,0,0-1.08-.93,3.51,3.51,0,0,0-1.62-.34,3.28,3.28,0,0,0-1.61.37,3.15,3.15,0,0,0-1.09,1,4.31,4.31,0,0,0-.62,1.4,6.61,6.61,0,0,0-.2,1.63,6.46,6.46,0,0,0,.23,1.77A4.14,4.14,0,0,0,199,486a3,3,0,0,0,1.1.9,3.44,3.44,0,0,0,1.52.32,3.28,3.28,0,0,0,1.61-.37,3.11,3.11,0,0,0,1.09-1,4.44,4.44,0,0,0,.62-1.4A6.51,6.51,0,0,0,205.17,482.82Zm10.5-5.18h1.2V488h-1.2v-1.44q-.24.28-.54.58a4.09,4.09,0,0,1-.69.55,4,4,0,0,1-.91.42,3.87,3.87,0,0,1-1.2.17,4.57,4.57,0,0,1-1.74-.29,2.84,2.84,0,0,1-1.13-.81,3.21,3.21,0,0,1-.62-1.21,5.67,5.67,0,0,1-.19-1.51v-6.82h1.2v6.8a3,3,0,0,0,.62,2.05,2.58,2.58,0,0,0,2,.71,3,3,0,0,0,1.33-.29,2.78,2.78,0,0,0,1-.81,3.87,3.87,0,0,0,.62-1.24,5.39,5.39,0,0,0,.22-1.58ZM221,488h-1.2V477.64H221v1.94h0a3.47,3.47,0,0,1,1.29-1.73,3.93,3.93,0,0,1,2.09-.49v1.3a3.51,3.51,0,0,0-1.68.32,2.77,2.77,0,0,0-1.05.92,3.65,3.65,0,0,0-.54,1.37,8.83,8.83,0,0,0-.15,1.65Zm7,0h-1.2V477.64H228v1.44a7.62,7.62,0,0,1,1.49-1.24,3.43,3.43,0,0,1,1.85-.48,4.72,4.72,0,0,1,1.78.33,3,3,0,0,1,1.38,1.15,2.59,2.59,0,0,1,.45,1.15,10.46,10.46,0,0,1,.07,1.23V488h-1.2v-6.76a3.09,3.09,0,0,0-.62-2.1,2.63,2.63,0,0,0-2.06-.7,2.93,2.93,0,0,0-1,.17,3.21,3.21,0,0,0-.83.45,3,3,0,0,0-.63.64,3,3,0,0,0-.4.76,3.81,3.81,0,0,0-.22,1q0,.46,0,1Zm10-12.62V473.6h1.32v1.78Zm.06,12.62V477.64h1.2V488Zm5-4.9a5.61,5.61,0,0,0,.22,1.59A3.83,3.83,0,0,0,244,486a3.14,3.14,0,0,0,1.09.88,3.35,3.35,0,0,0,1.52.33,3.31,3.31,0,0,0,2-.62,3,3,0,0,0,1.12-1.76H251a6.47,6.47,0,0,1-.58,1.37,4.22,4.22,0,0,1-.9,1.1,3.89,3.89,0,0,1-1.28.73,5.19,5.19,0,0,1-1.72.26,5,5,0,0,1-2.14-.42,4,4,0,0,1-1.48-1.15,4.85,4.85,0,0,1-.86-1.72,7.79,7.79,0,0,1-.28-2.13,6.79,6.79,0,0,1,.33-2.14,5.45,5.45,0,0,1,.94-1.75,4.37,4.37,0,0,1,1.49-1.18,4.5,4.5,0,0,1,2-.43,4.13,4.13,0,0,1,3.36,1.47,6.46,6.46,0,0,1,1.2,4.27Zm6.76-1a4.76,4.76,0,0,0-.21-1.43,3.35,3.35,0,0,0-.62-1.16,3,3,0,0,0-1-.78,3.32,3.32,0,0,0-1.42-.29,3.16,3.16,0,0,0-1.41.3,3.24,3.24,0,0,0-1,.8,4,4,0,0,0-.69,1.16,5.37,5.37,0,0,0-.34,1.4Zm10.52,10h-1.2V477.64h1.2v1.82h0a3.52,3.52,0,0,1,.67-.9,3.9,3.9,0,0,1,.9-.66,4.84,4.84,0,0,1,1-.4,3.92,3.92,0,0,1,1-.14,4.94,4.94,0,0,1,2.14.42,4,4,0,0,1,1.45,1.15,4.7,4.7,0,0,1,.83,1.73,8.49,8.49,0,0,1,.26,2.14,7.68,7.68,0,0,1-.28,2.08,5.16,5.16,0,0,1-.85,1.75,4.21,4.21,0,0,1-1.44,1.2,4.41,4.41,0,0,1-2.05.45,4.78,4.78,0,0,1-2.11-.49,3.71,3.71,0,0,1-1.59-1.45Zm0-9.22a5.71,5.71,0,0,0,.24,1.67,4.32,4.32,0,0,0,.69,1.38,3.39,3.39,0,0,0,1.1.94,3,3,0,0,0,1.47.35,3.35,3.35,0,0,0,1.61-.37,3.17,3.17,0,0,0,1.13-1,4.37,4.37,0,0,0,.64-1.49,6.78,6.78,0,0,0,.16-1.83,5.1,5.1,0,0,0-.27-1.73,3.69,3.69,0,0,0-.75-1.27,3.21,3.21,0,0,0-1.12-.79,3.57,3.57,0,0,0-1.4-.27,3.23,3.23,0,0,0-1.5.34,3.16,3.16,0,0,0-1.1.93,4.26,4.26,0,0,0-.67,1.4A6.38,6.38,0,0,0,260.37,482.86ZM276,482l.81-.12a3,3,0,0,0,.77-.22.64.64,0,0,0,.37-.47,3,3,0,0,0,.07-.61,2,2,0,0,0-.59-1.51,2.75,2.75,0,0,0-2-.59,5.53,5.53,0,0,0-1.14.11,2.48,2.48,0,0,0-.91.38,2.1,2.1,0,0,0-.64.72,3.05,3.05,0,0,0-.33,1.13h-1.22a3.71,3.71,0,0,1,.42-1.57,3.19,3.19,0,0,1,.93-1.06,3.87,3.87,0,0,1,1.32-.6,6.46,6.46,0,0,1,1.59-.19,6.14,6.14,0,0,1,1.47.17,3.41,3.41,0,0,1,1.2.54,2.51,2.51,0,0,1,.8,1,3.58,3.58,0,0,1,.29,1.52v5.64q0,.7.25.89t1-.09V488l-.41.12a1.87,1.87,0,0,1-.53.08,2.39,2.39,0,0,1-.54-.06.93.93,0,0,1-.48-.19,1.17,1.17,0,0,1-.29-.36,1.48,1.48,0,0,1-.15-.46,3.33,3.33,0,0,1,0-.53,5.21,5.21,0,0,1-1.74,1.28,5.12,5.12,0,0,1-2.12.44,4.74,4.74,0,0,1-1.31-.18,3.17,3.17,0,0,1-1.11-.56,2.78,2.78,0,0,1-.76-.93,2.85,2.85,0,0,1-.28-1.31q0-2.64,3.62-3.12Zm2,.6a5.88,5.88,0,0,1-1.54.42q-.78.1-1.56.16a4.4,4.4,0,0,0-2.15.62,1.78,1.78,0,0,0-.77,1.58,1.71,1.71,0,0,0,.19.83,1.75,1.75,0,0,0,.5.58,2.11,2.11,0,0,0,.72.34,3.18,3.18,0,0,0,.83.11,5.45,5.45,0,0,0,1.4-.18,3.78,3.78,0,0,0,1.21-.55,2.81,2.81,0,0,0,.85-.94,2.72,2.72,0,0,0,.32-1.35Zm5.6,5.44h-1.2V477.64h1.2v1.94h0a3.47,3.47,0,0,1,1.29-1.73,3.93,3.93,0,0,1,2.09-.49v1.3a3.51,3.51,0,0,0-1.68.32,2.77,2.77,0,0,0-1,.92,3.65,3.65,0,0,0-.54,1.37,8.83,8.83,0,0,0-.15,1.65Zm11.14,0V473.6h9.58v1.16h-8.22V480h7.42v1.16h-7.42v5.72h8.42V488ZM307,488V473.6h4.92q.6,0,1.18,0a8.1,8.1,0,0,1,1.14.14,5.73,5.73,0,0,1,1.09.33,5.14,5.14,0,0,1,1,.58,4.38,4.38,0,0,1,1.18,1.27,7.39,7.39,0,0,1,.73,1.58,9.28,9.28,0,0,1,.38,1.68,12.34,12.34,0,0,1,.11,1.57,12.08,12.08,0,0,1-.09,1.46,9.64,9.64,0,0,1-.29,1.45,7.47,7.47,0,0,1-.53,1.36,5.23,5.23,0,0,1-.83,1.19,4.43,4.43,0,0,1-1.09.9,5.64,5.64,0,0,1-1.24.53,7.42,7.42,0,0,1-1.35.26,14.2,14.2,0,0,1-1.42.07Zm1.36-1.16h3.26a12.86,12.86,0,0,0,1.73-.11,5,5,0,0,0,1.65-.55,3.26,3.26,0,0,0,1.18-1,5.39,5.39,0,0,0,.73-1.35,7.24,7.24,0,0,0,.38-1.53,11.34,11.34,0,0,0,.11-1.54,13,13,0,0,0-.1-1.59,6.53,6.53,0,0,0-.38-1.54,5.13,5.13,0,0,0-.76-1.34,3.81,3.81,0,0,0-1.24-1,4.25,4.25,0,0,0-1.52-.44,15.78,15.78,0,0,0-1.78-.1h-3.26ZM321.29,488V473.6h9.28v1.16h-7.92V480h7.2v1.16h-7.2V488Z" transform="translate(71.23 53.28)"/><path class="cls-28" d="M779.92,434.82a9.25,9.25,0,0,0,4.68,1.32c2.67,0,4.23-1.41,4.23-3.45,0-1.89-1.08-3-3.81-4-3.3-1.17-5.34-2.88-5.34-5.73,0-3.15,2.61-5.49,6.54-5.49a9.19,9.19,0,0,1,4.47,1l-.72,2.13a8.06,8.06,0,0,0-3.84-1c-2.76,0-3.81,1.65-3.81,3,0,1.89,1.23,2.82,4,3.9,3.42,1.32,5.16,3,5.16,5.94s-2.31,5.82-7.08,5.82a10.44,10.44,0,0,1-5.16-1.29Z" transform="translate(71.23 53.28)"/><path class="cls-28" d="M803,438l-.21-1.83h-.09a5.41,5.41,0,0,1-4.44,2.16,4.14,4.14,0,0,1-4.44-4.17c0-3.51,3.12-5.43,8.73-5.4v-.3c0-1.2-.33-3.36-3.3-3.36a7.23,7.23,0,0,0-3.78,1.08l-.6-1.74a9,9,0,0,1,4.77-1.29c4.44,0,5.52,3,5.52,5.94v5.43a20.47,20.47,0,0,0,.24,3.48Zm-.39-7.41c-2.88-.06-6.15.45-6.15,3.27a2.34,2.34,0,0,0,2.49,2.52,3.61,3.61,0,0,0,3.51-2.43,2.74,2.74,0,0,0,.15-.84Z" transform="translate(71.23 53.28)"/><path class="cls-28" d="M809.44,416.7h2.64V438h-2.64Z" transform="translate(71.23 53.28)"/><path class="cls-28" d="M829.66,430.62c0,5.37-3.72,7.71-7.23,7.71-3.93,0-7-2.88-7-7.47,0-4.86,3.18-7.71,7.2-7.71S829.66,426.18,829.66,430.62Zm-11.52.15c0,3.18,1.83,5.58,4.41,5.58S827,434,827,430.71c0-2.46-1.23-5.58-4.35-5.58S818.14,428,818.14,430.77Z" transform="translate(71.23 53.28)"/><path class="cls-28" d="M833,427.41c0-1.5,0-2.73-.12-3.93h2.34l.15,2.4h.06a5.34,5.34,0,0,1,4.8-2.73c2,0,5.13,1.2,5.13,6.18V438h-2.64v-8.37c0-2.34-.87-4.29-3.36-4.29a3.75,3.75,0,0,0-3.54,2.7,3.82,3.82,0,0,0-.18,1.23V438H833Z" transform="translate(71.23 53.28)"/><path class="cls-27" d="M707,435a8.82,8.82,0,0,0,4.32,1.23c3.39,0,4.44-2.16,4.41-3.78,0-2.73-2.49-3.9-5-3.9h-1.47v-2h1.47c1.92,0,4.35-1,4.35-3.3,0-1.56-1-2.94-3.42-2.94a7.16,7.16,0,0,0-3.9,1.29l-.69-1.92a9.27,9.27,0,0,1,5.1-1.5c3.84,0,5.58,2.28,5.58,4.65,0,2-1.2,3.72-3.6,4.59v.06a5.08,5.08,0,0,1,4.35,5c0,3.12-2.43,5.85-7.11,5.85a9.91,9.91,0,0,1-5.07-1.32Z" transform="translate(71.23 53.28)"/><path class="cls-27" d="M734.67,428c0,6.63-2.46,10.29-6.78,10.29-3.81,0-6.39-3.57-6.45-10s2.82-10.14,6.78-10.14C732.33,418.17,734.67,421.83,734.67,428Zm-10.59.3c0,5.07,1.56,7.95,4,7.95,2.7,0,4-3.15,4-8.13,0-4.8-1.23-7.95-4-7.95C725.76,420.21,724.08,423,724.08,428.34Z" transform="translate(71.23 53.28)"/><path class="cls-27" d="M745.89,424c0,4.11-2.16,6.15-4.68,6.15s-4.53-2-4.56-5.88,2.13-6.09,4.71-6.09C744.09,418.17,745.89,420.27,745.89,424Zm-7.14.18c-.06,2.49.87,4.38,2.52,4.38s2.52-1.86,2.52-4.44c0-2.37-.69-4.35-2.52-4.35C739.62,419.76,738.75,421.71,738.75,424.17ZM741,438.33l11.46-20.16h1.68l-11.46,20.16Zm17.55-6.27c0,4.11-2.16,6.15-4.65,6.15s-4.53-2-4.56-5.85,2.13-6.12,4.71-6.12C756.81,426.24,758.58,428.34,758.58,432.06Zm-7.14.18c0,2.49.93,4.38,2.55,4.38s2.52-1.86,2.52-4.44c0-2.37-.69-4.35-2.52-4.35C752.34,427.83,751.44,429.78,751.44,432.24Z" transform="translate(71.23 53.28)"/><path class="cls-28" d="M794.41,473.34a13,13,0,0,1-5.34,1c-5.7,0-10-3.6-10-10.23,0-6.33,4.29-10.62,10.56-10.62a10.85,10.85,0,0,1,4.8.9l-.63,2.13a9.51,9.51,0,0,0-4.08-.84c-4.74,0-7.89,3-7.89,8.34,0,5,2.85,8.13,7.77,8.13a10.45,10.45,0,0,0,4.26-.84Z" transform="translate(71.23 53.28)"/><path class="cls-28" d="M809.74,470c0,1.5,0,2.82.12,4h-2.34l-.15-2.37h-.06a5.46,5.46,0,0,1-4.8,2.7c-2.28,0-5-1.26-5-6.36v-8.49h2.64v8c0,2.76.84,4.62,3.24,4.62a3.82,3.82,0,0,0,3.48-2.4,3.87,3.87,0,0,0,.24-1.35v-8.91h2.64Z" transform="translate(71.23 53.28)"/><path class="cls-28" d="M817.06,455.4a1.64,1.64,0,0,1-3.27,0,1.61,1.61,0,0,1,1.65-1.65A1.57,1.57,0,0,1,817.06,455.4ZM814.12,474V459.48h2.64V474Z" transform="translate(71.23 53.28)"/><path class="cls-28" d="M820.78,471.3a6.91,6.91,0,0,0,3.48,1c1.92,0,2.82-1,2.82-2.16s-.75-2-2.7-2.67c-2.61-.93-3.84-2.37-3.84-4.11,0-2.34,1.89-4.26,5-4.26a7.24,7.24,0,0,1,3.57.9l-.66,1.92a5.65,5.65,0,0,0-3-.84c-1.56,0-2.43.9-2.43,2s.87,1.74,2.76,2.46c2.52,1,3.81,2.22,3.81,4.38,0,2.55-2,4.35-5.43,4.35a8.27,8.27,0,0,1-4.08-1Z" transform="translate(71.23 53.28)"/><path class="cls-28" d="M836,455.4a1.63,1.63,0,0,1-3.27,0,1.61,1.61,0,0,1,1.65-1.65A1.57,1.57,0,0,1,836,455.4ZM833,474V459.48h2.64V474Z" transform="translate(71.23 53.28)"/><path class="cls-28" d="M840,463.41c0-1.5,0-2.73-.12-3.93h2.34l.15,2.4h.06a5.34,5.34,0,0,1,4.8-2.73c2,0,5.13,1.2,5.13,6.18V474h-2.64v-8.37c0-2.34-.87-4.29-3.36-4.29a3.87,3.87,0,0,0-3.72,3.93V474H840Z" transform="translate(71.23 53.28)"/><path class="cls-28" d="M858.16,467.22c.06,3.57,2.34,5,5,5a9.55,9.55,0,0,0,4-.75l.45,1.89a11.76,11.76,0,0,1-4.83.9c-4.47,0-7.14-2.94-7.14-7.32s2.58-7.83,6.81-7.83c4.74,0,6,4.17,6,6.84a9.74,9.74,0,0,1-.09,1.23Zm7.74-1.89c0-1.68-.69-4.29-3.66-4.29-2.67,0-3.84,2.46-4,4.29Z" transform="translate(71.23 53.28)"/><path class="cls-27" d="M706.32,474v-1.62l2.07-2c5-4.74,7.23-7.26,7.26-10.2,0-2-1-3.81-3.87-3.81a6.64,6.64,0,0,0-4.14,1.65l-.84-1.86a8.56,8.56,0,0,1,5.52-2c4.2,0,6,2.88,6,5.67,0,3.6-2.61,6.51-6.72,10.47L710,471.75v.06h8.76V474Z" transform="translate(71.23 53.28)"/><path class="cls-27" d="M734.67,464c0,6.63-2.46,10.29-6.78,10.29-3.81,0-6.39-3.57-6.45-10s2.82-10.14,6.78-10.14C732.33,454.17,734.67,457.83,734.67,464Zm-10.59.3c0,5.07,1.56,7.95,4,7.95,2.7,0,4-3.15,4-8.13,0-4.8-1.23-7.95-4-7.95C725.76,456.21,724.08,459,724.08,464.34Z" transform="translate(71.23 53.28)"/><path class="cls-27" d="M745.89,460c0,4.11-2.16,6.15-4.68,6.15s-4.53-2-4.56-5.88,2.13-6.09,4.71-6.09C744.09,454.17,745.89,456.27,745.89,460Zm-7.14.18c-.06,2.49.87,4.38,2.52,4.38s2.52-1.86,2.52-4.44c0-2.37-.69-4.35-2.52-4.35C739.62,455.76,738.75,457.71,738.75,460.17ZM741,474.33l11.46-20.16h1.68l-11.46,20.16Zm17.55-6.27c0,4.11-2.16,6.15-4.65,6.15s-4.53-2-4.56-5.85,2.13-6.12,4.71-6.12C756.81,462.24,758.58,464.34,758.58,468.06Zm-7.14.18c0,2.49.93,4.38,2.55,4.38s2.52-1.86,2.52-4.44c0-2.37-.69-4.35-2.52-4.35C752.34,463.83,751.44,465.78,751.44,468.24Z" transform="translate(71.23 53.28)"/><path class="cls-28" d="M783.58,510l-5.13-20.22h2.76l2.4,10.23c.6,2.52,1.14,5,1.5,7h.06c.33-2,1-4.41,1.65-7l2.7-10.2h2.73L794.71,500c.57,2.4,1.11,4.8,1.41,6.93h.06c.42-2.22,1-4.47,1.62-7l2.67-10.2h2.67L797.41,510h-2.73l-2.55-10.53a61.3,61.3,0,0,1-1.32-6.6h-.06a63.31,63.31,0,0,1-1.56,6.6L786.31,510Z" transform="translate(71.23 53.28)"/><path class="cls-28" d="M819.79,509.34a13,13,0,0,1-5.34,1c-5.7,0-10-3.6-10-10.23,0-6.33,4.29-10.62,10.56-10.62a10.85,10.85,0,0,1,4.8.9l-.63,2.13a9.52,9.52,0,0,0-4.08-.84c-4.74,0-7.89,3-7.89,8.34,0,5,2.85,8.13,7.77,8.13a10.45,10.45,0,0,0,4.26-.84Z" transform="translate(71.23 53.28)"/><path class="cls-27" d="M734.64,492.72H727.2l-.75,5a10.5,10.5,0,0,1,1.59-.12,8.25,8.25,0,0,1,4.2,1,5.56,5.56,0,0,1,2.79,5c0,3.81-3,6.66-7.26,6.66a9.54,9.54,0,0,1-4.86-1.2l.66-2a8.73,8.73,0,0,0,4.17,1.08c2.49,0,4.62-1.62,4.62-4.23s-1.71-4.32-5.61-4.32a20.19,20.19,0,0,0-2.7.21l1.26-9.36h9.33Z" transform="translate(71.23 53.28)"/><path class="cls-27" d="M747.18,496c0,4.11-2.16,6.15-4.68,6.15s-4.53-2-4.56-5.88,2.13-6.09,4.71-6.09S747.18,492.27,747.18,496Zm-7.14.18c-.06,2.49.87,4.38,2.52,4.38s2.52-1.86,2.52-4.44c0-2.37-.69-4.35-2.52-4.35C740.91,491.76,740,493.71,740,496.17Zm2.28,14.16,11.46-20.16h1.68L744,510.33Zm17.55-6.27c0,4.11-2.16,6.15-4.65,6.15s-4.53-2-4.56-5.85,2.13-6.12,4.71-6.12S759.87,500.34,759.87,504.06Zm-7.14.18c0,2.49.93,4.38,2.55,4.38s2.52-1.86,2.52-4.44c0-2.37-.69-4.35-2.52-4.35C753.63,499.83,752.73,501.78,752.73,504.24Z" transform="translate(71.23 53.28)"/><path class="cls-28" d="M794.41,545.34a13,13,0,0,1-5.34,1c-5.7,0-10-3.6-10-10.23,0-6.33,4.29-10.62,10.56-10.62a10.85,10.85,0,0,1,4.8.9l-.63,2.13a9.51,9.51,0,0,0-4.08-.84c-4.74,0-7.89,3-7.89,8.34,0,5,2.85,8.13,7.77,8.13a10.45,10.45,0,0,0,4.26-.84Z" transform="translate(71.23 53.28)"/><path class="cls-28" d="M797.59,524.7h2.64v9.06h.06a4.9,4.9,0,0,1,1.89-1.86,5.43,5.43,0,0,1,2.7-.75c2,0,5.07,1.2,5.07,6.21V546h-2.64v-8.34c0-2.34-.87-4.32-3.36-4.32a3.79,3.79,0,0,0-3.54,2.64,3.21,3.21,0,0,0-.18,1.26V546h-2.64Z" transform="translate(71.23 53.28)"/><path class="cls-28" d="M822.28,546l-.21-1.83H822a5.41,5.41,0,0,1-4.44,2.16,4.14,4.14,0,0,1-4.44-4.17c0-3.51,3.12-5.43,8.73-5.4v-.3c0-1.2-.33-3.36-3.3-3.36a7.24,7.24,0,0,0-3.78,1.08l-.6-1.74a9,9,0,0,1,4.77-1.29c4.44,0,5.52,3,5.52,5.94v5.43a20.48,20.48,0,0,0,.24,3.48Zm-.39-7.41c-2.88-.06-6.15.45-6.15,3.27a2.34,2.34,0,0,0,2.49,2.52,3.61,3.61,0,0,0,3.51-2.43,2.74,2.74,0,0,0,.15-.84Z" transform="translate(71.23 53.28)"/><path class="cls-28" d="M828.7,535.41c0-1.5,0-2.73-.12-3.93h2.31l.12,2.34h.09a5,5,0,0,1,4.56-2.67,4.29,4.29,0,0,1,4.11,2.91h.06a6,6,0,0,1,1.62-1.89,5,5,0,0,1,3.21-1c1.92,0,4.77,1.26,4.77,6.3V546h-2.58v-8.22c0-2.79-1-4.47-3.15-4.47a3.42,3.42,0,0,0-3.12,2.4,4.38,4.38,0,0,0-.21,1.32v9h-2.58v-8.7c0-2.31-1-4-3-4a3.93,3.93,0,0,0-3.48,3.93V546H828.7Z" transform="translate(71.23 53.28)"/><path class="cls-28" d="M853.6,546c.06-1,.12-2.46.12-3.75V524.7h2.61v9.12h.06a5.41,5.41,0,0,1,5-2.67c3.6,0,6.15,3,6.12,7.41,0,5.19-3.27,7.77-6.51,7.77a5.17,5.17,0,0,1-4.86-2.73H856l-.12,2.4Zm2.73-5.82a4.92,4.92,0,0,0,.12,1,4.07,4.07,0,0,0,4,3.09c2.76,0,4.41-2.25,4.41-5.58,0-2.91-1.5-5.4-4.32-5.4a4.21,4.21,0,0,0-4,3.24,5.23,5.23,0,0,0-.15,1.08Z" transform="translate(71.23 53.28)"/><path class="cls-28" d="M870.79,536c0-1.71,0-3.18-.12-4.53H873l.09,2.85h.12a4.36,4.36,0,0,1,4-3.18,2.87,2.87,0,0,1,.75.09v2.49a4,4,0,0,0-.9-.09c-1.86,0-3.18,1.41-3.54,3.39a7.48,7.48,0,0,0-.12,1.23V546h-2.61Z" transform="translate(71.23 53.28)"/><path class="cls-28" d="M882.07,539.22c.06,3.57,2.34,5,5,5a9.55,9.55,0,0,0,4-.75l.45,1.89a11.76,11.76,0,0,1-4.83.9c-4.47,0-7.14-2.94-7.14-7.32s2.58-7.83,6.81-7.83c4.74,0,6,4.17,6,6.84a9.74,9.74,0,0,1-.09,1.23Zm7.74-1.89c0-1.68-.69-4.29-3.66-4.29-2.67,0-3.84,2.46-4,4.29Z" transform="translate(71.23 53.28)"/><path class="cls-28" d="M906.88,529h-.06l-3.39,1.83-.51-2,4.26-2.28h2.25V546h-2.55Z" transform="translate(71.23 53.28)"/><path class="cls-27" d="M734.64,528.72H727.2l-.75,5a10.5,10.5,0,0,1,1.59-.12,8.25,8.25,0,0,1,4.2,1,5.56,5.56,0,0,1,2.79,5c0,3.81-3,6.66-7.26,6.66a9.54,9.54,0,0,1-4.86-1.2l.66-2a8.73,8.73,0,0,0,4.17,1.08c2.49,0,4.62-1.62,4.62-4.23s-1.71-4.32-5.61-4.32a20.19,20.19,0,0,0-2.7.21l1.26-9.36h9.33Z" transform="translate(71.23 53.28)"/><path class="cls-27" d="M747.18,532c0,4.11-2.16,6.15-4.68,6.15s-4.53-2-4.56-5.88,2.13-6.09,4.71-6.09S747.18,528.27,747.18,532Zm-7.14.18c-.06,2.49.87,4.38,2.52,4.38s2.52-1.86,2.52-4.44c0-2.37-.69-4.35-2.52-4.35C740.91,527.76,740,529.71,740,532.17Zm2.28,14.16,11.46-20.16h1.68L744,546.33Zm17.55-6.27c0,4.11-2.16,6.15-4.65,6.15s-4.53-2-4.56-5.85,2.13-6.12,4.71-6.12S759.87,536.34,759.87,540.06Zm-7.14.18c0,2.49.93,4.38,2.55,4.38s2.52-1.86,2.52-4.44c0-2.37-.69-4.35-2.52-4.35C753.63,535.83,752.73,537.78,752.73,540.24Z" transform="translate(71.23 53.28)"/><path class="cls-28" d="M794.41,581.34a13,13,0,0,1-5.34,1c-5.7,0-10-3.6-10-10.23,0-6.33,4.29-10.62,10.56-10.62a10.85,10.85,0,0,1,4.8.9l-.63,2.13a9.51,9.51,0,0,0-4.08-.84c-4.74,0-7.89,3-7.89,8.34,0,5,2.85,8.13,7.77,8.13a10.45,10.45,0,0,0,4.26-.84Z" transform="translate(71.23 53.28)"/><path class="cls-28" d="M805.63,582l-.21-1.83h-.09a5.41,5.41,0,0,1-4.44,2.16,4.14,4.14,0,0,1-4.44-4.17c0-3.51,3.12-5.43,8.73-5.4v-.3c0-1.2-.33-3.36-3.3-3.36a7.23,7.23,0,0,0-3.78,1.08l-.6-1.74a9,9,0,0,1,4.77-1.29c4.44,0,5.52,3,5.52,5.94v5.43A20.47,20.47,0,0,0,808,582Zm-.39-7.41c-2.88-.06-6.15.45-6.15,3.27a2.34,2.34,0,0,0,2.49,2.52,3.61,3.61,0,0,0,3.51-2.43,2.74,2.74,0,0,0,.15-.84Z" transform="translate(71.23 53.28)"/><path class="cls-28" d="M812,571.41c0-1.5,0-2.73-.12-3.93h2.31l.12,2.34h.09a5,5,0,0,1,4.56-2.67,4.29,4.29,0,0,1,4.11,2.91h.06a6,6,0,0,1,1.62-1.89,5,5,0,0,1,3.21-1c1.92,0,4.77,1.26,4.77,6.3V582H830.2v-8.22c0-2.79-1-4.47-3.15-4.47a3.42,3.42,0,0,0-3.12,2.4,4.35,4.35,0,0,0-.21,1.32v9h-2.58v-8.7c0-2.31-1-4-3-4a3.94,3.94,0,0,0-3.48,3.93V582H812Z" transform="translate(71.23 53.28)"/><path class="cls-28" d="M836.95,582c.06-1,.12-2.46.12-3.75V560.7h2.61v9.12h.06a5.41,5.41,0,0,1,5-2.67c3.6,0,6.15,3,6.12,7.41,0,5.19-3.27,7.77-6.51,7.77a5.17,5.17,0,0,1-4.86-2.73h-.09l-.12,2.4Zm2.73-5.82a5,5,0,0,0,.12,1,4.07,4.07,0,0,0,4,3.09c2.76,0,4.41-2.25,4.41-5.58,0-2.91-1.5-5.4-4.32-5.4a4.21,4.21,0,0,0-4,3.24,5.23,5.23,0,0,0-.15,1.08Z" transform="translate(71.23 53.28)"/><path class="cls-28" d="M854.14,572c0-1.71,0-3.18-.12-4.53h2.31l.09,2.85h.12a4.36,4.36,0,0,1,4-3.18,2.87,2.87,0,0,1,.75.09v2.49a4,4,0,0,0-.9-.09c-1.86,0-3.18,1.41-3.54,3.39a7.38,7.38,0,0,0-.12,1.23V582h-2.61Z" transform="translate(71.23 53.28)"/><path class="cls-28" d="M865.42,575.22c.06,3.57,2.34,5,5,5a9.54,9.54,0,0,0,4-.75l.45,1.89a11.76,11.76,0,0,1-4.83.9c-4.47,0-7.14-2.94-7.14-7.32s2.58-7.83,6.81-7.83c4.74,0,6,4.17,6,6.84a9.93,9.93,0,0,1-.09,1.23Zm7.74-1.89c0-1.68-.69-4.29-3.66-4.29-2.67,0-3.84,2.46-4,4.29Z" transform="translate(71.23 53.28)"/><path class="cls-28" d="M884.5,582v-1.62l2.07-2c5-4.74,7.23-7.26,7.26-10.2,0-2-1-3.81-3.87-3.81a6.64,6.64,0,0,0-4.14,1.65l-.84-1.86a8.56,8.56,0,0,1,5.52-2c4.2,0,6,2.88,6,5.67,0,3.6-2.61,6.51-6.72,10.47l-1.56,1.44v.06h8.76V582Z" transform="translate(71.23 53.28)"/><path class="cls-27" d="M706.32,582v-1.62l2.07-2c5-4.74,7.23-7.26,7.26-10.2,0-2-1-3.81-3.87-3.81a6.64,6.64,0,0,0-4.14,1.65l-.84-1.86a8.56,8.56,0,0,1,5.52-2c4.2,0,6,2.88,6,5.67,0,3.6-2.61,6.51-6.72,10.47L710,579.75v.06h8.76V582Z" transform="translate(71.23 53.28)"/><path class="cls-27" d="M734.67,572c0,6.63-2.46,10.29-6.78,10.29-3.81,0-6.39-3.57-6.45-10s2.82-10.14,6.78-10.14C732.33,562.17,734.67,565.83,734.67,572Zm-10.59.3c0,5.07,1.56,7.95,4,7.95,2.7,0,4-3.15,4-8.13,0-4.8-1.23-7.95-4-7.95C725.76,564.21,724.08,567,724.08,572.34Z" transform="translate(71.23 53.28)"/><path class="cls-27" d="M745.89,568c0,4.11-2.16,6.15-4.68,6.15s-4.53-2-4.56-5.88,2.13-6.09,4.71-6.09C744.09,562.17,745.89,564.27,745.89,568Zm-7.14.18c-.06,2.49.87,4.38,2.52,4.38s2.52-1.86,2.52-4.44c0-2.37-.69-4.35-2.52-4.35C739.62,563.76,738.75,565.71,738.75,568.17ZM741,582.33l11.46-20.16h1.68l-11.46,20.16Zm17.55-6.27c0,4.11-2.16,6.15-4.65,6.15s-4.53-2-4.56-5.85,2.13-6.12,4.71-6.12C756.81,570.24,758.58,572.34,758.58,576.06Zm-7.14.18c0,2.49.93,4.38,2.55,4.38s2.52-1.86,2.52-4.44c0-2.37-.69-4.35-2.52-4.35C752.34,571.83,751.44,573.78,751.44,576.24Z" transform="translate(71.23 53.28)"/><path class="cls-28" d="M779.92,614.82a9.25,9.25,0,0,0,4.68,1.32c2.67,0,4.23-1.41,4.23-3.45,0-1.89-1.08-3-3.81-4-3.3-1.17-5.34-2.88-5.34-5.73,0-3.15,2.61-5.49,6.54-5.49a9.19,9.19,0,0,1,4.47,1l-.72,2.13a8.06,8.06,0,0,0-3.84-1c-2.76,0-3.81,1.65-3.81,3,0,1.89,1.23,2.82,4,3.9,3.42,1.32,5.16,3,5.16,5.94s-2.31,5.82-7.08,5.82a10.44,10.44,0,0,1-5.16-1.29Z" transform="translate(71.23 53.28)"/><path class="cls-28" d="M803,618l-.21-1.83h-.09a5.41,5.41,0,0,1-4.44,2.16,4.14,4.14,0,0,1-4.44-4.17c0-3.51,3.12-5.43,8.73-5.4v-.3c0-1.2-.33-3.36-3.3-3.36a7.23,7.23,0,0,0-3.78,1.08l-.6-1.74a9,9,0,0,1,4.77-1.29c4.44,0,5.52,3,5.52,5.94v5.43a20.47,20.47,0,0,0,.24,3.48Zm-.39-7.41c-2.88-.06-6.15.45-6.15,3.27a2.34,2.34,0,0,0,2.49,2.52,3.61,3.61,0,0,0,3.51-2.43,2.74,2.74,0,0,0,.15-.84Z" transform="translate(71.23 53.28)"/><path class="cls-28" d="M809.44,596.7h2.64V618h-2.64Z" transform="translate(71.23 53.28)"/><path class="cls-28" d="M816.52,596.7h2.64V618h-2.64Z" transform="translate(71.23 53.28)"/><path class="cls-28" d="M825.07,611.22c.06,3.57,2.34,5,5,5a9.54,9.54,0,0,0,4-.75l.45,1.89a11.76,11.76,0,0,1-4.83.9c-4.47,0-7.14-2.94-7.14-7.32s2.58-7.83,6.81-7.83c4.74,0,6,4.17,6,6.84a9.93,9.93,0,0,1-.09,1.23Zm7.74-1.89c0-1.68-.69-4.29-3.66-4.29-2.67,0-3.84,2.46-4,4.29Z" transform="translate(71.23 53.28)"/><path class="cls-28" d="M857.53,596.7v17.55c0,1.29,0,2.76.12,3.75h-2.37l-.12-2.52h-.06a5.37,5.37,0,0,1-4.95,2.85c-3.51,0-6.21-3-6.21-7.38,0-4.83,3-7.8,6.51-7.8a4.85,4.85,0,0,1,4.38,2.22h.06V596.7Zm-2.64,12.69a4.67,4.67,0,0,0-.12-1.11,3.88,3.88,0,0,0-3.81-3.06c-2.73,0-4.35,2.4-4.35,5.61,0,2.94,1.44,5.37,4.29,5.37a4,4,0,0,0,3.87-3.15,4.59,4.59,0,0,0,.12-1.14Z" transform="translate(71.23 53.28)"/><path class="cls-28" d="M863.38,611.22c.06,3.57,2.34,5,5,5a9.55,9.55,0,0,0,4-.75l.45,1.89a11.76,11.76,0,0,1-4.83.9c-4.47,0-7.14-2.94-7.14-7.32s2.58-7.83,6.81-7.83c4.74,0,6,4.17,6,6.84a9.93,9.93,0,0,1-.09,1.23Zm7.74-1.89c0-1.68-.69-4.29-3.66-4.29-2.67,0-3.84,2.46-4.05,4.29Z" transform="translate(71.23 53.28)"/><path class="cls-28" d="M883.18,618c.06-1,.12-2.46.12-3.75V596.7h2.61v9.12H886a5.41,5.41,0,0,1,5-2.67c3.6,0,6.15,3,6.12,7.41,0,5.19-3.27,7.77-6.51,7.77a5.17,5.17,0,0,1-4.86-2.73h-.09l-.12,2.4Zm2.73-5.82a5,5,0,0,0,.12,1,4.07,4.07,0,0,0,4,3.09c2.76,0,4.41-2.25,4.41-5.58,0-2.91-1.5-5.4-4.32-5.4a4.21,4.21,0,0,0-4,3.24,5.23,5.23,0,0,0-.15,1.08Z" transform="translate(71.23 53.28)"/><path class="cls-28" d="M908.41,618l-.21-1.83h-.09a5.41,5.41,0,0,1-4.44,2.16,4.14,4.14,0,0,1-4.44-4.17c0-3.51,3.12-5.43,8.73-5.4v-.3c0-1.2-.33-3.36-3.3-3.36a7.24,7.24,0,0,0-3.78,1.08l-.6-1.74a9,9,0,0,1,4.77-1.29c4.44,0,5.52,3,5.52,5.94v5.43a20.48,20.48,0,0,0,.24,3.48Zm-.39-7.41c-2.88-.06-6.15.45-6.15,3.27a2.34,2.34,0,0,0,2.49,2.52,3.61,3.61,0,0,0,3.51-2.43,2.77,2.77,0,0,0,.15-.84Z" transform="translate(71.23 53.28)"/><path class="cls-28" d="M917.77,599.4a1.63,1.63,0,0,1-3.27,0,1.61,1.61,0,0,1,1.65-1.65A1.57,1.57,0,0,1,917.77,599.4ZM914.83,618V603.48h2.64V618Z" transform="translate(71.23 53.28)"/><path class="cls-28" d="M921.85,607.41c0-1.5,0-2.73-.12-3.93h2.34l.15,2.4h.06a5.34,5.34,0,0,1,4.8-2.73c2,0,5.13,1.2,5.13,6.18V618h-2.64v-8.37c0-2.34-.87-4.29-3.36-4.29a3.75,3.75,0,0,0-3.54,2.7,3.79,3.79,0,0,0-.18,1.23V618h-2.64Z" transform="translate(71.23 53.28)"/><path class="cls-27" d="M712,601H712l-3.39,1.83-.51-2,4.26-2.28h2.25V618H712Z" transform="translate(71.23 53.28)"/><path class="cls-27" d="M733.35,600.72h-7.44l-.75,5a10.46,10.46,0,0,1,1.59-.12,8.24,8.24,0,0,1,4.2,1,5.56,5.56,0,0,1,2.79,5c0,3.81-3,6.66-7.26,6.66a9.54,9.54,0,0,1-4.86-1.2l.66-2a8.74,8.74,0,0,0,4.17,1.08c2.49,0,4.62-1.62,4.62-4.23s-1.71-4.32-5.61-4.32a20.19,20.19,0,0,0-2.7.21L724,598.5h9.33Z" transform="translate(71.23 53.28)"/><path class="cls-27" d="M745.89,604c0,4.11-2.16,6.15-4.68,6.15s-4.53-2-4.56-5.88,2.13-6.09,4.71-6.09C744.09,598.17,745.89,600.27,745.89,604Zm-7.14.18c-.06,2.49.87,4.38,2.52,4.38s2.52-1.86,2.52-4.44c0-2.37-.69-4.35-2.52-4.35C739.62,599.76,738.75,601.71,738.75,604.17ZM741,618.33l11.46-20.16h1.68l-11.46,20.16Zm17.55-6.27c0,4.11-2.16,6.15-4.65,6.15s-4.53-2-4.56-5.85,2.13-6.12,4.71-6.12C756.81,606.24,758.58,608.34,758.58,612.06Zm-7.14.18c0,2.49.93,4.38,2.55,4.38s2.52-1.86,2.52-4.44c0-2.37-.69-4.35-2.52-4.35C752.34,607.83,751.44,609.78,751.44,612.24Z" transform="translate(71.23 53.28)"/><path class="cls-28" d="M795.67,653.1a18.84,18.84,0,0,1-6.21,1.11A9.5,9.5,0,0,1,779.08,644c0-6,4.17-10.44,10.95-10.44a12.5,12.5,0,0,1,5,.93l-.63,2.13a10.47,10.47,0,0,0-4.47-.87c-4.92,0-8.13,3.06-8.13,8.13s3.09,8.16,7.8,8.16a8.49,8.49,0,0,0,3.48-.54v-6H789v-2.1h6.66Z" transform="translate(71.23 53.28)"/><path class="cls-28" d="M807.61,654l-.21-1.83h-.09a5.41,5.41,0,0,1-4.44,2.16,4.14,4.14,0,0,1-4.44-4.17c0-3.51,3.12-5.43,8.73-5.4v-.3c0-1.2-.33-3.36-3.3-3.36a7.23,7.23,0,0,0-3.78,1.08l-.6-1.74a9,9,0,0,1,4.77-1.29c4.44,0,5.52,3,5.52,5.94v5.43A20.47,20.47,0,0,0,810,654Zm-.39-7.41c-2.88-.06-6.15.45-6.15,3.27a2.34,2.34,0,0,0,2.49,2.52,3.61,3.61,0,0,0,3.51-2.43,2.74,2.74,0,0,0,.15-.84Z" transform="translate(71.23 53.28)"/><path class="cls-28" d="M814,644c0-1.71,0-3.18-.12-4.53h2.31l.09,2.85h.12a4.36,4.36,0,0,1,4-3.18,2.87,2.87,0,0,1,.75.09v2.49a4,4,0,0,0-.9-.09c-1.86,0-3.18,1.41-3.54,3.39a7.38,7.38,0,0,0-.12,1.23V654H814Z" transform="translate(71.23 53.28)"/><path class="cls-28" d="M831.88,654l-.21-1.83h-.09a5.41,5.41,0,0,1-4.44,2.16,4.14,4.14,0,0,1-4.44-4.17c0-3.51,3.12-5.43,8.73-5.4v-.3c0-1.2-.33-3.36-3.3-3.36a7.23,7.23,0,0,0-3.78,1.08l-.6-1.74a9,9,0,0,1,4.77-1.29c4.44,0,5.52,3,5.52,5.94v5.43a20.47,20.47,0,0,0,.24,3.48Zm-.39-7.41c-2.88-.06-6.15.45-6.15,3.27a2.34,2.34,0,0,0,2.49,2.52,3.61,3.61,0,0,0,3.51-2.43,2.74,2.74,0,0,0,.15-.84Z" transform="translate(71.23 53.28)"/><path class="cls-28" d="M850.81,639.48c-.06,1-.12,2.22-.12,4v8.43c0,3.33-.66,5.37-2.07,6.63a7.7,7.7,0,0,1-5.28,1.74,9.37,9.37,0,0,1-4.83-1.2l.66-2a8.18,8.18,0,0,0,4.26,1.14c2.7,0,4.68-1.41,4.68-5.07v-1.62H848a5.18,5.18,0,0,1-4.62,2.43c-3.6,0-6.18-3.06-6.18-7.08,0-4.92,3.21-7.71,6.54-7.71a4.83,4.83,0,0,1,4.53,2.52h.06l.12-2.19Zm-2.73,5.73a3.75,3.75,0,0,0-.15-1.2,3.8,3.8,0,0,0-3.69-2.79c-2.52,0-4.32,2.13-4.32,5.49,0,2.85,1.44,5.22,4.29,5.22a3.86,3.86,0,0,0,3.66-2.7,4.58,4.58,0,0,0,.21-1.41Z" transform="translate(71.23 53.28)"/><path class="cls-28" d="M856.54,647.22c.06,3.57,2.34,5,5,5a9.55,9.55,0,0,0,4-.75l.45,1.89a11.76,11.76,0,0,1-4.83.9c-4.47,0-7.14-2.94-7.14-7.32s2.58-7.83,6.81-7.83c4.74,0,6,4.17,6,6.84a9.93,9.93,0,0,1-.09,1.23Zm7.74-1.89c0-1.68-.69-4.29-3.66-4.29-2.67,0-3.84,2.46-4.05,4.29Z" transform="translate(71.23 53.28)"/><path class="cls-27" d="M734.64,636.72H727.2l-.75,5a10.5,10.5,0,0,1,1.59-.12,8.25,8.25,0,0,1,4.2,1,5.56,5.56,0,0,1,2.79,5c0,3.81-3,6.66-7.26,6.66a9.54,9.54,0,0,1-4.86-1.2l.66-2a8.73,8.73,0,0,0,4.17,1.08c2.49,0,4.62-1.62,4.62-4.23s-1.71-4.32-5.61-4.32a20.19,20.19,0,0,0-2.7.21l1.26-9.36h9.33Z" transform="translate(71.23 53.28)"/><path class="cls-27" d="M747.18,640c0,4.11-2.16,6.15-4.68,6.15s-4.53-2-4.56-5.88,2.13-6.09,4.71-6.09S747.18,636.27,747.18,640Zm-7.14.18c-.06,2.49.87,4.38,2.52,4.38s2.52-1.86,2.52-4.44c0-2.37-.69-4.35-2.52-4.35C740.91,635.76,740,637.71,740,640.17Zm2.28,14.16,11.46-20.16h1.68L744,654.33Zm17.55-6.27c0,4.11-2.16,6.15-4.65,6.15s-4.53-2-4.56-5.85,2.13-6.12,4.71-6.12S759.87,644.34,759.87,648.06Zm-7.14.18c0,2.49.93,4.38,2.55,4.38s2.52-1.86,2.52-4.44c0-2.37-.69-4.35-2.52-4.35C753.63,643.83,752.73,645.78,752.73,648.24Z" transform="translate(71.23 53.28)"/><path class="cls-28" d="M128.86,656.2a4.7,4.7,0,0,1,1.7.28,2.67,2.67,0,0,1,1,.75,3.36,3.36,0,0,1,.54.91,3,3,0,0,1,.2,1.14,3.23,3.23,0,0,1-.39,1.51,2.17,2.17,0,0,1-1.28,1.05,2,2,0,0,1,1.06.85,3.55,3.55,0,0,1,.31,1.69v.73a5.46,5.46,0,0,0,.06,1,.9.9,0,0,0,.42.62V667H130q-.1-.36-.15-.58a5.31,5.31,0,0,1-.1-.93v-1a2,2,0,0,0-.36-1.38,1.82,1.82,0,0,0-1.29-.34h-2.2V667h-2.2V656.2Zm-3,1.88V661h2.43a2.58,2.58,0,0,0,1.09-.18,1.21,1.21,0,0,0,.64-1.22,1.36,1.36,0,0,0-.62-1.32,2.24,2.24,0,0,0-1-.19Zm11.73.73a4.55,4.55,0,0,1,1.88.37,3.25,3.25,0,0,1,1.38,1.18,3.92,3.92,0,0,1,.64,1.65,10.2,10.2,0,0,1,.07,1.58h-5.81a1.92,1.92,0,0,0,.83,1.68,2.12,2.12,0,0,0,1.15.3,1.62,1.62,0,0,0,1.59-.92h2.13a2.61,2.61,0,0,1-.77,1.44,3.88,3.88,0,0,1-3,1.16,4.35,4.35,0,0,1-2.81-1,3.87,3.87,0,0,1-1.22-3.2,4.32,4.32,0,0,1,1.1-3.18,3.85,3.85,0,0,1,2.85-1.11Zm0,1.72a1.66,1.66,0,0,0-1.25.46,2.17,2.17,0,0,0-.56,1.24h3.6a1.74,1.74,0,0,0-.56-1.26,1.83,1.83,0,0,0-1.24-.43Zm2.47-4.78-2.23,2.19h-1.51l1.41-2.19Zm5.49,3.08a2.58,2.58,0,0,1,1.29.32,2.54,2.54,0,0,1,.92.88v-3.81h2.12V667h-2v-1.11a2.94,2.94,0,0,1-1,1,2.86,2.86,0,0,1-1.42.32,3,3,0,0,1-2.35-1.13,4.35,4.35,0,0,1-1-2.9,5,5,0,0,1,.94-3.22,3.06,3.06,0,0,1,2.52-1.17Zm.45,6.67a1.54,1.54,0,0,0,1.35-.66,2.91,2.91,0,0,0,.46-1.71,2.62,2.62,0,0,0-.74-2.09,1.59,1.59,0,0,0-1.05-.38,1.47,1.47,0,0,0-1.34.69,3.73,3.73,0,0,0,0,3.49,1.47,1.47,0,0,0,1.32.66Zm7.84-6.47v4.81a2.53,2.53,0,0,0,.16,1,1.11,1.11,0,0,0,1.11.61,1.46,1.46,0,0,0,1.46-.86,3.14,3.14,0,0,0,.2-1.24V659h2.12v8h-2v-1.13l-.15.22a1.47,1.47,0,0,1-.28.32,2.9,2.9,0,0,1-.95.6,3.22,3.22,0,0,1-1.07.16,2.38,2.38,0,0,1-2.38-1.27,4.89,4.89,0,0,1-.34-2.07V659Zm11.86,2.86a1.85,1.85,0,0,0-.3-.81,1.26,1.26,0,0,0-1.09-.48,1.44,1.44,0,0,0-1.45,1,4.35,4.35,0,0,0-.21,1.48,4,4,0,0,0,.21,1.41,1.4,1.4,0,0,0,1.41,1,1.24,1.24,0,0,0,1-.4,2,2,0,0,0,.37-1h2.13a3.49,3.49,0,0,1-.69,1.8,3.35,3.35,0,0,1-2.91,1.37,3.41,3.41,0,0,1-2.84-1.14,4.61,4.61,0,0,1-.91-3,4.68,4.68,0,0,1,1-3.2,3.5,3.5,0,0,1,2.77-1.14,4.18,4.18,0,0,1,2.46.67,3.13,3.13,0,0,1,1.13,2.38Zm2.75-1.3v-1.49h1.11v-2.23h2.07v2.23H173v1.49h-1.3v4.22a1,1,0,0,0,.12.61,1.37,1.37,0,0,0,.76.12H173v1.56l-1,0a2.65,2.65,0,0,1-2-.51,1.53,1.53,0,0,1-.35-1.11v-4.91Zm8-2.51h-2.12v-1.93h2.12Zm-2.12,1h2.12v8h-2.12Zm11.81,4a4.62,4.62,0,0,1-1,3,4.4,4.4,0,0,1-6.14,0,5,5,0,0,1,0-6,4.35,4.35,0,0,1,6.14,0,4.65,4.65,0,0,1,1,3Zm-4.09,2.5a1.66,1.66,0,0,0,1.41-.65,3.73,3.73,0,0,0,0-3.7,1.86,1.86,0,0,0-2.82,0,3.7,3.7,0,0,0,0,3.7,1.67,1.67,0,0,0,1.41.65Zm10-6.69a3.06,3.06,0,0,1,2,.65,2.64,2.64,0,0,1,.78,2.15V667h-2.14v-4.86a2.23,2.23,0,0,0-.17-1,1.17,1.17,0,0,0-1.16-.62,1.44,1.44,0,0,0-1.45.9,3.11,3.11,0,0,0-.2,1.22V667h-2.09v-8h2v1.16a3.54,3.54,0,0,1,.76-.89,2.63,2.63,0,0,1,1.63-.48Z" transform="translate(71.23 53.28)"/><path class="cls-28" d="M126.8,676.8a4.55,4.55,0,0,1,1.88.37,3.25,3.25,0,0,1,1.38,1.18,3.92,3.92,0,0,1,.64,1.65,10.2,10.2,0,0,1,.07,1.58h-5.81a1.92,1.92,0,0,0,.83,1.68,2.12,2.12,0,0,0,1.15.3,1.62,1.62,0,0,0,1.59-.92h2.13a2.61,2.61,0,0,1-.77,1.44,3.88,3.88,0,0,1-3,1.16,4.35,4.35,0,0,1-2.81-1,3.87,3.87,0,0,1-1.22-3.2,4.32,4.32,0,0,1,1.1-3.18,3.85,3.85,0,0,1,2.85-1.11Zm0,1.72a1.66,1.66,0,0,0-1.25.46,2.17,2.17,0,0,0-.56,1.24h3.6A1.74,1.74,0,0,0,128,679a1.83,1.83,0,0,0-1.24-.43Zm2.47-4.78L127,675.94h-1.51l1.41-2.19Zm11.47,3.09a2.78,2.78,0,0,1,1,.21,2.32,2.32,0,0,1,.93.72,2.29,2.29,0,0,1,.45,1,7.1,7.1,0,0,1,.07,1.18v5h-2.14v-5.08a1.67,1.67,0,0,0-.15-.75,1,1,0,0,0-1-.56,1.2,1.2,0,0,0-1.19.72,2.25,2.25,0,0,0-.17.92V685h-2.1v-4.75a2.67,2.67,0,0,0-.15-1,1,1,0,0,0-1-.58,1.23,1.23,0,0,0-1.2.58,2.23,2.23,0,0,0-.17,1V685h-2.12v-8h2v1.16a3.36,3.36,0,0,1,.73-.89,2.9,2.9,0,0,1,3.05-.07,2.34,2.34,0,0,1,.69,1,2.65,2.65,0,0,1,1-1,3.11,3.11,0,0,1,1.44-.33Zm6.56-.78h-2.12v-1.93h2.12Zm-2.12,1h2.12v8h-2.12Zm5.76,5.43a1.39,1.39,0,0,0,.29.79,2,2,0,0,0,1.44.42,2.21,2.21,0,0,0,1-.18.61.61,0,0,0,.07-1.08,12,12,0,0,0-2.18-.63,4.54,4.54,0,0,1-1.92-.84,1.83,1.83,0,0,1-.56-1.44,2.49,2.49,0,0,1,.87-1.9,3.5,3.5,0,0,1,2.45-.79,4.5,4.5,0,0,1,2.44.6,2.56,2.56,0,0,1,1.08,2.06h-2.09a1.23,1.23,0,0,0-.23-.64,1.44,1.44,0,0,0-1.18-.42,1.69,1.69,0,0,0-1,.21.61.61,0,0,0-.29.5.54.54,0,0,0,.31.52,13.35,13.35,0,0,0,2.18.58,4,4,0,0,1,1.87.89,2,2,0,0,1,.62,1.5,2.42,2.42,0,0,1-.88,1.94,5.31,5.31,0,0,1-5.52,0,2.58,2.58,0,0,1-.9-2Zm8.34,0a1.39,1.39,0,0,0,.29.79,2,2,0,0,0,1.44.42,2.21,2.21,0,0,0,1-.18.61.61,0,0,0,.07-1.08,12,12,0,0,0-2.18-.63,4.54,4.54,0,0,1-1.92-.84,1.83,1.83,0,0,1-.56-1.44,2.49,2.49,0,0,1,.87-1.9,3.5,3.5,0,0,1,2.45-.79,4.5,4.5,0,0,1,2.44.6,2.56,2.56,0,0,1,1.08,2.06h-2.09a1.23,1.23,0,0,0-.23-.64,1.44,1.44,0,0,0-1.18-.42,1.69,1.69,0,0,0-1,.21.61.61,0,0,0-.29.5.54.54,0,0,0,.31.52,13.35,13.35,0,0,0,2.18.58,4,4,0,0,1,1.87.89,2,2,0,0,1,.62,1.5,2.42,2.42,0,0,1-.88,1.94,5.31,5.31,0,0,1-5.52,0,2.58,2.58,0,0,1-.9-2Zm8.87-6.39H166v-1.93h2.12ZM166,677h2.12v8H166Zm11.81,4a4.62,4.62,0,0,1-1,3,4.4,4.4,0,0,1-6.14,0,5,5,0,0,1,0-6,4.35,4.35,0,0,1,6.14,0,4.65,4.65,0,0,1,1,3Zm-4.09,2.5a1.66,1.66,0,0,0,1.41-.65,3.73,3.73,0,0,0,0-3.7,1.86,1.86,0,0,0-2.82,0,3.7,3.7,0,0,0,0,3.7,1.67,1.67,0,0,0,1.41.65Zm10-6.69a3.06,3.06,0,0,1,2,.65,2.64,2.64,0,0,1,.78,2.15V685h-2.14v-4.86a2.23,2.23,0,0,0-.17-1,1.17,1.17,0,0,0-1.16-.62,1.44,1.44,0,0,0-1.45.9,3.12,3.12,0,0,0-.2,1.22V685h-2.09v-8h2v1.16a3.54,3.54,0,0,1,.76-.89,2.63,2.63,0,0,1,1.63-.48Zm6.37,5.63a1.39,1.39,0,0,0,.29.79,2,2,0,0,0,1.44.42,2.21,2.21,0,0,0,1-.18.61.61,0,0,0,.07-1.08,12,12,0,0,0-2.18-.63,4.54,4.54,0,0,1-1.92-.84,1.83,1.83,0,0,1-.56-1.44,2.49,2.49,0,0,1,.87-1.9,3.5,3.5,0,0,1,2.45-.79,4.5,4.5,0,0,1,2.44.6,2.56,2.56,0,0,1,1.08,2.06H193a1.23,1.23,0,0,0-.23-.64,1.44,1.44,0,0,0-1.18-.42,1.69,1.69,0,0,0-1,.21.61.61,0,0,0-.29.5.54.54,0,0,0,.31.52,13.35,13.35,0,0,0,2.18.58,4,4,0,0,1,1.87.89,2,2,0,0,1,.62,1.5,2.42,2.42,0,0,1-.88,1.94,5.31,5.31,0,0,1-5.52,0,2.58,2.58,0,0,1-.9-2Zm10.6-2.76a6,6,0,0,1,1.5-4.36,5,5,0,0,1,7.26.45,3.9,3.9,0,0,1,.74,2H208a3.07,3.07,0,0,0-.55-1.17,2.45,2.45,0,0,0-3.69.29,4.85,4.85,0,0,0-.7,2.81,4.25,4.25,0,0,0,.73,2.72,2.3,2.3,0,0,0,1.87.9,2.11,2.11,0,0,0,1.77-.78,3.41,3.41,0,0,0,.56-1.25h2.24a4.86,4.86,0,0,1-1.48,2.87,4.31,4.31,0,0,1-3.05,1.11,4.58,4.58,0,0,1-3.62-1.49,6,6,0,0,1-1.32-4.12Zm21.25-.1a5.84,5.84,0,0,1-1.63,4.45,5.6,5.6,0,0,1-7.08,0,5.82,5.82,0,0,1-1.64-4.45,5.71,5.71,0,0,1,1.64-4.45,5.6,5.6,0,0,1,7.08,0,5.72,5.72,0,0,1,1.63,4.45Zm-5.17,3.8a2.58,2.58,0,0,0,2.13-1,5.41,5.41,0,0,0,0-5.62,2.57,2.57,0,0,0-2.13-1,2.61,2.61,0,0,0-2.14,1,5.35,5.35,0,0,0,0,5.63,2.61,2.61,0,0,0,2.14,1ZM223,685a5,5,0,0,1,.49-2.09,5.9,5.9,0,0,1,2.11-2.25,15.47,15.47,0,0,0,1.87-1.48,2.19,2.19,0,0,0,.65-1.52,1.69,1.69,0,0,0-.37-1.12,1.52,1.52,0,0,0-2.37.26,3.52,3.52,0,0,0-.23,1.3h-2a5.12,5.12,0,0,1,.49-2.19,3.06,3.06,0,0,1,3-1.59,3.77,3.77,0,0,1,2.68.93,3.23,3.23,0,0,1,1,2.47,3.34,3.34,0,0,1-.7,2.09,7,7,0,0,1-1.52,1.35l-.84.59q-.79.56-1.07.81a2.36,2.36,0,0,0-.49.58h4.64V685Z" transform="translate(71.23 53.28)"/><g class="cls-29"><g class="cls-8"><rect class="cls-27" x="130.73" y="591.28" width="210" height="105"/></g></g><path class="cls-6" d="M112.2,611v-3.24l4.14-4c10-9.48,14.46-14.52,14.52-20.4,0-4-1.92-7.62-7.74-7.62a13.28,13.28,0,0,0-8.28,3.3l-1.68-3.72a17.11,17.11,0,0,1,11-4c8.4,0,11.94,5.76,11.94,11.34,0,7.2-5.22,13-13.44,20.94l-3.12,2.88v.12H137.1V611Z" transform="translate(71.23 53.28)"/><path class="cls-6" d="M167.94,591.08c0,13.26-4.92,20.58-13.56,20.58-7.62,0-12.78-7.14-12.9-20,0-13.08,5.64-20.28,13.56-20.28C163.26,571.34,167.94,578.66,167.94,591.08Zm-21.18.6c0,10.14,3.12,15.9,7.92,15.9,5.4,0,8-6.3,8-16.26,0-9.6-2.46-15.9-7.92-15.9C150.12,575.42,146.76,581.06,146.76,591.68Z" transform="translate(71.23 53.28)"/><path class="cls-6" d="M189.42,583c0,8.22-4.32,12.3-9.36,12.3-4.86,0-9.06-3.9-9.12-11.76s4.26-12.18,9.42-12.18C185.82,571.34,189.42,575.54,189.42,583Zm-14.28.36c-.12,5,1.74,8.76,5,8.76,3.48,0,5-3.72,5-8.88,0-4.74-1.38-8.7-5-8.7C176.88,574.52,175.14,578.42,175.14,583.34Zm4.56,28.32,22.92-40.32H206l-22.92,40.32Zm35.1-12.54c0,8.22-4.32,12.3-9.3,12.3s-9.06-3.9-9.12-11.7,4.26-12.24,9.42-12.24C211.26,587.48,214.8,591.68,214.8,599.12Zm-14.28.36c-.06,5,1.86,8.76,5.1,8.76,3.48,0,5-3.72,5-8.88,0-4.74-1.38-8.7-5-8.7C202.32,590.66,200.52,594.56,200.52,599.48Z" transform="translate(71.23 53.28)"/><g class="cls-30"><g class="cls-8"><g class="cls-17"><g class="cls-31"><g class="cls-32"><g class="cls-33"><rect class="cls-6" x="137.77" y="709.53" width="43.92" height="28.5"/></g></g></g></g></g></g></svg>