<svg id="Layer_1" data-name="Layer 1" xmlns="http://www.w3.org/2000/svg" viewBox="0 0 792.59 473.1"><defs><style>.cls-1,.cls-2{fill:#404040;}.cls-2{isolation:isolate;}</style></defs><title>left-state3</title><path class="cls-1" d="M281.43,432.76c-.23-4.31-.5-9.5-.46-13.35h-.14c-1.06,3.63-2.34,7.48-3.9,11.75l-5.46,15h-3l-5-14.73c-1.47-4.36-2.71-8.35-3.58-12h-.09c-.09,3.85-.32,9-.6,13.67l-.83,13.26h-3.81l2.16-30.92h5.09l5.28,15c1.28,3.81,2.34,7.2,3.12,10.42h.14c.78-3.12,1.88-6.52,3.26-10.42l5.51-15h5.09l1.93,30.92h-3.9Z" transform="translate(-115 -148.13)"/><path class="cls-1" d="M294.36,436c.09,5.46,3.58,7.71,7.62,7.71a14.6,14.6,0,0,0,6.15-1.15l.69,2.89a18,18,0,0,1-7.39,1.38c-6.84,0-10.92-4.5-10.92-11.2s3.95-12,10.42-12c7.25,0,9.18,6.38,9.18,10.46A15.25,15.25,0,0,1,310,436Zm11.84-2.89c0-2.57-1.06-6.56-5.6-6.56-4.08,0-5.87,3.76-6.19,6.56Z" transform="translate(-115 -148.13)"/><path class="cls-1" d="M315.1,431.06c0-2.62,0-4.86-.18-6.93h3.53l.14,4.36h.18a6.66,6.66,0,0,1,6.15-4.86,4.36,4.36,0,0,1,1.15.14v3.81a6.06,6.06,0,0,0-1.38-.14c-2.84,0-4.86,2.16-5.41,5.19a11.35,11.35,0,0,0-.18,1.88v11.84h-4Z" transform="translate(-115 -148.13)"/><path class="cls-1" d="M345.1,445.51a14.87,14.87,0,0,1-6.38,1.29c-6.7,0-11.06-4.54-11.06-11.33s4.68-11.79,11.93-11.79a13.51,13.51,0,0,1,5.6,1.15l-.92,3.12a9.36,9.36,0,0,0-4.68-1.05c-5.09,0-7.85,3.76-7.85,8.4,0,5.14,3.3,8.3,7.71,8.3a11.47,11.47,0,0,0,5-1.1Z" transform="translate(-115 -148.13)"/><path class="cls-1" d="M354.32,417.89a2.5,2.5,0,0,1-5,0,2.46,2.46,0,0,1,2.52-2.52A2.4,2.4,0,0,1,354.32,417.89Zm-4.5,28.45V424.13h4v22.21Z" transform="translate(-115 -148.13)"/><path class="cls-1" d="M357.95,452a66,66,0,0,0,2.75-11l4.5-.46a56,56,0,0,1-4.36,11.15Z" transform="translate(-115 -148.13)"/><path class="cls-1" d="M381.34,424.13l4.36,12.48a57.16,57.16,0,0,1,1.79,5.69h.14c.5-1.83,1.15-3.67,1.88-5.69l4.31-12.48H398l-8.72,22.21h-3.85L377,424.13Z" transform="translate(-115 -148.13)"/><path class="cls-1" d="M421.95,435.05c0,8.21-5.69,11.79-11.06,11.79-6,0-10.65-4.41-10.65-11.42,0-7.43,4.86-11.79,11-11.79C417.63,423.63,421.95,428.26,421.95,435.05Zm-17.62.23c0,4.86,2.8,8.53,6.74,8.53s6.75-3.62,6.75-8.63c0-3.76-1.88-8.53-6.65-8.53S404.33,431.06,404.33,435.28Z" transform="translate(-115 -148.13)"/><path class="cls-1" d="M445.62,440.28c0,2.29,0,4.31.18,6.06h-3.58l-.23-3.62h-.09a8.36,8.36,0,0,1-7.34,4.13c-3.49,0-7.66-1.93-7.66-9.73v-13h4v12.3c0,4.22,1.28,7.07,5,7.07a5.84,5.84,0,0,0,5.32-3.67,5.9,5.9,0,0,0,.37-2.06V424.13h4Z" transform="translate(-115 -148.13)"/><path class="cls-1" d="M451.76,442.21a10.58,10.58,0,0,0,5.32,1.61c2.94,0,4.31-1.47,4.31-3.3s-1.15-3-4.13-4.08c-4-1.42-5.87-3.62-5.87-6.29,0-3.58,2.89-6.52,7.66-6.52a11.09,11.09,0,0,1,5.46,1.38l-1,2.94a8.64,8.64,0,0,0-4.54-1.28c-2.39,0-3.72,1.38-3.72,3,0,1.83,1.33,2.66,4.22,3.76,3.85,1.47,5.83,3.4,5.83,6.7,0,3.9-3,6.65-8.3,6.65a12.66,12.66,0,0,1-6.24-1.51Z" transform="translate(-115 -148.13)"/><path class="cls-1" d="M492.5,446.34l-.32-2.8H492a8.27,8.27,0,0,1-6.79,3.3c-4.5,0-6.79-3.17-6.79-6.38,0-5.37,4.77-8.3,13.35-8.26v-.46c0-1.83-.5-5.14-5-5.14a11.06,11.06,0,0,0-5.78,1.65l-.92-2.66a13.78,13.78,0,0,1,7.3-2c6.79,0,8.44,4.63,8.44,9.08V441a31.25,31.25,0,0,0,.37,5.32Zm-.6-11.33c-4.4-.09-9.41.69-9.41,5a3.57,3.57,0,0,0,3.81,3.85,5.53,5.53,0,0,0,5.37-3.72,4.21,4.21,0,0,0,.23-1.28Z" transform="translate(-115 -148.13)"/><path class="cls-1" d="M502.32,413.76h4v32.58h-4Z" transform="translate(-115 -148.13)"/><path class="cls-1" d="M513.15,413.76h4v32.58h-4Z" transform="translate(-115 -148.13)"/><path class="cls-1" d="M526.22,436c.09,5.46,3.58,7.71,7.62,7.71a14.59,14.59,0,0,0,6.15-1.15l.69,2.89a18,18,0,0,1-7.39,1.38c-6.84,0-10.92-4.5-10.92-11.2s3.95-12,10.42-12c7.25,0,9.18,6.38,9.18,10.46a15.23,15.23,0,0,1-.14,1.88Zm11.84-2.89c0-2.57-1.06-6.56-5.6-6.56-4.08,0-5.87,3.76-6.19,6.56Z" transform="translate(-115 -148.13)"/><path class="cls-1" d="M544.44,444l10-13.08c1-1.19,1.88-2.25,2.89-3.44v-.09h-12v-3.26h16.93l0,2.52-9.91,12.89c-.92,1.24-1.83,2.34-2.84,3.49v.09h13v3.21h-18Z" transform="translate(-115 -148.13)"/><path class="cls-1" d="M576.32,431.06c0-2.62,0-4.86-.18-6.93h3.53l.14,4.36H580a6.66,6.66,0,0,1,6.15-4.86,4.37,4.37,0,0,1,1.15.14v3.81a6.06,6.06,0,0,0-1.38-.14c-2.84,0-4.86,2.16-5.42,5.19a11.35,11.35,0,0,0-.18,1.88v11.84h-4Z" transform="translate(-115 -148.13)"/><path class="cls-1" d="M592.79,436c.09,5.46,3.58,7.71,7.62,7.71a14.59,14.59,0,0,0,6.15-1.15l.69,2.89a18,18,0,0,1-7.39,1.38c-6.84,0-10.92-4.5-10.92-11.2s3.95-12,10.42-12c7.25,0,9.18,6.38,9.18,10.46a15.23,15.23,0,0,1-.14,1.88Zm11.84-2.89c0-2.57-1.06-6.56-5.6-6.56-4.08,0-5.87,3.76-6.19,6.56Z" transform="translate(-115 -148.13)"/><path class="cls-1" d="M629.36,445.51A14.86,14.86,0,0,1,623,446.8c-6.7,0-11.06-4.54-11.06-11.33s4.68-11.79,11.93-11.79a13.51,13.51,0,0,1,5.6,1.15l-.92,3.12a9.36,9.36,0,0,0-4.68-1.05c-5.09,0-7.85,3.76-7.85,8.4,0,5.14,3.3,8.3,7.71,8.3a11.47,11.47,0,0,0,5-1.1Z" transform="translate(-115 -148.13)"/><path class="cls-1" d="M636.33,436c.09,5.46,3.58,7.71,7.62,7.71a14.59,14.59,0,0,0,6.15-1.15l.69,2.89a18,18,0,0,1-7.39,1.38c-6.84,0-10.92-4.5-10.92-11.2s3.95-12,10.42-12c7.25,0,9.18,6.38,9.18,10.46a15.23,15.23,0,0,1-.14,1.88Zm11.84-2.89c0-2.57-1.06-6.56-5.6-6.56-4.08,0-5.87,3.76-6.19,6.56Z" transform="translate(-115 -148.13)"/><path class="cls-1" d="M658.63,424.13,663,436.61a57.16,57.16,0,0,1,1.79,5.69h.14c.5-1.83,1.15-3.67,1.88-5.69l4.31-12.48h4.22l-8.72,22.21h-3.85l-8.44-22.21Z" transform="translate(-115 -148.13)"/><path class="cls-1" d="M699.23,435.05c0,8.21-5.69,11.79-11.06,11.79-6,0-10.65-4.41-10.65-11.42,0-7.43,4.86-11.79,11-11.79C694.92,423.63,699.23,428.26,699.23,435.05Zm-17.62.23c0,4.86,2.8,8.53,6.75,8.53s6.74-3.62,6.74-8.63c0-3.76-1.88-8.53-6.65-8.53S681.61,431.06,681.61,435.28Z" transform="translate(-115 -148.13)"/><path class="cls-1" d="M708.82,417.89a2.5,2.5,0,0,1-5,0,2.46,2.46,0,0,1,2.52-2.52A2.4,2.4,0,0,1,708.82,417.89Zm-4.5,28.45V424.13h4v22.21Z" transform="translate(-115 -148.13)"/><path class="cls-1" d="M715.05,431.06c0-2.62,0-4.86-.18-6.93h3.53l.14,4.36h.18a6.66,6.66,0,0,1,6.15-4.86,4.37,4.37,0,0,1,1.15.14v3.81a6.06,6.06,0,0,0-1.38-.14c-2.84,0-4.86,2.16-5.42,5.19a11.35,11.35,0,0,0-.18,1.88v11.84h-4Z" transform="translate(-115 -148.13)"/><path class="cls-1" d="M263.28,501.39v-33H266v33ZM284,487.54q.78-.09,1.86-.28a7,7,0,0,0,1.77-.5,1.46,1.46,0,0,0,.85-1.08,6.79,6.79,0,0,0,.16-1.4,4.69,4.69,0,0,0-1.35-3.46q-1.35-1.35-4.56-1.35a12.67,12.67,0,0,0-2.62.25,5.69,5.69,0,0,0-2.09.87,4.81,4.81,0,0,0-1.47,1.65,7,7,0,0,0-.76,2.59H273a8.5,8.5,0,0,1,1-3.6,7.31,7.31,0,0,1,2.13-2.43,8.87,8.87,0,0,1,3-1.38,14.82,14.82,0,0,1,3.65-.44,14.08,14.08,0,0,1,3.37.39,7.83,7.83,0,0,1,2.75,1.24,5.76,5.76,0,0,1,1.84,2.27,8.21,8.21,0,0,1,.67,3.49v12.94q0,1.61.57,2t2.32-.21v2.16l-.94.28a4.29,4.29,0,0,1-1.22.18,5.49,5.49,0,0,1-1.24-.14,2.12,2.12,0,0,1-1.1-.44,2.68,2.68,0,0,1-.67-.83,3.41,3.41,0,0,1-.34-1.06,7.63,7.63,0,0,1-.09-1.22,12,12,0,0,1-4,2.94,11.74,11.74,0,0,1-4.86,1,10.88,10.88,0,0,1-3-.41,7.27,7.27,0,0,1-2.55-1.28,6.37,6.37,0,0,1-1.74-2.13,6.54,6.54,0,0,1-.64-3q0-6.06,8.3-7.16Zm4.63,1.38a13.48,13.48,0,0,1-3.53,1q-1.79.23-3.58.37a10.09,10.09,0,0,0-4.93,1.42,4.08,4.08,0,0,0-1.77,3.62,3.93,3.93,0,0,0,.44,1.9,4,4,0,0,0,1.15,1.33,4.83,4.83,0,0,0,1.65.78,7.31,7.31,0,0,0,1.9.25,12.5,12.5,0,0,0,3.21-.41,8.68,8.68,0,0,0,2.78-1.26,6.44,6.44,0,0,0,1.95-2.16,6.23,6.23,0,0,0,.73-3.1Zm39.55-3.81a8,8,0,0,0-2.52-4.15,6.86,6.86,0,0,0-4.54-1.49,7.15,7.15,0,0,0-3.62.87,7.34,7.34,0,0,0-2.48,2.32,10.43,10.43,0,0,0-1.42,3.26,14.8,14.8,0,0,0-.46,3.65,15.42,15.42,0,0,0,.44,3.67,9.8,9.8,0,0,0,1.4,3.21,7.2,7.2,0,0,0,2.48,2.27,7.39,7.39,0,0,0,3.67.85,7,7,0,0,0,4.93-1.7,7.89,7.89,0,0,0,2.36-4.68h2.94a13.85,13.85,0,0,1-1.17,3.6,9.51,9.51,0,0,1-2.06,2.8,8.88,8.88,0,0,1-3,1.81,12.87,12.87,0,0,1-8.9-.32,9.25,9.25,0,0,1-3.39-2.64,11.1,11.1,0,0,1-2-4,18.12,18.12,0,0,1-.64-4.91,15.78,15.78,0,0,1,.71-4.75,12.38,12.38,0,0,1,2.09-4,10.1,10.1,0,0,1,3.42-2.78,10.28,10.28,0,0,1,4.7-1,10.6,10.6,0,0,1,6.68,2,9.16,9.16,0,0,1,3.19,6.15ZM346.27,502a12.38,12.38,0,0,1-4.29-.83,9.6,9.6,0,0,1-3.49-2.34,11.22,11.22,0,0,1-2.36-3.9,15.6,15.6,0,0,1-.87-5.46,16.77,16.77,0,0,1,.69-4.89,11.54,11.54,0,0,1,2.06-4,9.81,9.81,0,0,1,3.44-2.68,11.06,11.06,0,0,1,4.82-1,11.18,11.18,0,0,1,4.86,1,9.93,9.93,0,0,1,3.44,2.66,11,11,0,0,1,2,4,17.57,17.57,0,0,1,.67,4.91,15.9,15.9,0,0,1-.78,5.14,11.57,11.57,0,0,1-2.23,3.95,9.8,9.8,0,0,1-3.49,2.55A11.14,11.14,0,0,1,346.27,502Zm8.07-12.52a16.26,16.26,0,0,0-.46-3.95,9.36,9.36,0,0,0-1.42-3.19,6.84,6.84,0,0,0-2.48-2.13,8,8,0,0,0-3.72-.78,7.53,7.53,0,0,0-3.69.85,7.23,7.23,0,0,0-2.5,2.25,9.88,9.88,0,0,0-1.42,3.21,15.17,15.17,0,0,0-.46,3.74,14.81,14.81,0,0,0,.53,4.06,9.5,9.5,0,0,0,1.54,3.19,6.89,6.89,0,0,0,2.52,2.06,7.89,7.89,0,0,0,3.49.73,7.53,7.53,0,0,0,3.69-.85,7.14,7.14,0,0,0,2.5-2.27,10.18,10.18,0,0,0,1.42-3.21A14.93,14.93,0,0,0,354.35,489.51Zm10.74,11.88h-2.75V477.63h2.75v3.3a17.48,17.48,0,0,1,3.42-2.84,7.86,7.86,0,0,1,4.24-1.1,10.84,10.84,0,0,1,4.08.76,7,7,0,0,1,3.17,2.64,5.93,5.93,0,0,1,1,2.64,24,24,0,0,1,.16,2.82v15.55h-2.75V485.89a7.08,7.08,0,0,0-1.42-4.82q-1.42-1.61-4.73-1.61a6.71,6.71,0,0,0-2.34.39,7.36,7.36,0,0,0-1.9,1,6.9,6.9,0,0,0-1.45,1.47,6.79,6.79,0,0,0-.92,1.74,8.74,8.74,0,0,0-.5,2.2q-.09,1.06-.09,2.29Zm20-21.47v-2.29h3.62v-3.76a7.77,7.77,0,0,1,1.15-4.5,4.41,4.41,0,0,1,3.9-1.65q.64,0,1.19,0t1.1.14v2.52a6.9,6.9,0,0,0-1.65-.23,3,3,0,0,0-1.65.39,2.29,2.29,0,0,0-.87,1,4.67,4.67,0,0,0-.34,1.45q-.07.8-.07,1.63v2.94H396v2.29h-4.5v21.47h-2.75V479.92Zm19.36-7.48h-3v-4.08h3Zm-2.89,28.95V477.63h2.75v23.76Zm12.07,0h-2.75V477.63h2.75v4.45h.09a8,8,0,0,1,3-4,9,9,0,0,1,4.79-1.12v3a8,8,0,0,0-3.85.73,6.34,6.34,0,0,0-2.41,2.11A8.36,8.36,0,0,0,414,486a20.27,20.27,0,0,0-.34,3.78Zm15.6,0h-2.75V477.63h2.75v3.58h.09a7.25,7.25,0,0,1,3-3.14A8.85,8.85,0,0,1,436.7,477a9.28,9.28,0,0,1,2.8.37,6.33,6.33,0,0,1,1.95,1,5.69,5.69,0,0,1,1.33,1.45,9.84,9.84,0,0,1,.89,1.79,8,8,0,0,1,3.19-3.46,9.14,9.14,0,0,1,4.56-1.12,8,8,0,0,1,3.88.8,5.81,5.81,0,0,1,2.23,2.11,8.15,8.15,0,0,1,1,3,23.76,23.76,0,0,1,.25,3.49v15h-2.75V485a6.7,6.7,0,0,0-1.08-4q-1.08-1.47-4-1.47a6.65,6.65,0,0,0-5.37,2.71,5.31,5.31,0,0,0-.76,1.4,11.66,11.66,0,0,0-.48,1.67,13.66,13.66,0,0,0-.25,1.74q-.07.87-.07,1.61v12.8h-2.75V485a6.7,6.7,0,0,0-1.08-4q-1.08-1.47-4-1.47a6.65,6.65,0,0,0-5.37,2.71,5.31,5.31,0,0,0-.76,1.4,11.66,11.66,0,0,0-.48,1.67,13.66,13.66,0,0,0-.25,1.74q-.07.87-.07,1.61ZM476,487.54q.78-.09,1.86-.28a7,7,0,0,0,1.77-.5,1.46,1.46,0,0,0,.85-1.08,6.79,6.79,0,0,0,.16-1.4,4.69,4.69,0,0,0-1.35-3.46q-1.35-1.35-4.56-1.35a12.67,12.67,0,0,0-2.62.25,5.69,5.69,0,0,0-2.09.87,4.81,4.81,0,0,0-1.47,1.65,7,7,0,0,0-.76,2.59H465a8.5,8.5,0,0,1,1-3.6,7.31,7.31,0,0,1,2.13-2.43,8.87,8.87,0,0,1,3-1.38,14.82,14.82,0,0,1,3.65-.44,14.08,14.08,0,0,1,3.37.39,7.83,7.83,0,0,1,2.75,1.24,5.76,5.76,0,0,1,1.84,2.27,8.21,8.21,0,0,1,.67,3.49v12.94q0,1.61.57,2t2.32-.21v2.16l-.94.28a4.29,4.29,0,0,1-1.22.18,5.49,5.49,0,0,1-1.24-.14,2.12,2.12,0,0,1-1.1-.44,2.68,2.68,0,0,1-.67-.83,3.41,3.41,0,0,1-.34-1.06,7.63,7.63,0,0,1-.09-1.22,12,12,0,0,1-4,2.94,11.74,11.74,0,0,1-4.86,1,10.88,10.88,0,0,1-3-.41,7.27,7.27,0,0,1-2.55-1.28,6.37,6.37,0,0,1-1.74-2.13,6.54,6.54,0,0,1-.64-3q0-6.06,8.3-7.16Zm4.63,1.38a13.48,13.48,0,0,1-3.53,1q-1.79.23-3.58.37a10.09,10.09,0,0,0-4.93,1.42,4.08,4.08,0,0,0-1.77,3.62,3.93,3.93,0,0,0,.44,1.9,4,4,0,0,0,1.15,1.33,4.83,4.83,0,0,0,1.65.78,7.3,7.3,0,0,0,1.9.25,12.5,12.5,0,0,0,3.21-.41,8.68,8.68,0,0,0,2.78-1.26,6.44,6.44,0,0,0,1.95-2.16,6.23,6.23,0,0,0,.73-3.1ZM499,501.49q-.51.09-1.33.32a6.86,6.86,0,0,1-1.84.23,4.37,4.37,0,0,1-3.14-1q-1.08-1-1.08-3.69V479.92h-3.35v-2.29h3.35V471h2.75v6.61h4.45v2.29h-4.45v16.29q0,.87,0,1.51a2.52,2.52,0,0,0,.28,1.06,1.31,1.31,0,0,0,.71.6,3.93,3.93,0,0,0,1.35.18,7.06,7.06,0,0,0,1.12-.09q.57-.09,1.12-.23Zm4.68-29v-4.08h3v4.08Zm.14,28.95V477.63h2.75v23.76ZM523,502a12.38,12.38,0,0,1-4.29-.83,9.6,9.6,0,0,1-3.49-2.34,11.22,11.22,0,0,1-2.36-3.9,15.6,15.6,0,0,1-.87-5.46,16.77,16.77,0,0,1,.69-4.89,11.54,11.54,0,0,1,2.06-4,9.81,9.81,0,0,1,3.44-2.68,11.06,11.06,0,0,1,4.82-1,11.18,11.18,0,0,1,4.86,1,9.93,9.93,0,0,1,3.44,2.66,11,11,0,0,1,2,4,17.57,17.57,0,0,1,.67,4.91,15.9,15.9,0,0,1-.78,5.14A11.57,11.57,0,0,1,531,498.6a9.8,9.8,0,0,1-3.49,2.55A11.14,11.14,0,0,1,523,502Zm8.07-12.52a16.26,16.26,0,0,0-.46-3.95,9.36,9.36,0,0,0-1.42-3.19,6.84,6.84,0,0,0-2.48-2.13,8,8,0,0,0-3.72-.78,7.53,7.53,0,0,0-3.69.85,7.23,7.23,0,0,0-2.5,2.25,9.88,9.88,0,0,0-1.42,3.21,15.17,15.17,0,0,0-.46,3.74,14.81,14.81,0,0,0,.53,4.06,9.5,9.5,0,0,0,1.54,3.19,6.89,6.89,0,0,0,2.52,2.06,7.89,7.89,0,0,0,3.49.73,7.53,7.53,0,0,0,3.69-.85,7.14,7.14,0,0,0,2.5-2.27,10.19,10.19,0,0,0,1.42-3.21A14.93,14.93,0,0,0,531.07,489.51Zm10.74,11.88h-2.75V477.63h2.75v3.3a17.48,17.48,0,0,1,3.42-2.84,7.86,7.86,0,0,1,4.24-1.1,10.84,10.84,0,0,1,4.08.76,7,7,0,0,1,3.17,2.64,5.93,5.93,0,0,1,1,2.64,24,24,0,0,1,.16,2.82v15.55h-2.75V485.89a7.08,7.08,0,0,0-1.42-4.82q-1.42-1.61-4.73-1.61a6.71,6.71,0,0,0-2.34.39,7.36,7.36,0,0,0-1.9,1,6.9,6.9,0,0,0-1.45,1.47,6.79,6.79,0,0,0-.92,1.74,8.75,8.75,0,0,0-.5,2.2q-.09,1.06-.09,2.29Zm38.58,9.36h-2.75V477.63h2.75v4.17h.09a8.07,8.07,0,0,1,1.54-2.06,9,9,0,0,1,2.06-1.51,11.1,11.1,0,0,1,2.32-.92,9,9,0,0,1,2.34-.32,11.33,11.33,0,0,1,4.91,1,9.15,9.15,0,0,1,3.33,2.64,10.77,10.77,0,0,1,1.9,4,19.48,19.48,0,0,1,.6,4.91,17.62,17.62,0,0,1-.64,4.77,11.83,11.83,0,0,1-1.95,4,9.66,9.66,0,0,1-3.3,2.75,10.11,10.11,0,0,1-4.7,1,11,11,0,0,1-4.84-1.12,8.52,8.52,0,0,1-3.65-3.33Zm0-21.15a13.11,13.11,0,0,0,.55,3.83,9.91,9.91,0,0,0,1.58,3.17,7.77,7.77,0,0,0,2.52,2.16,7,7,0,0,0,3.37.8,7.7,7.7,0,0,0,3.69-.85,7.26,7.26,0,0,0,2.59-2.32,10,10,0,0,0,1.47-3.42,15.54,15.54,0,0,0,.37-4.2,11.69,11.69,0,0,0-.62-4,8.46,8.46,0,0,0-1.72-2.91,7.36,7.36,0,0,0-2.57-1.81,8.18,8.18,0,0,0-3.21-.62,7.41,7.41,0,0,0-3.44.78,7.25,7.25,0,0,0-2.52,2.13,9.77,9.77,0,0,0-1.54,3.21A14.64,14.64,0,0,0,580.39,489.6Zm35.88-2.06q.78-.09,1.86-.28a7,7,0,0,0,1.77-.5,1.46,1.46,0,0,0,.85-1.08,6.79,6.79,0,0,0,.16-1.4,4.69,4.69,0,0,0-1.35-3.46q-1.35-1.35-4.56-1.35a12.67,12.67,0,0,0-2.62.25,5.69,5.69,0,0,0-2.09.87,4.81,4.81,0,0,0-1.47,1.65,7,7,0,0,0-.76,2.59h-2.8a8.5,8.5,0,0,1,1-3.6,7.31,7.31,0,0,1,2.13-2.43,8.87,8.87,0,0,1,3-1.38A14.82,14.82,0,0,1,615,477a14.08,14.08,0,0,1,3.37.39,7.83,7.83,0,0,1,2.75,1.24,5.76,5.76,0,0,1,1.84,2.27,8.21,8.21,0,0,1,.67,3.49v12.94q0,1.61.57,2t2.32-.21v2.16l-.94.28a4.29,4.29,0,0,1-1.22.18,5.49,5.49,0,0,1-1.24-.14,2.12,2.12,0,0,1-1.1-.44,2.68,2.68,0,0,1-.67-.83,3.41,3.41,0,0,1-.34-1.06,7.63,7.63,0,0,1-.09-1.22,12,12,0,0,1-4,2.94,11.74,11.74,0,0,1-4.86,1,10.88,10.88,0,0,1-3-.41,7.27,7.27,0,0,1-2.55-1.28,6.37,6.37,0,0,1-1.74-2.13,6.54,6.54,0,0,1-.64-3q0-6.06,8.3-7.16Zm4.63,1.38a13.48,13.48,0,0,1-3.53,1q-1.79.23-3.58.37a10.09,10.09,0,0,0-4.93,1.42,4.08,4.08,0,0,0-1.77,3.62,3.93,3.93,0,0,0,.44,1.9,4,4,0,0,0,1.15,1.33,4.83,4.83,0,0,0,1.65.78,7.3,7.3,0,0,0,1.9.25,12.5,12.5,0,0,0,3.21-.41,8.68,8.68,0,0,0,2.78-1.26,6.44,6.44,0,0,0,1.95-2.16,6.23,6.23,0,0,0,.73-3.1Zm12.85,12.48H631V477.63h2.75v4.45h.09a8,8,0,0,1,3-4,9,9,0,0,1,4.79-1.12v3a8,8,0,0,0-3.85.73,6.34,6.34,0,0,0-2.41,2.11,8.36,8.36,0,0,0-1.24,3.14,20.27,20.27,0,0,0-.34,3.78Zm26.84-11.24a12.88,12.88,0,0,0,.5,3.65,8.79,8.79,0,0,0,1.49,3,7.21,7.21,0,0,0,2.5,2,7.7,7.7,0,0,0,3.49.76,7.58,7.58,0,0,0,4.63-1.42,6.85,6.85,0,0,0,2.57-4h3.07a14.84,14.84,0,0,1-1.33,3.14,9.69,9.69,0,0,1-2.06,2.52,8.91,8.91,0,0,1-2.94,1.67,11.91,11.91,0,0,1-3.95.6,11.52,11.52,0,0,1-4.91-1,9.25,9.25,0,0,1-3.39-2.64,11.12,11.12,0,0,1-2-3.95,17.87,17.87,0,0,1-.64-4.89,15.57,15.57,0,0,1,.76-4.91,12.49,12.49,0,0,1,2.16-4A10,10,0,0,1,664,478a10.32,10.32,0,0,1,4.59-1,9.48,9.48,0,0,1,7.71,3.37q2.8,3.37,2.75,9.79Zm15.51-2.29a10.91,10.91,0,0,0-.48-3.28,7.68,7.68,0,0,0-1.42-2.66,6.78,6.78,0,0,0-2.36-1.79,7.61,7.61,0,0,0-3.26-.67,7.24,7.24,0,0,0-3.23.69,7.44,7.44,0,0,0-2.39,1.84,9.21,9.21,0,0,0-1.58,2.66,12.32,12.32,0,0,0-.78,3.21Zm10.69,13.53H684V477.63h2.75v3.58h.09a7.25,7.25,0,0,1,3-3.14,8.85,8.85,0,0,1,4.31-1.08,9.28,9.28,0,0,1,2.8.37,6.33,6.33,0,0,1,1.95,1,5.69,5.69,0,0,1,1.33,1.45,9.84,9.84,0,0,1,.89,1.79,8,8,0,0,1,3.19-3.46,9.14,9.14,0,0,1,4.56-1.12,8,8,0,0,1,3.88.8A5.81,5.81,0,0,1,715,479.9a8.15,8.15,0,0,1,1,3,23.76,23.76,0,0,1,.25,3.49v15h-2.75V485a6.7,6.7,0,0,0-1.08-4q-1.08-1.47-4-1.47a6.65,6.65,0,0,0-5.37,2.71,5.31,5.31,0,0,0-.76,1.4,11.66,11.66,0,0,0-.48,1.67,13.66,13.66,0,0,0-.25,1.74q-.07.87-.07,1.61v12.8H698.8V485a6.7,6.7,0,0,0-1.08-4q-1.08-1.47-4-1.47a6.65,6.65,0,0,0-5.37,2.71,5.31,5.31,0,0,0-.76,1.4,11.66,11.66,0,0,0-.48,1.67,13.66,13.66,0,0,0-.25,1.74q-.07.87-.07,1.61Zm46.75-13.86q.78-.09,1.86-.28a7,7,0,0,0,1.77-.5,1.46,1.46,0,0,0,.85-1.08,6.79,6.79,0,0,0,.16-1.4,4.69,4.69,0,0,0-1.35-3.46q-1.35-1.35-4.56-1.35a12.67,12.67,0,0,0-2.62.25,5.69,5.69,0,0,0-2.09.87,4.81,4.81,0,0,0-1.47,1.65,7,7,0,0,0-.76,2.59h-2.8a8.5,8.5,0,0,1,1-3.6,7.31,7.31,0,0,1,2.13-2.43,8.87,8.87,0,0,1,3-1.38,14.82,14.82,0,0,1,3.65-.44,14.08,14.08,0,0,1,3.37.39,7.83,7.83,0,0,1,2.75,1.24,5.76,5.76,0,0,1,1.84,2.27,8.21,8.21,0,0,1,.67,3.49v12.94q0,1.61.57,2t2.32-.21v2.16l-.94.28a4.29,4.29,0,0,1-1.22.18,5.49,5.49,0,0,1-1.24-.14,2.12,2.12,0,0,1-1.1-.44,2.68,2.68,0,0,1-.67-.83,3.41,3.41,0,0,1-.34-1.06,7.63,7.63,0,0,1-.09-1.22,12,12,0,0,1-4,2.94,11.74,11.74,0,0,1-4.86,1,10.88,10.88,0,0,1-3-.41,7.27,7.27,0,0,1-2.55-1.28,6.37,6.37,0,0,1-1.74-2.13,6.54,6.54,0,0,1-.64-3q0-6.06,8.3-7.16Zm4.63,1.38a13.48,13.48,0,0,1-3.53,1q-1.79.23-3.58.37a10.09,10.09,0,0,0-4.93,1.42,4.08,4.08,0,0,0-1.77,3.62,3.93,3.93,0,0,0,.44,1.9,4,4,0,0,0,1.15,1.33,4.83,4.83,0,0,0,1.65.78,7.3,7.3,0,0,0,1.9.25,12.5,12.5,0,0,0,3.21-.41,8.68,8.68,0,0,0,2.78-1.26,6.44,6.44,0,0,0,1.95-2.16,6.23,6.23,0,0,0,.73-3.1Zm10.23-16.47v-4.08h3v4.08Zm.14,28.95V477.63h2.75v23.76Zm10.18,0v-33h2.75v33Z" transform="translate(-115 -148.13)"/><path class="cls-1" d="M190.45,542.59q.78-.09,1.86-.28a7,7,0,0,0,1.77-.5,1.46,1.46,0,0,0,.85-1.08,6.79,6.79,0,0,0,.16-1.4,4.69,4.69,0,0,0-1.35-3.46q-1.35-1.35-4.56-1.35a12.68,12.68,0,0,0-2.62.25,5.69,5.69,0,0,0-2.09.87,4.81,4.81,0,0,0-1.47,1.65,7,7,0,0,0-.76,2.59h-2.8a8.5,8.5,0,0,1,1-3.6,7.31,7.31,0,0,1,2.13-2.43,8.87,8.87,0,0,1,3-1.38,14.82,14.82,0,0,1,3.65-.44,14.08,14.08,0,0,1,3.37.39,7.83,7.83,0,0,1,2.75,1.24,5.76,5.76,0,0,1,1.84,2.27,8.21,8.21,0,0,1,.67,3.49v12.94q0,1.61.57,2t2.32-.21v2.16l-.94.28a4.29,4.29,0,0,1-1.22.18,5.49,5.49,0,0,1-1.24-.14,2.12,2.12,0,0,1-1.1-.44,2.68,2.68,0,0,1-.67-.83,3.41,3.41,0,0,1-.34-1.06,7.63,7.63,0,0,1-.09-1.22,12,12,0,0,1-4,2.94,11.74,11.74,0,0,1-4.86,1,10.88,10.88,0,0,1-3-.41,7.27,7.27,0,0,1-2.55-1.28,6.37,6.37,0,0,1-1.74-2.13,6.54,6.54,0,0,1-.64-3q0-6.06,8.3-7.16Zm4.63,1.38a13.48,13.48,0,0,1-3.53,1q-1.79.23-3.58.37a10.09,10.09,0,0,0-4.93,1.42,4.08,4.08,0,0,0-1.77,3.62,3.93,3.93,0,0,0,.44,1.9,4,4,0,0,0,1.15,1.33,4.83,4.83,0,0,0,1.65.78,7.31,7.31,0,0,0,1.9.25,12.5,12.5,0,0,0,3.21-.41,8.68,8.68,0,0,0,2.78-1.26,6.44,6.44,0,0,0,1.95-2.16,6.23,6.23,0,0,0,.73-3.1Zm7.25-9v-2.29H206v-3.76a7.77,7.77,0,0,1,1.15-4.5,4.41,4.41,0,0,1,3.9-1.65q.64,0,1.19,0t1.1.14v2.52a6.9,6.9,0,0,0-1.65-.23,3,3,0,0,0-1.65.39,2.29,2.29,0,0,0-.87,1,4.67,4.67,0,0,0-.34,1.45q-.07.8-.07,1.63v2.94h4.5V535h-4.5v21.47H206V535Zm19.36-7.48h-3v-4.08h3Zm-2.89,28.95V532.68h2.75v23.76Zm11.93,0H228V532.68h2.75V536a17.48,17.48,0,0,1,3.42-2.84,7.86,7.86,0,0,1,4.24-1.1,10.84,10.84,0,0,1,4.08.76,7,7,0,0,1,3.17,2.64,5.93,5.93,0,0,1,1,2.64,24,24,0,0,1,.16,2.82v15.55h-2.75V540.94a7.08,7.08,0,0,0-1.42-4.82q-1.42-1.61-4.73-1.61a6.71,6.71,0,0,0-2.34.39,7.36,7.36,0,0,0-1.9,1,6.9,6.9,0,0,0-1.45,1.47,6.79,6.79,0,0,0-.92,1.74,8.74,8.74,0,0,0-.5,2.2q-.09,1.06-.09,2.29Zm53.86-33h2.75v33h-2.75v-4.17h-.09a7.47,7.47,0,0,1-1.54,2.09,9.33,9.33,0,0,1-2.06,1.49,11.09,11.09,0,0,1-2.32.92,9,9,0,0,1-2.34.32,11.33,11.33,0,0,1-4.91-1,9.13,9.13,0,0,1-3.33-2.64,10.75,10.75,0,0,1-1.9-4,19.44,19.44,0,0,1-.6-4.91,17.6,17.6,0,0,1,.64-4.77,11.83,11.83,0,0,1,1.95-4,9.66,9.66,0,0,1,3.3-2.75,10.11,10.11,0,0,1,4.7-1,11,11,0,0,1,4.84,1.12,8.53,8.53,0,0,1,3.65,3.33Zm0,21.06a13.11,13.11,0,0,0-.55-3.83,9.92,9.92,0,0,0-1.58-3.17,7.79,7.79,0,0,0-2.52-2.16,7,7,0,0,0-3.37-.8,7.67,7.67,0,0,0-3.72.85,7.33,7.33,0,0,0-2.57,2.32,10,10,0,0,0-1.47,3.42,15.49,15.49,0,0,0-.37,4.2,11.69,11.69,0,0,0,.62,4,8.45,8.45,0,0,0,1.72,2.91,7.34,7.34,0,0,0,2.57,1.81,8.18,8.18,0,0,0,3.21.62,7.4,7.4,0,0,0,3.44-.78,7.24,7.24,0,0,0,2.52-2.13,9.79,9.79,0,0,0,1.54-3.21A14.66,14.66,0,0,0,284.59,544.47Zm11.38.73a12.88,12.88,0,0,0,.5,3.65,8.79,8.79,0,0,0,1.49,3,7.21,7.21,0,0,0,2.5,2,7.7,7.7,0,0,0,3.49.76,7.58,7.58,0,0,0,4.63-1.42,6.85,6.85,0,0,0,2.57-4h3.07a14.84,14.84,0,0,1-1.33,3.14,9.69,9.69,0,0,1-2.06,2.52,8.91,8.91,0,0,1-2.94,1.67,11.91,11.91,0,0,1-3.95.6,11.52,11.52,0,0,1-4.91-1,9.25,9.25,0,0,1-3.39-2.64,11.12,11.12,0,0,1-2-3.95,17.87,17.87,0,0,1-.64-4.89,15.57,15.57,0,0,1,.76-4.91,12.49,12.49,0,0,1,2.16-4,10,10,0,0,1,3.42-2.71,10.32,10.32,0,0,1,4.59-1,9.48,9.48,0,0,1,7.71,3.37q2.8,3.37,2.75,9.79Zm15.51-2.29a10.91,10.91,0,0,0-.48-3.28,7.68,7.68,0,0,0-1.42-2.66,6.78,6.78,0,0,0-2.36-1.79,7.61,7.61,0,0,0-3.26-.67,7.24,7.24,0,0,0-3.23.69,7.44,7.44,0,0,0-2.39,1.84,9.21,9.21,0,0,0-1.58,2.66,12.31,12.31,0,0,0-.78,3.21Zm24.13,22.89h-2.75V532.68h2.75v4.17h.09a8.07,8.07,0,0,1,1.54-2.06,9,9,0,0,1,2.06-1.51,11.1,11.1,0,0,1,2.32-.92A9,9,0,0,1,344,532a11.33,11.33,0,0,1,4.91,1,9.15,9.15,0,0,1,3.33,2.64,10.77,10.77,0,0,1,1.9,4,19.47,19.47,0,0,1,.6,4.91,17.62,17.62,0,0,1-.64,4.77,11.83,11.83,0,0,1-1.95,4,9.66,9.66,0,0,1-3.3,2.75,10.11,10.11,0,0,1-4.7,1,11,11,0,0,1-4.84-1.12,8.52,8.52,0,0,1-3.65-3.33Zm0-21.15a13.1,13.1,0,0,0,.55,3.83,9.91,9.91,0,0,0,1.58,3.17,7.77,7.77,0,0,0,2.52,2.16,7,7,0,0,0,3.37.8,7.7,7.7,0,0,0,3.69-.85,7.26,7.26,0,0,0,2.59-2.32,10,10,0,0,0,1.47-3.42,15.54,15.54,0,0,0,.37-4.2,11.69,11.69,0,0,0-.62-4,8.46,8.46,0,0,0-1.72-2.91,7.36,7.36,0,0,0-2.57-1.81,8.18,8.18,0,0,0-3.21-.62,7.41,7.41,0,0,0-3.44.78,7.25,7.25,0,0,0-2.52,2.13,9.77,9.77,0,0,0-1.54,3.21A14.64,14.64,0,0,0,335.6,544.66ZM361,556.45v-33h2.75v33Zm20.69-13.86q.78-.09,1.86-.28a7,7,0,0,0,1.77-.5,1.46,1.46,0,0,0,.85-1.08,6.79,6.79,0,0,0,.16-1.4,4.69,4.69,0,0,0-1.35-3.46q-1.35-1.35-4.56-1.35a12.68,12.68,0,0,0-2.62.25,5.69,5.69,0,0,0-2.09.87,4.81,4.81,0,0,0-1.47,1.65,7,7,0,0,0-.76,2.59h-2.8a8.5,8.5,0,0,1,1-3.6,7.31,7.31,0,0,1,2.13-2.43,8.87,8.87,0,0,1,3-1.38,14.82,14.82,0,0,1,3.65-.44,14.08,14.08,0,0,1,3.37.39,7.83,7.83,0,0,1,2.75,1.24,5.76,5.76,0,0,1,1.84,2.27,8.21,8.21,0,0,1,.67,3.49v12.94q0,1.61.57,2t2.32-.21v2.16l-.94.28a4.29,4.29,0,0,1-1.22.18,5.49,5.49,0,0,1-1.24-.14,2.12,2.12,0,0,1-1.1-.44,2.68,2.68,0,0,1-.67-.83,3.41,3.41,0,0,1-.34-1.06,7.63,7.63,0,0,1-.09-1.22,12,12,0,0,1-4,2.94,11.74,11.74,0,0,1-4.86,1,10.88,10.88,0,0,1-3-.41,7.27,7.27,0,0,1-2.55-1.28,6.37,6.37,0,0,1-1.74-2.13,6.54,6.54,0,0,1-.64-3q0-6.06,8.3-7.16ZM386.3,544a13.48,13.48,0,0,1-3.53,1q-1.79.23-3.58.37a10.09,10.09,0,0,0-4.93,1.42,4.08,4.08,0,0,0-1.77,3.62,3.93,3.93,0,0,0,.44,1.9,4,4,0,0,0,1.15,1.33,4.83,4.83,0,0,0,1.65.78,7.31,7.31,0,0,0,1.9.25,12.5,12.5,0,0,0,3.21-.41,8.68,8.68,0,0,0,2.78-1.26,6.44,6.44,0,0,0,1.95-2.16,6.23,6.23,0,0,0,.73-3.1ZM399,556.45h-2.75V532.68H399V536a17.48,17.48,0,0,1,3.42-2.84,7.86,7.86,0,0,1,4.24-1.1,10.84,10.84,0,0,1,4.08.76,7,7,0,0,1,3.17,2.64,5.93,5.93,0,0,1,1,2.64,24,24,0,0,1,.16,2.82v15.55h-2.75V540.94a7.08,7.08,0,0,0-1.42-4.82q-1.42-1.61-4.73-1.61a6.71,6.71,0,0,0-2.34.39,7.36,7.36,0,0,0-1.9,1,6.9,6.9,0,0,0-1.45,1.47,6.79,6.79,0,0,0-.92,1.74,8.74,8.74,0,0,0-.5,2.2q-.09,1.06-.09,2.29Zm25.51,0h-2.75V532.68h2.75V536a17.48,17.48,0,0,1,3.42-2.84,7.86,7.86,0,0,1,4.24-1.1,10.84,10.84,0,0,1,4.08.76,7,7,0,0,1,3.17,2.64,5.93,5.93,0,0,1,1,2.64,24,24,0,0,1,.16,2.82v15.55h-2.75V540.94a7.08,7.08,0,0,0-1.42-4.82q-1.42-1.61-4.73-1.61a6.71,6.71,0,0,0-2.34.39,7.36,7.36,0,0,0-1.9,1,6.9,6.9,0,0,0-1.45,1.47,6.79,6.79,0,0,0-.92,1.74,8.74,8.74,0,0,0-.5,2.2q-.09,1.06-.09,2.29Zm23-28.95v-4.08h3v4.08Zm.14,28.95V532.68h2.75v23.76ZM454.75,535v-2.29h3.62v-3.76a7.77,7.77,0,0,1,1.15-4.5,4.41,4.41,0,0,1,3.9-1.65q.64,0,1.19,0t1.1.14v2.52a6.9,6.9,0,0,0-1.65-.23,3,3,0,0,0-1.65.39,2.29,2.29,0,0,0-.87,1,4.67,4.67,0,0,0-.34,1.45q-.07.8-.07,1.63v2.94h4.5V535h-4.5v21.47h-2.75V535Zm19.36-7.48h-3v-4.08h3Zm-2.89,28.95V532.68H474v23.76Zm10.87-11.24a12.88,12.88,0,0,0,.5,3.65,8.79,8.79,0,0,0,1.49,3,7.21,7.21,0,0,0,2.5,2,7.7,7.7,0,0,0,3.49.76,7.58,7.58,0,0,0,4.63-1.42,6.85,6.85,0,0,0,2.57-4h3.07A14.84,14.84,0,0,1,499,552.3a9.69,9.69,0,0,1-2.06,2.52,8.91,8.91,0,0,1-2.94,1.67,11.91,11.91,0,0,1-3.95.6,11.52,11.52,0,0,1-4.91-1,9.25,9.25,0,0,1-3.39-2.64,11.12,11.12,0,0,1-2-3.95,17.87,17.87,0,0,1-.64-4.89,15.57,15.57,0,0,1,.76-4.91,12.49,12.49,0,0,1,2.16-4,10,10,0,0,1,3.42-2.71,10.32,10.32,0,0,1,4.59-1,9.48,9.48,0,0,1,7.71,3.37q2.8,3.37,2.75,9.79Zm15.51-2.29a10.91,10.91,0,0,0-.48-3.28A7.68,7.68,0,0,0,495.7,537a6.78,6.78,0,0,0-2.36-1.79,7.61,7.61,0,0,0-3.26-.67,7.24,7.24,0,0,0-3.23.69,7.44,7.44,0,0,0-2.39,1.84,9.21,9.21,0,0,0-1.58,2.66,12.32,12.32,0,0,0-.78,3.21Zm11.19,13.53H506V532.68h2.75v4.45h.09a8,8,0,0,1,3-4,9,9,0,0,1,4.79-1.12v3a8,8,0,0,0-3.85.73,6.34,6.34,0,0,0-2.41,2.11,8.36,8.36,0,0,0-1.24,3.14,20.27,20.27,0,0,0-.34,3.78ZM550,532.68h2.75v23.76H550v-3.3q-.55.64-1.24,1.33a9.39,9.39,0,0,1-1.58,1.26,9.05,9.05,0,0,1-2.09,1,8.88,8.88,0,0,1-2.75.39,10.47,10.47,0,0,1-4-.67,6.52,6.52,0,0,1-2.59-1.86,7.35,7.35,0,0,1-1.42-2.78,13,13,0,0,1-.44-3.46V532.68h2.75v15.6a6.94,6.94,0,0,0,1.42,4.7q1.42,1.63,4.68,1.63a6.82,6.82,0,0,0,3.05-.67,6.37,6.37,0,0,0,2.27-1.86,8.87,8.87,0,0,0,1.42-2.84,12.37,12.37,0,0,0,.5-3.62Zm12.16,23.76h-2.75V532.68h2.75V536a17.48,17.48,0,0,1,3.42-2.84,7.86,7.86,0,0,1,4.24-1.1,10.84,10.84,0,0,1,4.08.76,7,7,0,0,1,3.17,2.64,5.93,5.93,0,0,1,1,2.64,24,24,0,0,1,.16,2.82v15.55h-2.75V540.94a7.08,7.08,0,0,0-1.42-4.82q-1.42-1.61-4.73-1.61a6.71,6.71,0,0,0-2.34.39,7.36,7.36,0,0,0-1.9,1,6.9,6.9,0,0,0-1.45,1.47,6.79,6.79,0,0,0-.92,1.74,8.75,8.75,0,0,0-.5,2.2q-.09,1.06-.09,2.29Zm38.4,0h-2.75V532.68h2.75v4.45h.09a8,8,0,0,1,3-4,9,9,0,0,1,4.79-1.12v3a8,8,0,0,0-3.85.73,6.34,6.34,0,0,0-2.41,2.11,8.36,8.36,0,0,0-1.24,3.14,20.27,20.27,0,0,0-.34,3.78Zm13.26-11.24a12.88,12.88,0,0,0,.5,3.65,8.79,8.79,0,0,0,1.49,3,7.21,7.21,0,0,0,2.5,2,7.7,7.7,0,0,0,3.49.76,7.58,7.58,0,0,0,4.63-1.42,6.85,6.85,0,0,0,2.57-4h3.07a14.84,14.84,0,0,1-1.33,3.14,9.69,9.69,0,0,1-2.06,2.52,8.91,8.91,0,0,1-2.94,1.67,11.91,11.91,0,0,1-3.95.6,11.52,11.52,0,0,1-4.91-1,9.25,9.25,0,0,1-3.39-2.64,11.12,11.12,0,0,1-2-3.95,17.87,17.87,0,0,1-.64-4.89,15.57,15.57,0,0,1,.76-4.91,12.49,12.49,0,0,1,2.16-4,10,10,0,0,1,3.42-2.71,10.32,10.32,0,0,1,4.59-1,9.48,9.48,0,0,1,7.71,3.37q2.8,3.37,2.75,9.79Zm15.51-2.29a10.91,10.91,0,0,0-.48-3.28,7.68,7.68,0,0,0-1.42-2.66,6.78,6.78,0,0,0-2.36-1.79,7.61,7.61,0,0,0-3.26-.67,7.24,7.24,0,0,0-3.23.69,7.44,7.44,0,0,0-2.39,1.84,9.21,9.21,0,0,0-1.58,2.66,12.32,12.32,0,0,0-.78,3.21Zm11.06,13.53h-2.75V532.68h2.75V536a17.48,17.48,0,0,1,3.42-2.84,7.86,7.86,0,0,1,4.24-1.1,10.84,10.84,0,0,1,4.08.76,7,7,0,0,1,3.17,2.64,5.93,5.93,0,0,1,1,2.64,24,24,0,0,1,.16,2.82v15.55h-2.75V540.94a7.08,7.08,0,0,0-1.42-4.82q-1.42-1.61-4.73-1.61a6.71,6.71,0,0,0-2.34.39,7.36,7.36,0,0,0-1.9,1,6.9,6.9,0,0,0-1.45,1.47,6.79,6.79,0,0,0-.92,1.74,8.75,8.75,0,0,0-.5,2.2q-.09,1.06-.09,2.29Zm41.11-33h2.75v33h-2.75v-4.17h-.09a7.47,7.47,0,0,1-1.54,2.09,9.33,9.33,0,0,1-2.06,1.49,11.09,11.09,0,0,1-2.32.92,9,9,0,0,1-2.34.32,11.33,11.33,0,0,1-4.91-1,9.13,9.13,0,0,1-3.33-2.64,10.75,10.75,0,0,1-1.9-4,19.44,19.44,0,0,1-.6-4.91,17.6,17.6,0,0,1,.64-4.77,11.83,11.83,0,0,1,1.95-4,9.66,9.66,0,0,1,3.3-2.75,10.11,10.11,0,0,1,4.7-1,11,11,0,0,1,4.84,1.12,8.53,8.53,0,0,1,3.65,3.33Zm0,21.06a13.11,13.11,0,0,0-.55-3.83,9.92,9.92,0,0,0-1.58-3.17,7.79,7.79,0,0,0-2.52-2.16,7,7,0,0,0-3.37-.8,7.67,7.67,0,0,0-3.72.85,7.33,7.33,0,0,0-2.57,2.32,10,10,0,0,0-1.47,3.42,15.49,15.49,0,0,0-.37,4.2,11.69,11.69,0,0,0,.62,4,8.45,8.45,0,0,0,1.72,2.91,7.34,7.34,0,0,0,2.57,1.81,8.18,8.18,0,0,0,3.21.62,7.4,7.4,0,0,0,3.44-.78,7.24,7.24,0,0,0,2.52-2.13,9.79,9.79,0,0,0,1.54-3.21A14.66,14.66,0,0,0,681.52,544.47Zm11.38.73a12.88,12.88,0,0,0,.5,3.65,8.79,8.79,0,0,0,1.49,3,7.21,7.21,0,0,0,2.5,2,7.7,7.7,0,0,0,3.49.76,7.58,7.58,0,0,0,4.63-1.42,6.85,6.85,0,0,0,2.57-4h3.07a14.84,14.84,0,0,1-1.33,3.14,9.69,9.69,0,0,1-2.06,2.52,8.91,8.91,0,0,1-2.94,1.67,11.91,11.91,0,0,1-3.95.6,11.52,11.52,0,0,1-4.91-1,9.25,9.25,0,0,1-3.39-2.64,11.12,11.12,0,0,1-2-3.95,17.87,17.87,0,0,1-.64-4.89,15.57,15.57,0,0,1,.76-4.91,12.49,12.49,0,0,1,2.16-4A10,10,0,0,1,696.3,533a10.32,10.32,0,0,1,4.59-1,9.48,9.48,0,0,1,7.71,3.37q2.8,3.37,2.75,9.79Zm15.51-2.29a10.91,10.91,0,0,0-.48-3.28A7.68,7.68,0,0,0,706.5,537a6.78,6.78,0,0,0-2.36-1.79,7.61,7.61,0,0,0-3.26-.67,7.24,7.24,0,0,0-3.23.69,7.44,7.44,0,0,0-2.39,1.84,9.21,9.21,0,0,0-1.58,2.66,12.32,12.32,0,0,0-.78,3.21Zm6.51,13.53V554l15.78-19H716v-2.29h18.26v2.43l-15.78,19h16.38v2.29Zm34.87-13.35v2.84H738.18V543.1Zm2.61-10.41h3l7.71,20.37,7.71-20.37h3l-9.22,23.76h-3.07Zm34.91,24.41a12.38,12.38,0,0,1-4.29-.83,9.6,9.6,0,0,1-3.49-2.34,11.22,11.22,0,0,1-2.36-3.9,15.6,15.6,0,0,1-.87-5.46,16.77,16.77,0,0,1,.69-4.89,11.54,11.54,0,0,1,2.06-4A9.81,9.81,0,0,1,782.5,533a11.06,11.06,0,0,1,4.82-1,11.18,11.18,0,0,1,4.86,1,9.93,9.93,0,0,1,3.44,2.66,11,11,0,0,1,2,4,17.57,17.57,0,0,1,.67,4.91,15.9,15.9,0,0,1-.78,5.14,11.57,11.57,0,0,1-2.23,3.95,9.8,9.8,0,0,1-3.49,2.55A11.14,11.14,0,0,1,787.32,557.09Zm8.07-12.52a16.26,16.26,0,0,0-.46-3.95,9.36,9.36,0,0,0-1.42-3.19A6.84,6.84,0,0,0,791,535.3a8,8,0,0,0-3.72-.78,7.53,7.53,0,0,0-3.69.85,7.23,7.23,0,0,0-2.5,2.25,9.88,9.88,0,0,0-1.42,3.21,15.17,15.17,0,0,0-.46,3.74,14.81,14.81,0,0,0,.53,4.06,9.5,9.5,0,0,0,1.54,3.19,6.89,6.89,0,0,0,2.52,2.06,7.89,7.89,0,0,0,3.49.73,7.53,7.53,0,0,0,3.69-.85,7.14,7.14,0,0,0,2.5-2.27,10.19,10.19,0,0,0,1.42-3.21A14.93,14.93,0,0,0,795.39,544.57Zm24.09-11.88h2.75v23.76h-2.75v-3.3q-.55.64-1.24,1.33a9.39,9.39,0,0,1-1.58,1.26,9.05,9.05,0,0,1-2.09,1,8.88,8.88,0,0,1-2.75.39,10.47,10.47,0,0,1-4-.67,6.52,6.52,0,0,1-2.59-1.86,7.35,7.35,0,0,1-1.42-2.78,13,13,0,0,1-.44-3.46V532.68h2.75v15.6a6.94,6.94,0,0,0,1.42,4.7q1.42,1.63,4.68,1.63a6.82,6.82,0,0,0,3.05-.67,6.37,6.37,0,0,0,2.27-1.86,8.87,8.87,0,0,0,1.42-2.84,12.37,12.37,0,0,0,.5-3.62Zm11,16.33a7,7,0,0,0,2.32,4.34,7.85,7.85,0,0,0,4.79,1.26,8.29,8.29,0,0,0,2.62-.37,5.25,5.25,0,0,0,1.81-1,4.26,4.26,0,0,0,1.08-1.4,3.83,3.83,0,0,0,.37-1.65,3,3,0,0,0-1.12-2.59,8.5,8.5,0,0,0-2.82-1.33,36.36,36.36,0,0,0-3.67-.83,17.94,17.94,0,0,1-3.67-1,7.34,7.34,0,0,1-2.82-2,5.33,5.33,0,0,1-1.12-3.62,6.19,6.19,0,0,1,2.18-4.89,9.09,9.09,0,0,1,6.17-1.9,10.53,10.53,0,0,1,6.26,1.72q2.41,1.72,2.91,5.76H843a5.15,5.15,0,0,0-2.09-3.88,7.78,7.78,0,0,0-4.34-1.12,6.18,6.18,0,0,0-4,1.12,3.63,3.63,0,0,0-1.38,3,2.89,2.89,0,0,0,1.12,2.45,9.13,9.13,0,0,0,2.82,1.38q1.7.53,3.67.94a18.09,18.09,0,0,1,3.67,1.17,8,8,0,0,1,2.82,2,5.26,5.26,0,0,1,1.12,3.58,6,6,0,0,1-.73,3,6.39,6.39,0,0,1-2,2.18,9.39,9.39,0,0,1-3.05,1.31,16.19,16.19,0,0,1-3.88.44,10.47,10.47,0,0,1-3.74-.62,8.11,8.11,0,0,1-2.78-1.72,7.92,7.92,0,0,1-1.79-2.57,9,9,0,0,1-.73-3.17Z" transform="translate(-115 -148.13)"/><path class="cls-1" d="M134.09,578.47h2.75v33h-2.75v-4.17H134a7.47,7.47,0,0,1-1.54,2.09,9.33,9.33,0,0,1-2.06,1.49,11.09,11.09,0,0,1-2.32.92,9,9,0,0,1-2.34.32,11.33,11.33,0,0,1-4.91-1,9.13,9.13,0,0,1-3.33-2.64,10.75,10.75,0,0,1-1.9-4,19.44,19.44,0,0,1-.6-4.91,17.6,17.6,0,0,1,.64-4.77,11.83,11.83,0,0,1,1.95-4,9.66,9.66,0,0,1,3.3-2.75,10.11,10.11,0,0,1,4.7-1,11,11,0,0,1,4.84,1.12,8.53,8.53,0,0,1,3.65,3.33Zm0,21.06a13.11,13.11,0,0,0-.55-3.83,9.92,9.92,0,0,0-1.58-3.17,7.79,7.79,0,0,0-2.52-2.16,7,7,0,0,0-3.37-.8,7.67,7.67,0,0,0-3.72.85,7.33,7.33,0,0,0-2.57,2.32,10,10,0,0,0-1.47,3.42,15.49,15.49,0,0,0-.37,4.2,11.69,11.69,0,0,0,.62,4,8.45,8.45,0,0,0,1.72,2.91,7.34,7.34,0,0,0,2.57,1.81,8.18,8.18,0,0,0,3.21.62,7.4,7.4,0,0,0,3.44-.78,7.24,7.24,0,0,0,2.52-2.13,9.8,9.8,0,0,0,1.54-3.21A14.66,14.66,0,0,0,134.09,599.53Zm13.4-15.64a5.15,5.15,0,0,1-.94,3.23,4.78,4.78,0,0,1-2.41,1.67v-1.7a4.63,4.63,0,0,0,1.06-1,3.27,3.27,0,0,0,.5-2v-1.56h-1.56v-4h3.35Zm6.74-1.33v-4.08h3v4.08Zm.14,28.95V587.74h2.75V611.5Zm12.52,0h-2.75V587.74h2.75V591a17.48,17.48,0,0,1,3.42-2.84,7.86,7.86,0,0,1,4.24-1.1,10.84,10.84,0,0,1,4.08.76,7,7,0,0,1,3.17,2.64,5.93,5.93,0,0,1,1,2.64,24,24,0,0,1,.16,2.82V611.5h-2.75V596a7.08,7.08,0,0,0-1.42-4.82q-1.42-1.61-4.73-1.61a6.71,6.71,0,0,0-2.34.39,7.36,7.36,0,0,0-1.9,1,6.9,6.9,0,0,0-1.45,1.47,6.79,6.79,0,0,0-.92,1.74,8.74,8.74,0,0,0-.5,2.2q-.09,1.06-.09,2.29Zm24.36-7.43a7,7,0,0,0,2.32,4.34,7.85,7.85,0,0,0,4.79,1.26,8.29,8.29,0,0,0,2.62-.37,5.25,5.25,0,0,0,1.81-1,4.26,4.26,0,0,0,1.08-1.4,3.83,3.83,0,0,0,.37-1.65,3,3,0,0,0-1.12-2.59,8.5,8.5,0,0,0-2.82-1.33,36.39,36.39,0,0,0-3.67-.83,17.94,17.94,0,0,1-3.67-1,7.34,7.34,0,0,1-2.82-2,5.33,5.33,0,0,1-1.12-3.62,6.19,6.19,0,0,1,2.18-4.89,9.09,9.09,0,0,1,6.17-1.9,10.53,10.53,0,0,1,6.26,1.72q2.41,1.72,2.91,5.76h-2.8a5.15,5.15,0,0,0-2.09-3.88,7.78,7.78,0,0,0-4.34-1.12,6.18,6.18,0,0,0-4,1.12,3.63,3.63,0,0,0-1.38,3,2.89,2.89,0,0,0,1.12,2.45,9.13,9.13,0,0,0,2.82,1.38q1.7.53,3.67.94a18.09,18.09,0,0,1,3.67,1.17,8,8,0,0,1,2.82,2,5.26,5.26,0,0,1,1.12,3.58,6,6,0,0,1-.73,3,6.39,6.39,0,0,1-2,2.18,9.39,9.39,0,0,1-3.05,1.31,16.19,16.19,0,0,1-3.88.44,10.47,10.47,0,0,1-3.74-.62A8.11,8.11,0,0,1,191,609.8a7.92,7.92,0,0,1-1.79-2.57,9,9,0,0,1-.73-3.17Zm29.68,7.52q-.51.09-1.33.32a6.86,6.86,0,0,1-1.84.23,4.37,4.37,0,0,1-3.14-1q-1.08-1-1.08-3.69V590H210.2v-2.29h3.35v-6.61h2.75v6.61h4.45V590H216.3v16.29q0,.87,0,1.51a2.52,2.52,0,0,0,.28,1.06,1.31,1.31,0,0,0,.71.6,3.93,3.93,0,0,0,1.35.18,7.05,7.05,0,0,0,1.12-.09q.57-.09,1.12-.23Zm15.32-13.95q.78-.09,1.86-.28a7,7,0,0,0,1.77-.5,1.46,1.46,0,0,0,.85-1.08,6.79,6.79,0,0,0,.16-1.4,4.69,4.69,0,0,0-1.35-3.46q-1.35-1.35-4.56-1.35a12.68,12.68,0,0,0-2.62.25,5.69,5.69,0,0,0-2.09.87,4.81,4.81,0,0,0-1.47,1.65,7,7,0,0,0-.76,2.59h-2.8a8.5,8.5,0,0,1,1-3.6,7.31,7.31,0,0,1,2.13-2.43,8.87,8.87,0,0,1,3-1.38,14.82,14.82,0,0,1,3.65-.44,14.08,14.08,0,0,1,3.37.39,7.83,7.83,0,0,1,2.75,1.24A5.76,5.76,0,0,1,243,591a8.21,8.21,0,0,1,.67,3.49v12.94q0,1.61.57,2t2.32-.21v2.16l-.94.28a4.28,4.28,0,0,1-1.22.18,5.48,5.48,0,0,1-1.24-.14,2.12,2.12,0,0,1-1.1-.44,2.68,2.68,0,0,1-.67-.83,3.41,3.41,0,0,1-.34-1.06,7.63,7.63,0,0,1-.09-1.22,12,12,0,0,1-4,2.94,11.74,11.74,0,0,1-4.86,1,10.88,10.88,0,0,1-3-.41,7.27,7.27,0,0,1-2.55-1.28,6.37,6.37,0,0,1-1.74-2.13,6.54,6.54,0,0,1-.64-3q0-6.06,8.3-7.16Zm4.63,1.38a13.48,13.48,0,0,1-3.53,1q-1.79.23-3.58.37a10.09,10.09,0,0,0-4.93,1.42,4.08,4.08,0,0,0-1.77,3.62,3.93,3.93,0,0,0,.44,1.9,4,4,0,0,0,1.15,1.33,4.83,4.83,0,0,0,1.65.78,7.3,7.3,0,0,0,1.9.25,12.5,12.5,0,0,0,3.21-.41,8.68,8.68,0,0,0,2.78-1.26,6.44,6.44,0,0,0,1.95-2.16,6.23,6.23,0,0,0,.73-3.1Zm10.37,12.48v-33H254v33Zm10.18,0v-33h2.75v33Zm20.69-13.86q.78-.09,1.86-.28a7,7,0,0,0,1.77-.5,1.46,1.46,0,0,0,.85-1.08,6.79,6.79,0,0,0,.16-1.4,4.69,4.69,0,0,0-1.35-3.46q-1.35-1.35-4.56-1.35a12.68,12.68,0,0,0-2.62.25,5.69,5.69,0,0,0-2.09.87,4.81,4.81,0,0,0-1.47,1.65,7,7,0,0,0-.76,2.59h-2.8a8.5,8.5,0,0,1,1-3.6,7.31,7.31,0,0,1,2.13-2.43,8.87,8.87,0,0,1,3-1.38,14.82,14.82,0,0,1,3.65-.44,14.08,14.08,0,0,1,3.37.39,7.83,7.83,0,0,1,2.75,1.24,5.76,5.76,0,0,1,1.84,2.27,8.21,8.21,0,0,1,.67,3.49v12.94q0,1.61.57,2t2.32-.21v2.16l-.94.28a4.28,4.28,0,0,1-1.22.18,5.48,5.48,0,0,1-1.24-.14,2.12,2.12,0,0,1-1.1-.44,2.68,2.68,0,0,1-.67-.83,3.41,3.41,0,0,1-.34-1.06,7.63,7.63,0,0,1-.09-1.22,12,12,0,0,1-4,2.94,11.74,11.74,0,0,1-4.86,1,10.88,10.88,0,0,1-3-.41,7.27,7.27,0,0,1-2.55-1.28,6.37,6.37,0,0,1-1.74-2.13,6.54,6.54,0,0,1-.64-3q0-6.06,8.3-7.16Zm4.63,1.38a13.48,13.48,0,0,1-3.53,1q-1.79.23-3.58.37a10.09,10.09,0,0,0-4.93,1.42A4.08,4.08,0,0,0,273,605.4a3.93,3.93,0,0,0,.44,1.9,4,4,0,0,0,1.15,1.33,4.83,4.83,0,0,0,1.65.78,7.3,7.3,0,0,0,1.9.25,12.5,12.5,0,0,0,3.21-.41,8.68,8.68,0,0,0,2.78-1.26,6.44,6.44,0,0,0,1.95-2.16,6.23,6.23,0,0,0,.73-3.1Zm18.31,12.57q-.51.09-1.33.32a6.86,6.86,0,0,1-1.84.23,4.37,4.37,0,0,1-3.14-1q-1.08-1-1.08-3.69V590h-3.35v-2.29h3.35v-6.61h2.75v6.61h4.45V590h-4.45v16.29q0,.87,0,1.51a2.52,2.52,0,0,0,.28,1.06,1.31,1.31,0,0,0,.71.6,3.93,3.93,0,0,0,1.35.18,7.05,7.05,0,0,0,1.12-.09q.57-.09,1.12-.23Zm4.68-29v-4.08h3v4.08Zm.14,28.95V587.74h2.75V611.5Zm19.22.64a12.38,12.38,0,0,1-4.29-.83,9.6,9.6,0,0,1-3.49-2.34,11.22,11.22,0,0,1-2.36-3.9,15.6,15.6,0,0,1-.87-5.46,16.77,16.77,0,0,1,.69-4.89,11.54,11.54,0,0,1,2.06-4,9.81,9.81,0,0,1,3.44-2.68,11.06,11.06,0,0,1,4.82-1,11.18,11.18,0,0,1,4.86,1,9.93,9.93,0,0,1,3.44,2.66,11,11,0,0,1,2,4,17.57,17.57,0,0,1,.67,4.91,15.9,15.9,0,0,1-.78,5.14,11.57,11.57,0,0,1-2.23,3.95,9.8,9.8,0,0,1-3.49,2.55A11.14,11.14,0,0,1,329.11,612.14Zm8.07-12.52a16.26,16.26,0,0,0-.46-3.95,9.36,9.36,0,0,0-1.42-3.19,6.84,6.84,0,0,0-2.48-2.13,8,8,0,0,0-3.72-.78,7.53,7.53,0,0,0-3.69.85,7.23,7.23,0,0,0-2.5,2.25,9.88,9.88,0,0,0-1.42,3.21,15.17,15.17,0,0,0-.46,3.74,14.81,14.81,0,0,0,.53,4.06,9.5,9.5,0,0,0,1.54,3.19,6.89,6.89,0,0,0,2.52,2.06,7.89,7.89,0,0,0,3.49.73,7.53,7.53,0,0,0,3.69-.85,7.14,7.14,0,0,0,2.5-2.27,10.18,10.18,0,0,0,1.42-3.21A14.93,14.93,0,0,0,337.19,599.62Zm10.74,11.88h-2.75V587.74h2.75V591a17.48,17.48,0,0,1,3.42-2.84,7.86,7.86,0,0,1,4.24-1.1,10.84,10.84,0,0,1,4.08.76,7,7,0,0,1,3.17,2.64,5.93,5.93,0,0,1,1,2.64,24,24,0,0,1,.16,2.82V611.5h-2.75V596a7.08,7.08,0,0,0-1.42-4.82q-1.42-1.61-4.73-1.61a6.71,6.71,0,0,0-2.34.39,7.36,7.36,0,0,0-1.9,1,6.9,6.9,0,0,0-1.45,1.47,6.79,6.79,0,0,0-.92,1.74,8.74,8.74,0,0,0-.5,2.2q-.09,1.06-.09,2.29Zm46.43-13.86q.78-.09,1.86-.28a7,7,0,0,0,1.77-.5,1.46,1.46,0,0,0,.85-1.08,6.79,6.79,0,0,0,.16-1.4,4.69,4.69,0,0,0-1.35-3.46q-1.35-1.35-4.56-1.35a12.68,12.68,0,0,0-2.62.25,5.69,5.69,0,0,0-2.09.87,4.81,4.81,0,0,0-1.47,1.65,7,7,0,0,0-.76,2.59h-2.8a8.5,8.5,0,0,1,1-3.6,7.31,7.31,0,0,1,2.13-2.43,8.87,8.87,0,0,1,3-1.38,14.82,14.82,0,0,1,3.65-.44,14.08,14.08,0,0,1,3.37.39,7.83,7.83,0,0,1,2.75,1.24,5.76,5.76,0,0,1,1.84,2.27,8.21,8.21,0,0,1,.67,3.49v12.94q0,1.61.57,2t2.32-.21v2.16l-.94.28a4.28,4.28,0,0,1-1.22.18,5.48,5.48,0,0,1-1.24-.14,2.12,2.12,0,0,1-1.1-.44,2.68,2.68,0,0,1-.67-.83,3.41,3.41,0,0,1-.34-1.06,7.63,7.63,0,0,1-.09-1.22,12,12,0,0,1-4,2.94,11.74,11.74,0,0,1-4.86,1,10.88,10.88,0,0,1-3-.41,7.27,7.27,0,0,1-2.55-1.28,6.37,6.37,0,0,1-1.74-2.13,6.54,6.54,0,0,1-.64-3q0-6.06,8.3-7.16ZM399,599a13.48,13.48,0,0,1-3.53,1q-1.79.23-3.58.37a10.09,10.09,0,0,0-4.93,1.42,4.08,4.08,0,0,0-1.77,3.62,3.93,3.93,0,0,0,.44,1.9,4,4,0,0,0,1.15,1.33,4.83,4.83,0,0,0,1.65.78,7.3,7.3,0,0,0,1.9.25,12.5,12.5,0,0,0,3.21-.41A8.68,8.68,0,0,0,396.3,608a6.44,6.44,0,0,0,1.95-2.16,6.23,6.23,0,0,0,.73-3.1Zm7.43-11.29h3l7.71,20.37,7.71-20.37h3l-9.22,23.76H415.5Zm27.16,12.52a12.88,12.88,0,0,0,.5,3.65,8.79,8.79,0,0,0,1.49,3,7.21,7.21,0,0,0,2.5,2,7.7,7.7,0,0,0,3.49.76,7.58,7.58,0,0,0,4.63-1.42,6.85,6.85,0,0,0,2.57-4h3.07a14.84,14.84,0,0,1-1.33,3.14,9.69,9.69,0,0,1-2.06,2.52,8.91,8.91,0,0,1-2.94,1.67,11.91,11.91,0,0,1-3.95.6,11.52,11.52,0,0,1-4.91-1,9.25,9.25,0,0,1-3.39-2.64,11.12,11.12,0,0,1-2-3.95,17.87,17.87,0,0,1-.64-4.89,15.57,15.57,0,0,1,.76-4.91,12.49,12.49,0,0,1,2.16-4,10,10,0,0,1,3.42-2.71,10.32,10.32,0,0,1,4.59-1,9.48,9.48,0,0,1,7.71,3.37q2.8,3.37,2.75,9.79ZM449.08,598a10.91,10.91,0,0,0-.48-3.28,7.68,7.68,0,0,0-1.42-2.66,6.78,6.78,0,0,0-2.36-1.79,7.61,7.61,0,0,0-3.26-.67,7.24,7.24,0,0,0-3.23.69,7.44,7.44,0,0,0-2.39,1.84,9.21,9.21,0,0,0-1.58,2.66,12.31,12.31,0,0,0-.78,3.21Zm25.14-2.75a8,8,0,0,0-2.52-4.15,6.86,6.86,0,0,0-4.54-1.49,7.15,7.15,0,0,0-3.62.87,7.34,7.34,0,0,0-2.48,2.32,10.43,10.43,0,0,0-1.42,3.26,14.8,14.8,0,0,0-.46,3.65,15.42,15.42,0,0,0,.44,3.67,9.8,9.8,0,0,0,1.4,3.21,7.2,7.2,0,0,0,2.48,2.27,7.39,7.39,0,0,0,3.67.85,7,7,0,0,0,4.93-1.7,7.89,7.89,0,0,0,2.36-4.68h2.94a13.85,13.85,0,0,1-1.17,3.6,9.51,9.51,0,0,1-2.06,2.8,8.88,8.88,0,0,1-3,1.81,12.87,12.87,0,0,1-8.9-.32,9.25,9.25,0,0,1-3.39-2.64,11.1,11.1,0,0,1-2-4,18.12,18.12,0,0,1-.64-4.91,15.78,15.78,0,0,1,.71-4.75,12.38,12.38,0,0,1,2.09-4,10.1,10.1,0,0,1,3.42-2.78,10.28,10.28,0,0,1,4.7-1,10.6,10.6,0,0,1,6.68,2,9.16,9.16,0,0,1,3.19,6.15Zm37.53-7.48h2.75V611.5h-2.75v-3.3q-.55.64-1.24,1.33a9.39,9.39,0,0,1-1.58,1.26,9,9,0,0,1-2.09,1,8.88,8.88,0,0,1-2.75.39,10.47,10.47,0,0,1-4-.67,6.52,6.52,0,0,1-2.59-1.86,7.35,7.35,0,0,1-1.42-2.78,13,13,0,0,1-.44-3.46V587.74h2.75v15.6a6.94,6.94,0,0,0,1.42,4.7q1.42,1.63,4.68,1.63a6.82,6.82,0,0,0,3.05-.67,6.37,6.37,0,0,0,2.27-1.86,8.87,8.87,0,0,0,1.42-2.84,12.37,12.37,0,0,0,.5-3.62Zm12.16,23.76h-2.75V587.74h2.75V591a17.48,17.48,0,0,1,3.42-2.84,7.86,7.86,0,0,1,4.24-1.1,10.84,10.84,0,0,1,4.08.76,7,7,0,0,1,3.17,2.64,5.93,5.93,0,0,1,1,2.64,24,24,0,0,1,.16,2.82V611.5h-2.75V596a7.08,7.08,0,0,0-1.42-4.82q-1.42-1.61-4.73-1.61a6.71,6.71,0,0,0-2.34.39,7.36,7.36,0,0,0-1.9,1,6.9,6.9,0,0,0-1.45,1.47,6.79,6.79,0,0,0-.92,1.74,8.75,8.75,0,0,0-.5,2.2q-.09,1.06-.09,2.29Zm43.86.09q-.51.09-1.33.32a6.86,6.86,0,0,1-1.84.23,4.37,4.37,0,0,1-3.14-1q-1.08-1-1.08-3.69V590H557v-2.29h3.35v-6.61h2.75v6.61h4.45V590h-4.45v16.29q0,.87,0,1.51a2.52,2.52,0,0,0,.28,1.06,1.31,1.31,0,0,0,.71.6,3.93,3.93,0,0,0,1.35.18,7.05,7.05,0,0,0,1.12-.09q.57-.09,1.12-.23Zm6.1-11.33a12.88,12.88,0,0,0,.5,3.65,8.79,8.79,0,0,0,1.49,3,7.21,7.21,0,0,0,2.5,2,7.7,7.7,0,0,0,3.49.76,7.58,7.58,0,0,0,4.63-1.42,6.85,6.85,0,0,0,2.57-4h3.07a14.84,14.84,0,0,1-1.33,3.14,9.69,9.69,0,0,1-2.06,2.52,8.91,8.91,0,0,1-2.94,1.67,11.91,11.91,0,0,1-3.95.6,11.52,11.52,0,0,1-4.91-1,9.25,9.25,0,0,1-3.39-2.64,11.12,11.12,0,0,1-2-3.95,17.87,17.87,0,0,1-.64-4.89,15.57,15.57,0,0,1,.76-4.91,12.49,12.49,0,0,1,2.16-4,10,10,0,0,1,3.42-2.71,10.32,10.32,0,0,1,4.59-1,9.48,9.48,0,0,1,7.71,3.37q2.8,3.37,2.75,9.79ZM589.38,598a10.91,10.91,0,0,0-.48-3.28,7.68,7.68,0,0,0-1.42-2.66,6.78,6.78,0,0,0-2.36-1.79,7.61,7.61,0,0,0-3.26-.67,7.24,7.24,0,0,0-3.23.69,7.44,7.44,0,0,0-2.39,1.84,9.21,9.21,0,0,0-1.58,2.66,12.32,12.32,0,0,0-.78,3.21Zm25.14-2.75a8,8,0,0,0-2.52-4.15,6.86,6.86,0,0,0-4.54-1.49,7.15,7.15,0,0,0-3.62.87,7.34,7.34,0,0,0-2.48,2.32,10.43,10.43,0,0,0-1.42,3.26,14.8,14.8,0,0,0-.46,3.65,15.42,15.42,0,0,0,.44,3.67,9.8,9.8,0,0,0,1.4,3.21,7.2,7.2,0,0,0,2.48,2.27,7.39,7.39,0,0,0,3.67.85,7,7,0,0,0,4.93-1.7,7.89,7.89,0,0,0,2.36-4.68h2.94a13.85,13.85,0,0,1-1.17,3.6,9.51,9.51,0,0,1-2.06,2.8,8.88,8.88,0,0,1-3,1.81,12.87,12.87,0,0,1-8.9-.32,9.25,9.25,0,0,1-3.39-2.64,11.1,11.1,0,0,1-2-4,18.12,18.12,0,0,1-.64-4.91,15.78,15.78,0,0,1,.71-4.75,12.38,12.38,0,0,1,2.09-4,10.1,10.1,0,0,1,3.42-2.78,10.28,10.28,0,0,1,4.7-1,10.6,10.6,0,0,1,6.68,2,9.16,9.16,0,0,1,3.19,6.15Zm8.67,16.29v-33h2.75V591a17.48,17.48,0,0,1,3.42-2.84,7.86,7.86,0,0,1,4.24-1.1,10.84,10.84,0,0,1,4.08.76,7,7,0,0,1,3.17,2.64,5.93,5.93,0,0,1,1,2.64,24,24,0,0,1,.16,2.82V611.5h-2.75V596a7.08,7.08,0,0,0-1.42-4.82q-1.42-1.61-4.73-1.61a6.71,6.71,0,0,0-2.34.39,7.36,7.36,0,0,0-1.9,1,6.9,6.9,0,0,0-1.45,1.47,6.79,6.79,0,0,0-.92,1.74,8.75,8.75,0,0,0-.5,2.2q-.09,1.06-.09,2.29v12.8Zm28.26,0H648.7V587.74h2.75V591a17.48,17.48,0,0,1,3.42-2.84,7.86,7.86,0,0,1,4.24-1.1,10.84,10.84,0,0,1,4.08.76,7,7,0,0,1,3.17,2.64,5.93,5.93,0,0,1,1,2.64,24,24,0,0,1,.16,2.82V611.5H664.8V596a7.08,7.08,0,0,0-1.42-4.82q-1.42-1.61-4.73-1.61a6.71,6.71,0,0,0-2.34.39,7.36,7.36,0,0,0-1.9,1,6.9,6.9,0,0,0-1.45,1.47,6.79,6.79,0,0,0-.92,1.74,8.75,8.75,0,0,0-.5,2.2q-.09,1.06-.09,2.29Zm23-28.95v-4.08h3v4.08Zm.14,28.95V587.74h2.75V611.5Zm26.61-16.29a8,8,0,0,0-2.52-4.15,6.86,6.86,0,0,0-4.54-1.49,7.15,7.15,0,0,0-3.62.87,7.34,7.34,0,0,0-2.48,2.32,10.43,10.43,0,0,0-1.42,3.26,14.8,14.8,0,0,0-.46,3.65,15.42,15.42,0,0,0,.44,3.67,9.8,9.8,0,0,0,1.4,3.21,7.2,7.2,0,0,0,2.48,2.27,7.39,7.39,0,0,0,3.67.85,7,7,0,0,0,4.93-1.7,7.89,7.89,0,0,0,2.36-4.68h2.94a13.85,13.85,0,0,1-1.17,3.6,9.51,9.51,0,0,1-2.06,2.8,8.88,8.88,0,0,1-3,1.81,12.87,12.87,0,0,1-8.9-.32,9.25,9.25,0,0,1-3.39-2.64,11.1,11.1,0,0,1-2-4,18.12,18.12,0,0,1-.64-4.91,15.78,15.78,0,0,1,.71-4.75,12.38,12.38,0,0,1,2.09-4,10.1,10.1,0,0,1,3.42-2.78,10.28,10.28,0,0,1,4.7-1,10.6,10.6,0,0,1,6.68,2,9.16,9.16,0,0,1,3.19,6.15Zm8.95-12.66v-4.08h3v4.08Zm.14,28.95V587.74h2.75V611.5Zm11.47-11.24a12.88,12.88,0,0,0,.5,3.65,8.79,8.79,0,0,0,1.49,3,7.21,7.21,0,0,0,2.5,2,7.7,7.7,0,0,0,3.49.76,7.58,7.58,0,0,0,4.63-1.42,6.85,6.85,0,0,0,2.57-4H740a14.84,14.84,0,0,1-1.33,3.14,9.69,9.69,0,0,1-2.06,2.52,8.91,8.91,0,0,1-2.94,1.67,11.91,11.91,0,0,1-3.95.6,11.52,11.52,0,0,1-4.91-1,9.25,9.25,0,0,1-3.39-2.64,11.12,11.12,0,0,1-2-3.95,17.87,17.87,0,0,1-.64-4.89,15.57,15.57,0,0,1,.76-4.91,12.49,12.49,0,0,1,2.16-4,10,10,0,0,1,3.42-2.71,10.32,10.32,0,0,1,4.59-1,9.48,9.48,0,0,1,7.71,3.37q2.8,3.37,2.75,9.79ZM737.29,598a10.91,10.91,0,0,0-.48-3.28,7.68,7.68,0,0,0-1.42-2.66,6.78,6.78,0,0,0-2.36-1.79,7.61,7.61,0,0,0-3.26-.67,7.24,7.24,0,0,0-3.23.69,7.44,7.44,0,0,0-2.39,1.84,9.21,9.21,0,0,0-1.58,2.66,12.32,12.32,0,0,0-.78,3.21Zm11.06,13.53h-2.75V587.74h2.75V591a17.48,17.48,0,0,1,3.42-2.84,7.86,7.86,0,0,1,4.24-1.1,10.84,10.84,0,0,1,4.08.76,7,7,0,0,1,3.17,2.64,5.93,5.93,0,0,1,1,2.64,24,24,0,0,1,.16,2.82V611.5H761.7V596a7.08,7.08,0,0,0-1.42-4.82q-1.42-1.61-4.73-1.61a6.71,6.71,0,0,0-2.34.39,7.36,7.36,0,0,0-1.9,1,6.9,6.9,0,0,0-1.45,1.47,6.79,6.79,0,0,0-.92,1.74,8.75,8.75,0,0,0-.5,2.2q-.09,1.06-.09,2.29Zm46.43-13.86q.78-.09,1.86-.28a7,7,0,0,0,1.77-.5,1.46,1.46,0,0,0,.85-1.08,6.79,6.79,0,0,0,.16-1.4,4.69,4.69,0,0,0-1.35-3.46q-1.35-1.35-4.56-1.35a12.68,12.68,0,0,0-2.62.25,5.69,5.69,0,0,0-2.09.87,4.81,4.81,0,0,0-1.47,1.65,7,7,0,0,0-.76,2.59h-2.8a8.5,8.5,0,0,1,1-3.6,7.31,7.31,0,0,1,2.13-2.43,8.87,8.87,0,0,1,3-1.38,14.82,14.82,0,0,1,3.65-.44,14.08,14.08,0,0,1,3.37.39,7.83,7.83,0,0,1,2.75,1.24A5.76,5.76,0,0,1,801.5,591a8.21,8.21,0,0,1,.67,3.49v12.94q0,1.61.57,2t2.32-.21v2.16l-.94.28a4.28,4.28,0,0,1-1.22.18,5.48,5.48,0,0,1-1.24-.14,2.12,2.12,0,0,1-1.1-.44,2.68,2.68,0,0,1-.67-.83,3.41,3.41,0,0,1-.34-1.06,7.63,7.63,0,0,1-.09-1.22,12,12,0,0,1-4,2.94,11.74,11.74,0,0,1-4.86,1,10.88,10.88,0,0,1-3-.41,7.27,7.27,0,0,1-2.55-1.28,6.37,6.37,0,0,1-1.74-2.13,6.54,6.54,0,0,1-.64-3q0-6.06,8.3-7.16Zm4.63,1.38a13.48,13.48,0,0,1-3.53,1q-1.79.23-3.58.37a10.09,10.09,0,0,0-4.93,1.42,4.08,4.08,0,0,0-1.77,3.62,3.93,3.93,0,0,0,.44,1.9,4,4,0,0,0,1.15,1.33,4.83,4.83,0,0,0,1.65.78,7.3,7.3,0,0,0,1.9.25,12.5,12.5,0,0,0,3.21-.41,8.68,8.68,0,0,0,2.78-1.26,6.44,6.44,0,0,0,1.95-2.16,6.23,6.23,0,0,0,.73-3.1Zm28.31-11.29h2.75v21.47a21.09,21.09,0,0,1-.48,4.56,9.84,9.84,0,0,1-1.72,3.83,8.62,8.62,0,0,1-3.39,2.64,15.85,15.85,0,0,1-10,.32,9.75,9.75,0,0,1-3.07-1.67,7.23,7.23,0,0,1-1.81-2.23,5.58,5.58,0,0,1-.67-2.27h2.94a5.43,5.43,0,0,0,1,2.18,5,5,0,0,0,1.63,1.33,7,7,0,0,0,2.09.67,15.13,15.13,0,0,0,2.39.18,9.08,9.08,0,0,0,4.5-1,6.59,6.59,0,0,0,2.57-2.52,9.71,9.71,0,0,0,1.12-3.53,27.17,27.17,0,0,0,.21-4,8.52,8.52,0,0,1-3.65,3.33,11,11,0,0,1-4.84,1.12,10.1,10.1,0,0,1-4.7-1,9.66,9.66,0,0,1-3.3-2.75,11.82,11.82,0,0,1-1.95-4,17.59,17.59,0,0,1-.64-4.77,19.44,19.44,0,0,1,.6-4.91,10.76,10.76,0,0,1,1.9-4,9.14,9.14,0,0,1,3.33-2.64,11.33,11.33,0,0,1,4.91-1,9,9,0,0,1,2.34.32,11.13,11.13,0,0,1,2.32.92,9,9,0,0,1,2.06,1.51,8.1,8.1,0,0,1,1.54,2.06h.09Zm0,12a14.66,14.66,0,0,0-.53-4,9.8,9.8,0,0,0-1.54-3.21,7.26,7.26,0,0,0-2.52-2.13,7.41,7.41,0,0,0-3.44-.78,8.18,8.18,0,0,0-3.21.62,7.35,7.35,0,0,0-2.57,1.81,8.46,8.46,0,0,0-1.72,2.91,11.69,11.69,0,0,0-.62,4,15.48,15.48,0,0,0,.37,4.2,10,10,0,0,0,1.47,3.42,7.31,7.31,0,0,0,2.57,2.32,7.66,7.66,0,0,0,3.72.85,7,7,0,0,0,3.37-.8,7.77,7.77,0,0,0,2.52-2.16,9.91,9.91,0,0,0,1.58-3.17A13.1,13.1,0,0,0,827.72,599.71Zm12.57,11.79h-2.75V587.74h2.75v4.45h.09a8,8,0,0,1,3-4,9,9,0,0,1,4.79-1.12v3a8,8,0,0,0-3.85.73,6.34,6.34,0,0,0-2.41,2.11,8.36,8.36,0,0,0-1.24,3.14,20.27,20.27,0,0,0-.34,3.78Zm13.26-11.24a12.88,12.88,0,0,0,.5,3.65,8.8,8.8,0,0,0,1.49,3,7.21,7.21,0,0,0,2.5,2,7.7,7.7,0,0,0,3.49.76,7.58,7.58,0,0,0,4.63-1.42,6.85,6.85,0,0,0,2.57-4h3.07a14.84,14.84,0,0,1-1.33,3.14,9.69,9.69,0,0,1-2.06,2.52,8.91,8.91,0,0,1-2.94,1.67,11.91,11.91,0,0,1-3.95.6,11.52,11.52,0,0,1-4.91-1,9.25,9.25,0,0,1-3.4-2.64,11.12,11.12,0,0,1-2-3.95,17.87,17.87,0,0,1-.64-4.89,15.57,15.57,0,0,1,.76-4.91,12.49,12.49,0,0,1,2.16-4,10,10,0,0,1,3.42-2.71,10.32,10.32,0,0,1,4.59-1,9.48,9.48,0,0,1,7.71,3.37q2.8,3.37,2.75,9.79ZM869.05,598a10.91,10.91,0,0,0-.48-3.28,7.68,7.68,0,0,0-1.42-2.66,6.78,6.78,0,0,0-2.36-1.79,7.61,7.61,0,0,0-3.26-.67,7.24,7.24,0,0,0-3.23.69,7.44,7.44,0,0,0-2.39,1.84,9.21,9.21,0,0,0-1.58,2.66,12.31,12.31,0,0,0-.78,3.21Zm-10.37-12.8,5.09-6.38h3.53L861,585.17Zm20.37,15.09a12.88,12.88,0,0,0,.5,3.65,8.8,8.8,0,0,0,1.49,3,7.21,7.21,0,0,0,2.5,2,7.7,7.7,0,0,0,3.49.76,7.58,7.58,0,0,0,4.63-1.42,6.85,6.85,0,0,0,2.57-4h3.07a14.84,14.84,0,0,1-1.33,3.14,9.69,9.69,0,0,1-2.06,2.52,8.91,8.91,0,0,1-2.94,1.67,11.91,11.91,0,0,1-3.95.6,11.52,11.52,0,0,1-4.91-1,9.25,9.25,0,0,1-3.4-2.64,11.12,11.12,0,0,1-2-3.95,17.87,17.87,0,0,1-.64-4.89,15.57,15.57,0,0,1,.76-4.91,12.49,12.49,0,0,1,2.16-4,10,10,0,0,1,3.42-2.71,10.32,10.32,0,0,1,4.59-1,9.48,9.48,0,0,1,7.71,3.37q2.8,3.37,2.75,9.79ZM894.56,598a10.91,10.91,0,0,0-.48-3.28,7.68,7.68,0,0,0-1.42-2.66,6.78,6.78,0,0,0-2.36-1.79,7.61,7.61,0,0,0-3.26-.67,7.24,7.24,0,0,0-3.23.69,7.44,7.44,0,0,0-2.39,1.84,9.21,9.21,0,0,0-1.58,2.66,12.31,12.31,0,0,0-.78,3.21Zm-10.37-12.8,5.09-6.38h3.53l-6.29,6.38Zm20,26.33v-4h3.35v4Z" transform="translate(-115 -148.13)"/><path class="cls-2" d="M512,340.82a97.33,97.33,0,0,1-65.9-25.66,95.44,95.44,0,0,1-30.41-70.23c0-53.38,43.54-96.8,97.06-96.8H609v96C609,297.45,565.52,340.82,512,340.82Zm.75-186.3c-50,0-90.67,40.56-90.67,90.41a89,89,0,0,0,28.31,65.49,91,91,0,0,0,61.61,24c50,0,90.61-40.5,90.61-90.28V154.52Z" transform="translate(-115 -148.13)"/><path class="cls-1" d="M546.75,216.59a4.41,4.41,0,0,1,3.22,1.36,4.48,4.48,0,0,1,1.36,3.29,4.37,4.37,0,0,1-1.29,3.22l-45.62,45.91-.57.57a4.33,4.33,0,0,1-6.44,0l-22.74-22.6-.57-.86a3.19,3.19,0,0,1-.43-.93,7.21,7.21,0,0,1-.21-1,3.41,3.41,0,0,1,0-1,5.16,5.16,0,0,1,.21-.93,5.08,5.08,0,0,1,.43-.93,3.69,3.69,0,0,1,.57-.79,4.5,4.5,0,0,1,6.58,0l19.31,19.31L543.46,218A4.52,4.52,0,0,1,546.75,216.59Z" transform="translate(-115 -148.13)"/></svg>