<svg id="Layer_1" data-name="Layer 1" xmlns="http://www.w3.org/2000/svg" xmlns:xlink="http://www.w3.org/1999/xlink" viewBox="0 0 381.01 201.87"><defs><style>.cls-1{fill-rule:evenodd;fill:url(#linear-gradient);}</style><linearGradient id="linear-gradient" x1="291.35" y1="92.62" x2="48.81" y2="335.15" gradientUnits="userSpaceOnUse"><stop offset="0" stop-color="#20b5b5"/><stop offset="1" stop-color="#1381b4"/></linearGradient></defs><title>logo</title><path class="cls-1" d="M328.33,191.94q13.4,0,20.37,7.1a36.78,36.78,0,0,1,9.43,15.57l32.55-10.93A62.89,62.89,0,0,0,383.58,187a53.74,53.74,0,0,0-12.85-14.48A67.11,67.11,0,0,0,352,162.3a75.43,75.43,0,0,0-52,1.36,68.42,68.42,0,0,0-22.15,14.75A67.21,67.21,0,0,0,263.1,201a75.41,75.41,0,0,0-5.33,28.68,72.7,72.7,0,0,0,5.47,28.54,69.73,69.73,0,0,0,15,22.54,68.1,68.1,0,0,0,22.57,14.89,72.42,72.42,0,0,0,27.76,5.33,68.75,68.75,0,0,0,24.06-4,65.57,65.57,0,0,0,18.6-10.38,59.18,59.18,0,0,0,20.24-31l-32-10.65a36.62,36.62,0,0,1-3.42,7.92,27.68,27.68,0,0,1-6.16,7.37,31,31,0,0,1-9.16,5.33,33.73,33.73,0,0,1-12.17,2,35.46,35.46,0,0,1-13.27-2.46,31.42,31.42,0,0,1-10.94-7.38,34.9,34.9,0,0,1-7.52-12,48.82,48.82,0,0,1,0-32.23,34.66,34.66,0,0,1,7.38-11.88,30.91,30.91,0,0,1,10.8-7.24A35.38,35.38,0,0,1,328.33,191.94ZM162.13,296.83v-77.3q0-11.75,6.56-19.81t18.6-8.06q13.13,0,19,7.65t5.88,19.12v78.4h36.38V212.16a73.67,73.67,0,0,0-2.87-20.76,45.6,45.6,0,0,0-8.89-16.94,43.45,43.45,0,0,0-15.18-11.34q-9.15-4.24-21.74-4.23a52,52,0,0,0-21.74,4.92A38,38,0,0,0,161,179.1V162.44H125.75v134.4Zm-94,0H104.5V162.44H68.12Zm-57.63,0H46.87V99.07H10.49Z" transform="translate(-10.49 -99.07)"/></svg>